<svg width="30" height="34" viewBox="0 0 30 34" fill="none" xmlns="http://www.w3.org/2000/svg">
<path d="M29.2811 16.2301C29.1992 16.1307 29.1542 16.0095 29.2095 15.889C29.3163 15.6568 29.2444 15.4532 29.1562 15.2365C29.1061 15.1132 29.1107 14.9681 29.0905 14.8327C29.0778 14.7477 29.0872 14.6506 29.048 14.5803C28.9465 14.3982 28.83 14.2231 28.7078 14.0541C28.5545 13.8425 28.3896 13.6391 28.2285 13.4329C28.0384 13.1891 27.8522 12.9416 27.6515 12.7063C27.6111 12.6589 27.5026 12.6255 27.4452 12.6446C27.3073 12.6906 27.1746 12.7614 27.0521 12.8411C26.8936 12.9442 26.7412 13.0299 26.5415 13.0524C26.3154 13.0782 26.0804 13.1322 25.8778 13.2319C25.5811 13.3777 25.3204 13.5962 25.0243 13.7441C24.7434 13.8844 24.5481 14.092 24.3847 14.3455C24.3399 14.415 24.2872 14.4805 24.2312 14.5416C24.0452 14.745 23.9138 14.9758 23.8279 15.2387C23.7619 15.4409 23.6919 15.6499 23.5778 15.8261C23.4656 15.9994 23.3916 16.1787 23.3398 16.3726C23.3235 16.4332 23.3146 16.4959 23.3023 16.5576C23.1758 16.5269 23.0626 16.5079 22.9557 16.4712C22.858 16.4375 22.745 16.4058 22.6767 16.336C22.5063 16.1623 22.3033 16.0481 22.0826 15.9617C21.8854 15.8846 21.7062 15.7875 21.5426 15.6489C21.4561 15.5755 21.327 15.55 21.2155 15.5072C21.1343 15.4761 21.0414 15.4666 20.9695 15.4218C20.7729 15.2997 20.5899 15.1554 20.3913 15.0368C20.2623 14.9594 20.1204 14.8921 19.9755 14.8566C19.877 14.8325 19.8444 14.8074 19.8488 14.7087C19.8626 14.4112 19.8012 14.1296 19.6638 13.8622C19.5005 13.5445 19.1649 13.3713 18.8187 13.4303C18.6644 13.4565 18.4999 13.507 18.3538 13.4777C18.1634 13.4396 17.9812 13.3639 17.7803 13.3718C17.7453 13.3732 17.7054 13.3469 17.6737 13.3251C17.4406 13.1639 17.2075 13.0028 16.9781 12.8366C16.8929 12.7748 16.819 12.7709 16.7241 12.8182C16.6542 12.8531 16.5694 12.8726 16.4907 12.8733C16.1449 12.8768 15.7988 12.8686 15.4528 12.8689C15.157 12.8691 14.8525 12.9722 14.5734 12.7893C14.5596 12.7802 14.5398 12.777 14.5228 12.7767C14.3499 12.7751 14.2661 12.6838 14.2313 12.5192C14.2215 12.4725 14.1492 12.407 14.1034 12.4054C13.8755 12.3972 13.6468 12.403 13.4188 12.4133C13.2937 12.4191 13.1546 12.4135 13.048 12.4658C12.8227 12.5763 12.6159 12.7238 12.3986 12.8513C12.3126 12.9018 12.2258 12.913 12.1772 12.8078C12.2332 12.7361 12.3109 12.6785 12.3274 12.6072C12.3715 12.4154 12.1156 12.1985 11.9289 12.2624C11.8432 12.2916 11.7571 12.3311 11.6846 12.384C11.5436 12.4869 11.4143 12.6058 11.276 12.7124C11.1038 12.845 10.9297 12.9773 10.6784 12.982C10.7346 12.7684 10.5802 12.6915 10.4435 12.6065C10.3809 12.5675 10.3123 12.5336 10.2419 12.5125C10.0545 12.4556 9.87883 12.4691 9.72968 12.6165C9.60627 12.7384 9.5302 12.7406 9.38574 12.6374C9.20953 12.5118 9.15778 12.5136 8.97808 12.6374C8.91392 12.6815 8.84392 12.7417 8.773 12.747C8.52891 12.7651 8.39291 12.9207 8.26223 13.096C8.1689 13.2214 8.07671 13.3506 7.96639 13.4606C7.71601 13.7104 7.45676 13.9517 7.19546 14.1899C7.16069 14.2218 7.08394 14.2396 7.04053 14.2245C6.84734 14.1568 6.72129 14.007 6.64598 13.8261C6.5018 13.4803 6.36248 13.1316 6.24164 12.7772C6.19497 12.6407 6.17816 12.4832 6.19217 12.3397C6.22414 12.0104 6.29345 11.6846 6.33006 11.3556C6.39846 10.7411 6.53497 10.1409 6.75355 9.5659C7.1409 8.54764 7.55044 7.53728 7.96599 6.52995C8.23015 5.88971 8.41304 5.22933 8.54744 4.55216C8.64146 4.07869 8.6891 3.60567 8.65616 3.12149C8.6398 2.88091 8.66943 2.6343 8.70237 2.39372C8.79782 1.69754 8.56168 1.28121 7.91068 1.0239C7.83045 0.992081 7.7525 0.954005 7.6734 0.918945C7.55044 0.918945 7.42748 0.918945 7.30424 0.918945C7.13787 0.970738 6.96847 1.01462 6.80582 1.07614C6.58696 1.15907 6.34893 1.21752 6.20475 1.42589C6.10747 1.56658 5.97096 1.62509 5.80922 1.65696C5.58618 1.70084 5.36331 1.74916 5.14467 1.81091C4.95148 1.8655 4.78043 1.9651 4.62224 2.14512C5.01473 2.23914 5.37778 2.33322 5.74414 2.41216C6.18045 2.50619 6.57672 2.68131 6.91757 2.96782C7.08651 3.10971 7.24167 3.27784 7.27015 3.50424C7.29932 3.73668 7.30492 3.97499 7.29257 4.20902C7.26037 4.81767 7.05597 5.38494 6.83642 5.94578C6.70156 6.29062 6.52725 6.6217 6.4155 6.97332C6.16838 7.75054 5.93018 8.52982 5.60397 9.27962C5.41472 9.71479 5.21336 10.1476 5.12889 10.6191C5.0304 11.1687 4.94222 11.72 4.84768 12.2703C4.79936 12.5525 4.79752 12.8423 4.68389 13.1137C4.63396 13.2329 4.61131 13.3645 4.58706 13.4925C4.5313 13.7874 4.48229 14.0832 4.43076 14.3788C4.43076 14.8249 4.43076 15.2709 4.43076 15.717C4.46691 15.9393 4.50871 16.161 4.53811 16.3842C4.62281 17.0234 4.81108 17.6337 5.04281 18.2333C5.08948 18.354 5.11842 18.4825 5.14478 18.6097C5.18585 18.8073 5.20592 19.0288 5.39122 19.1391C5.53002 19.2218 5.56176 19.3328 5.59728 19.4619C5.70182 19.8423 5.67265 20.2262 5.60568 20.6051C5.54197 20.966 5.55736 21.318 5.65492 21.6666C5.7872 22.14 5.92486 22.6121 6.0719 23.0814C6.09826 23.1656 6.16969 23.2462 6.24038 23.3043C6.54349 23.5537 6.85432 23.794 7.1616 24.0383C7.18191 24.0543 7.19849 24.0756 7.21388 24.0968C7.36555 24.3058 7.57835 24.4314 7.8245 24.4746C8.29701 24.5575 8.75527 24.7089 9.23504 24.7552C9.31299 24.7626 9.39186 24.7809 9.4658 24.8067C9.60089 24.8538 9.73437 24.9054 9.86831 24.956C9.9402 25.0029 10.0051 25.0603 10.0636 25.1304C10.0237 25.2578 9.9549 25.3714 9.88066 25.4812C9.67884 25.7794 9.40347 25.9905 9.0796 26.1433C8.74686 26.3001 8.39474 26.3961 8.03633 26.4702C7.57223 26.5662 7.10647 26.6541 6.64214 26.748C6.25388 26.8265 5.88449 26.9637 5.51933 27.113C5.0475 27.306 4.5778 27.5045 4.10272 27.6896C3.73401 27.8333 3.35021 27.9257 2.95399 27.9559C2.83521 27.965 2.71505 27.9569 2.59558 27.9596C2.56104 27.9606 2.51975 27.9622 2.49361 27.9805C2.29573 28.1192 2.06777 28.1744 1.83701 28.2237C1.7451 28.2434 1.65383 28.2659 1.56238 28.2872C1.30943 28.3469 1.12184 28.4962 0.976921 28.7061C0.835031 28.9121 0.758053 29.1439 0.70458 29.3842C0.63252 29.7091 0.608214 30.0399 0.594717 30.3713C0.577217 30.7928 0.564635 31.2145 0.547364 31.636C0.542674 31.7511 0.526375 31.8656 0.519569 31.9808C0.517682 32.0145 0.520255 32.0549 0.537527 32.0821C0.739123 32.4039 0.95496 32.7153 1.2396 32.9724C1.48271 33.192 1.75391 33.3577 2.0871 33.4025C2.09688 33.4039 2.10574 33.4125 2.11484 33.4176C2.21635 33.4176 2.31786 33.4176 2.41909 33.4176C2.47811 33.4032 2.53833 33.3923 2.59621 33.3739C2.72294 33.334 2.84871 33.2908 2.97727 33.248C2.96606 33.141 2.92174 33.0679 2.84476 33.0225C2.77407 32.9808 2.69635 32.9485 2.6184 32.9217C2.51946 32.8878 2.41537 32.8681 2.31672 32.8333C2.25301 32.8108 2.19044 32.7782 2.1352 32.7395C2.05702 32.6844 2.02202 32.6015 2.01784 32.5063C2.02179 32.5005 2.02459 32.4917 2.02997 32.4894C2.2955 32.3821 2.43945 32.1548 2.58437 31.9295C2.60141 31.9033 2.60119 31.8615 2.59815 31.8278C2.5727 31.5605 2.49664 31.3051 2.40634 31.0538C2.30625 30.7758 2.20074 30.5 2.10134 30.2221C2.06983 30.134 2.05353 30.0409 2.02551 29.9518C2.00732 29.8939 2.0318 29.8639 2.07915 29.8396C2.17294 29.7917 2.27491 29.7922 2.37591 29.7892C2.51683 29.785 2.65872 29.7915 2.79872 29.7785C2.87924 29.771 2.966 29.7491 3.0344 29.7081C3.81745 29.2355 4.66284 28.9111 5.53883 28.6601C6.3324 28.4326 7.13999 28.2666 7.95478 28.1349C8.31205 28.0773 8.66971 28.0229 9.02767 27.97C9.08017 27.9624 9.12289 27.9456 9.16327 27.9115C9.40501 27.7069 9.69039 27.5936 10.0002 27.5553C10.3304 27.5146 10.6641 27.5012 10.995 27.4664C11.1996 27.4448 11.4045 27.4148 11.6056 27.3721C11.852 27.3199 12.0657 27.194 12.2431 27.0189C12.3968 26.867 12.5366 26.7008 12.6773 26.5362C12.8649 26.3168 13.0442 26.0903 13.2336 25.8725C13.292 25.8054 13.3727 25.758 13.4413 25.6995C13.4866 25.6612 13.5271 25.6624 13.578 25.6933C13.8139 25.8372 14.0685 25.9392 14.3329 26.0184C14.6598 26.1164 14.9943 26.1749 15.3334 26.2104C15.9615 26.2764 16.5916 26.2789 17.222 26.262C17.4031 26.2571 17.5842 26.2569 17.7655 26.2515C17.8187 26.2499 17.8638 26.2612 17.9069 26.293C18.0962 26.4321 18.287 26.5691 18.4767 26.708C18.655 26.8385 18.8396 26.9585 19.0445 27.0449C19.0811 27.0604 19.1175 27.0797 19.156 27.0867C19.3137 27.115 19.4271 27.2139 19.5417 27.3145C19.8795 27.6113 20.1904 27.9345 20.4659 28.2884C20.8276 28.7526 21.179 29.2249 21.5306 29.6967C21.8825 30.1688 22.2365 30.6391 22.6399 31.0698C23.0324 31.4887 23.4648 31.8591 23.9623 32.1503C24.0066 32.1763 24.0441 32.2046 24.0677 32.2536C24.25 32.6323 24.5524 32.8848 24.9299 33.0557C25.3194 33.2319 25.7309 33.2979 26.1563 33.2914C26.7471 33.2824 27.3037 33.1474 27.8095 32.8353C28.1105 32.6495 28.3569 32.4101 28.5156 32.0899C28.5814 31.9568 28.6362 31.8203 28.6453 31.6696C28.6463 31.6531 28.6575 31.6371 28.664 31.621C28.664 31.585 28.664 31.5487 28.664 31.5128C28.4645 31.4787 28.275 31.5247 28.0895 31.5903C27.9122 31.6531 27.7393 31.7278 27.5605 31.7863C27.4065 31.8367 27.2493 31.8815 27.0901 31.9112C26.8297 31.9598 26.6302 31.8479 26.5161 31.6033C26.5621 31.5436 26.6302 31.5353 26.6988 31.532C26.8325 31.5256 26.9667 31.5239 27.1003 31.5148C27.146 31.5118 27.1955 31.5006 27.2341 31.4779C27.2684 31.4575 27.2982 31.4197 27.3148 31.3827C27.3432 31.3186 27.3325 31.3008 27.2651 31.264C27.0705 31.1584 26.8651 31.0783 26.6523 31.018C26.1707 30.8814 25.6769 30.8456 25.1793 30.8437C25.0743 30.8433 24.969 30.8435 24.864 30.8484C24.8089 30.851 24.769 30.8342 24.7287 30.7968C24.4517 30.5407 24.2086 30.2544 23.9757 29.959C23.5975 29.4793 23.262 28.9693 22.9194 28.4645C22.7572 28.2255 22.5885 27.991 22.4179 27.7581C22.3608 27.6798 22.2895 27.6116 22.2223 27.5412C22.2004 27.5182 22.1717 27.4998 22.1433 27.4848C22.0656 27.4434 22.0135 27.4616 21.9771 27.5419C21.964 27.571 21.9554 27.6023 21.9401 27.6459C21.9039 27.6195 21.8726 27.598 21.843 27.5746C21.5553 27.3459 21.336 27.0591 21.1622 26.7405C20.9932 26.4306 20.8403 26.1117 20.685 25.7943C20.5359 25.4896 20.3937 25.1814 20.2024 24.9C20.1154 24.7721 20.0127 24.6546 19.9222 24.5287C19.8774 24.4665 19.8244 24.4588 19.7535 24.4665C19.449 24.4994 19.1459 24.4946 18.8474 24.4156C18.6993 24.3764 18.5595 24.3178 18.4414 24.2171C18.3571 24.1449 18.2949 24.0608 18.2577 23.9602C18.3693 23.9356 18.4804 23.9092 18.5905 23.8792C18.9599 23.7786 19.3297 23.7387 19.7087 23.7607C20.1641 23.7873 20.6191 23.8267 21.0751 23.8425C21.2382 23.8481 21.4163 23.8327 21.5644 23.7717C21.7851 23.6809 21.9959 23.5555 22.1919 23.4185C22.4821 23.2156 22.7467 22.9757 23.041 22.7792C23.177 22.6885 23.2242 22.5919 23.23 22.4423C23.2377 22.2426 23.3387 22.1702 23.5332 22.2062C23.5675 22.2127 23.602 22.2206 23.6354 22.2312C23.8556 22.3012 24.0719 22.2897 24.2924 22.2219C24.4618 22.1699 24.6393 22.1449 24.8102 22.097C24.8414 22.0882 24.8687 22.0288 24.8767 21.9884C24.882 21.961 24.8414 21.9276 24.837 21.8946C24.8298 21.8421 24.8151 21.7579 24.8403 21.7406C24.8891 21.7079 24.9635 21.7033 25.027 21.7044C25.0774 21.7053 25.1261 21.7397 25.1773 21.7459C25.2953 21.7606 25.4057 21.7471 25.4773 21.6329C25.5478 21.5207 25.5504 21.4129 25.468 21.3052C25.4414 21.2706 25.4069 21.2341 25.3999 21.1945C25.3906 21.1411 25.3843 21.0693 25.412 21.0305C25.5138 20.8889 25.6277 20.7556 25.742 20.6234C25.8466 20.5027 25.9851 20.4325 26.1422 20.4219C26.1975 20.4182 26.2656 20.4641 26.3118 20.5053C26.348 20.5373 26.351 20.6037 26.3839 20.6423C26.4225 20.6875 26.477 20.7189 26.5249 20.7565C26.5576 20.7066 26.6026 20.6604 26.6196 20.6056C26.6374 20.5492 26.618 20.4818 26.6331 20.4242C26.6453 20.378 26.6756 20.3253 26.7141 20.2993C26.9195 20.1605 27.1397 20.0418 27.3352 19.8908C27.4824 19.7775 27.593 19.6184 27.7324 19.4936C27.9715 19.2789 28.2772 19.2035 28.5781 19.1252C28.7756 19.0739 28.818 19.0159 28.7574 18.8199C28.728 18.7246 28.6872 18.6315 28.64 18.5436C28.5793 18.4305 28.6097 18.3522 28.7142 18.293C28.7558 18.2696 28.7999 18.2503 28.843 18.2296C28.9795 18.1648 29.0763 18.0759 29.1111 17.9154C29.1461 17.7545 29.2112 17.5996 29.2679 17.4438C29.3444 17.2337 29.407 17.0084 29.6876 16.9803C29.696 16.9793 29.7045 16.9768 29.7129 16.975C29.7129 16.9137 29.7129 16.8526 29.7129 16.7912C29.648 16.6902 29.5899 16.5841 29.5166 16.4896C29.4468 16.3987 29.3557 16.3209 29.2811 16.2301Z" fill="url(#paint0_linear)"/>
<defs>
<linearGradient id="paint0_linear" x1="15.116" y1="0.918945" x2="22.2621" y2="31.7618" gradientUnits="userSpaceOnUse">
<stop stop-color="#4BB16B"/>
<stop offset="1" stop-color="#005085"/>
</linearGradient>
</defs>
</svg>
