<svg width="31" height="36" viewBox="0 0 31 36" fill="none" xmlns="http://www.w3.org/2000/svg">
<path d="M1.02954 14.7012C1.41057 13.7903 1.74568 12.8632 2.16198 11.9633C2.52253 11.1839 3.12753 10.7197 3.80991 10.3231C4.19982 10.0967 4.63629 9.95006 5.05199 9.79016C5.17896 9.74135 5.2602 9.59125 5.23362 9.45852C5.16561 9.1193 5.08992 8.7608 5.04111 8.3988C5.01158 8.17855 5.06679 7.94826 5.06951 7.72236C5.07319 7.41572 5.07023 7.10897 5.05766 6.80264C5.03574 6.27191 5.17352 5.77129 5.30163 5.26292C5.38372 4.93693 5.3238 4.57295 5.41997 4.2537C5.51975 3.92182 5.40052 3.51961 5.71963 3.25499C5.72676 3.2491 5.73074 3.23437 5.72971 3.22434C5.67873 2.70881 6.06097 2.34826 6.23547 1.91906C6.41264 1.48348 6.70372 1.06805 7.19462 0.86006C7.36864 0.786422 7.52781 0.67834 7.70696 0.561061C7.82058 0.486522 7.949 0.533049 7.99358 0.661088C8.14736 1.10375 8.3026 1.50476 8.39357 1.91954C8.48345 2.33113 8.70229 2.70388 8.63506 3.17576C8.58674 3.51348 8.79724 3.88335 8.86943 4.2436C8.90766 4.43415 8.9276 4.62814 8.94807 4.82362C8.96209 4.95827 9.0481 4.98502 9.13291 4.87881C9.33622 4.62375 9.51514 4.36743 9.75989 4.21733C10.1813 3.95909 10.4945 3.57479 10.9073 3.33097C11.5521 2.95034 12.2071 2.5545 12.909 2.31171C13.6048 2.07084 14.3603 1.98332 15.0974 1.8881C15.2914 1.86309 15.4986 1.93889 15.732 2.01127C15.8619 2.05149 15.9178 2.17435 15.855 2.29452C15.6379 2.70977 15.4433 3.0975 15.2234 3.4705C14.8593 4.08833 14.4813 4.69877 14.087 5.29791C13.8635 5.6376 13.5922 5.94586 13.3482 6.27257C13.0973 6.60884 12.8657 6.96007 12.6027 7.28648C12.4205 7.51238 12.1953 7.70342 11.9976 7.91748C11.7798 8.15348 11.5567 8.38648 11.3618 8.64051C10.8278 9.33655 10.6203 10.1543 10.5091 11.0041C10.505 11.0364 10.5 11.0712 10.4852 11.0997C10.2052 11.6344 10.4995 11.9763 10.8795 12.298C10.933 12.3434 10.9374 12.445 10.9672 12.5196C11.0182 12.6466 11.0465 12.792 11.1279 12.8958C11.38 13.2163 11.4271 13.5867 11.4584 13.9725C11.4778 14.2116 11.5491 14.4458 11.5833 14.6844C11.5887 14.7227 11.5858 14.7622 11.5801 14.7987C11.5705 14.8613 11.6123 15.0077 11.6688 15.131C11.8786 15.5899 12.0251 16.0944 12.4579 16.4037C12.5686 16.4826 12.5999 16.5192 12.5129 16.5089C12.4259 16.4986 12.3534 16.4981 12.3507 16.5076C12.3479 16.5172 12.4495 16.5633 12.5769 16.6107C12.5961 16.6178 12.6156 16.6249 12.6351 16.6322C12.7627 16.6796 12.8071 16.7337 12.7344 16.7534C12.6617 16.773 12.7066 16.8255 12.835 16.8709C12.9491 16.9111 13.059 16.9498 13.1714 16.9896C13.2998 17.0347 13.3547 17.0958 13.2943 17.1257C13.2339 17.1557 13.2795 17.2035 13.3959 17.2327C13.5122 17.2618 13.5935 17.3153 13.5773 17.3516C13.561 17.3879 13.6562 17.4384 13.7892 17.4664C14.0288 17.5167 14.2688 17.5687 14.5118 17.5907C14.5904 17.5978 14.6749 17.5856 14.7583 17.562C14.8891 17.525 15.0968 17.4644 15.2329 17.4673C16.0284 17.4843 17.3876 17.7313 17.9377 17.8369C18.0712 17.8627 18.2891 17.8958 18.4246 17.9098C18.609 17.9286 18.8057 17.9488 19.0085 17.9696C19.1438 17.9836 19.2362 18.0111 19.2145 18.0311C19.1931 18.0513 19.2803 18.1023 19.4095 18.1452C20.0035 18.3428 20.6085 18.5439 21.216 18.746C21.3451 18.789 21.4151 18.8429 21.372 18.8665C21.3288 18.89 21.3961 18.9508 21.5243 18.997C21.867 19.1201 22.2101 19.2209 22.4787 19.421C22.7695 19.6378 23.0927 19.8105 23.3795 20.0393C23.7026 20.2968 24.1524 20.3966 24.5472 20.5651C24.5847 20.5811 24.6221 20.597 24.6714 20.6184C24.7402 20.6478 24.7412 20.6961 24.6734 20.7263C24.6056 20.7564 24.6394 20.8464 24.7486 20.9274C24.9859 21.103 25.2205 21.2769 25.4576 21.4525C25.5668 21.5335 25.6227 21.6175 25.5826 21.6406C25.5424 21.6637 25.6065 21.735 25.7258 21.8002C25.8061 21.8441 25.8853 21.8873 25.9638 21.9305C26.0831 21.9957 26.1743 22.0595 26.1677 22.073C26.1608 22.0865 26.0817 22.0843 25.9905 22.0678C25.8996 22.0514 25.9054 22.1141 26.0038 22.2076C26.4375 22.6196 26.857 23.0186 27.2779 23.4162C27.3213 23.4572 27.3674 23.4952 27.4251 23.5425C27.5081 23.6105 27.486 23.6416 27.3763 23.6114C27.2666 23.5815 27.239 23.6487 27.3132 23.7623C27.5229 24.0821 27.7265 24.3982 27.9446 24.7041C28.0846 24.9 28.263 25.069 28.4217 25.2519C28.4267 25.2579 28.4257 25.2689 28.4235 25.2811C28.4208 25.2975 28.3754 25.3027 28.3219 25.2929C28.2685 25.2831 28.2902 25.3637 28.3703 25.4734C28.5031 25.6546 28.6327 25.832 28.7737 26.0245C28.8538 26.1338 28.8309 26.1759 28.7227 26.118C28.6145 26.0601 28.5706 26.1142 28.6285 26.2369C28.8422 26.689 29.065 27.0816 29.099 27.5552C29.1158 27.7884 29.239 28.0139 29.359 28.266C29.4172 28.3884 29.4105 28.456 29.3514 28.4138C29.2923 28.3716 29.2627 28.4459 29.2859 28.5794C29.3953 29.208 29.502 29.8219 29.6077 30.4289C29.6309 30.5624 29.6141 30.6557 29.57 30.6374C29.5259 30.6191 29.5209 30.7095 29.5589 30.8397C29.589 30.9425 29.618 31.0418 29.6469 31.1412C29.6848 31.2712 29.6759 31.3663 29.6274 31.3536C29.5786 31.3408 29.5794 31.4338 29.603 31.5672C29.6646 31.9157 29.6245 32.2848 29.881 32.5713C29.9715 32.6723 30.0161 32.7292 29.951 32.7292C29.886 32.7292 29.898 32.8182 29.9777 32.9283C29.9993 32.9583 30.0208 32.9881 30.043 33.0186C30.1226 33.1284 30.1435 33.203 30.09 33.1847C30.0365 33.1663 29.9887 33.1582 29.9833 33.1663C29.9795 33.1716 29.9766 33.1768 29.9764 33.1819C29.9746 33.2143 29.9729 33.2472 29.9766 33.279C30.0451 33.8664 29.8544 34.3219 29.2923 34.5748C28.8846 34.7582 28.5904 35.1708 28.058 35.1204C27.8912 35.1048 27.7064 35.2833 27.5287 35.3704C27.5218 35.3738 27.5114 35.3706 27.5003 35.3662C27.485 35.3603 27.4843 35.3284 27.4986 35.2948C27.5129 35.2612 27.4165 35.2563 27.2832 35.2843C27.1876 35.3044 27.0917 35.3245 26.9949 35.3448C26.8615 35.3728 26.7711 35.3586 26.7923 35.3132C26.8135 35.2681 26.7282 35.2728 26.599 35.3152C25.4841 35.6814 24.3478 35.5293 23.2208 35.5504C23.0848 35.5528 22.9893 35.5366 23.0073 35.5106C23.0256 35.4844 22.9297 35.4633 22.7934 35.4636C22.4058 35.4644 22.0149 35.4658 21.6243 35.4616C21.4426 35.4597 21.26 35.4486 21.0802 35.4244C20.6799 35.3706 20.2802 35.3132 19.8824 35.2446C19.4462 35.1693 19.0055 35.341 18.5558 35.0795C18.2927 34.9265 18.0533 34.8104 17.9606 34.6087C17.9042 34.4855 17.8148 34.3428 17.6822 34.3116C17.4357 34.2535 17.2028 34.2006 16.9751 34.1309C16.656 34.0333 16.3802 33.918 16.3126 33.4984C16.2648 33.2004 16.2887 32.927 16.5603 32.7683C16.5869 32.7529 16.6015 32.7173 16.6116 32.68C16.6264 32.6243 16.7451 32.5689 16.8807 32.5576C16.9108 32.5552 16.9416 32.5525 16.9732 32.5497C17.1087 32.5384 17.1619 32.4352 17.0917 32.319C17.051 32.2518 17.013 32.189 16.9766 32.1284C16.9063 32.0124 16.8331 31.927 16.813 31.9376C16.7928 31.9481 16.7706 32.0372 16.7637 32.1365C16.7568 32.2359 16.7021 32.2184 16.6419 32.0968C16.6124 32.0372 16.584 31.9801 16.5566 31.9244C16.4964 31.803 16.4329 31.7096 16.4149 31.7159C16.3969 31.7222 16.3743 31.8064 16.3646 31.9032C16.355 32.0001 16.3062 31.9769 16.2554 31.851C16.2391 31.8105 16.2228 31.7703 16.2063 31.7292C16.1558 31.6033 16.1075 31.5923 16.0984 31.7041C16.0893 31.816 16.0555 31.7993 15.9993 31.6757C15.8872 31.4291 15.7117 31.2436 15.4362 31.127C15.0554 30.9661 14.6889 30.7714 14.3082 30.6098C14.2441 30.5826 14.1066 30.6218 14.0603 30.6775C13.8742 30.9002 13.716 31.1457 13.5368 31.3748C13.3488 31.6154 13.1536 31.8508 12.9525 32.0806C12.6965 32.373 12.4312 32.6572 12.1705 32.9456C12.1557 32.9621 12.1427 32.9797 12.1291 32.9987C12.1077 33.0291 12.0707 33.0227 12.0468 32.9849C12.023 32.9472 11.9588 33.0168 11.9034 33.1407C11.8839 33.1841 11.8642 33.2282 11.844 33.2739C11.7888 33.3977 11.7336 33.4301 11.7211 33.3462C11.7085 33.2623 11.6358 33.2846 11.5589 33.3962C11.3538 33.6939 11.1552 33.9824 10.9614 34.2634C10.8846 34.3753 10.8222 34.3959 10.8222 34.3098C10.8222 34.2237 10.7604 34.245 10.6842 34.3571C10.5703 34.5246 10.4621 34.6836 10.3465 34.8535C10.2701 34.9656 10.2201 34.9705 10.2342 34.8643C10.2484 34.7581 10.2426 34.6596 10.2214 34.6444C10.2002 34.6289 10.1178 34.7052 10.0377 34.8145C9.99214 34.8766 9.94684 34.9386 9.90148 35.0007C9.82138 35.1101 9.72969 35.1717 9.70257 35.1339C9.67448 35.095 9.67176 35.0763 9.67056 35.0576C9.66983 35.0473 9.67895 35.0363 9.67799 35.026C9.67768 35.0221 9.67255 35.0189 9.66343 35.0127C9.65437 35.0066 9.55772 35.0654 9.44731 35.1447C9.37192 35.1986 9.29545 35.2538 9.21668 35.3102C9.10627 35.3894 9.02194 35.4041 9.02841 35.3433C9.03475 35.2825 8.93792 35.2751 8.81325 35.3294C8.70561 35.3762 8.60311 35.4177 8.49662 35.4344C8.22377 35.4775 7.92924 35.4255 7.66879 35.4998C7.14756 35.6482 6.71133 35.4201 6.36431 35.1452C6.14668 34.9728 5.9427 34.9262 5.70586 34.9049C5.57031 34.8926 5.37986 34.8129 5.28098 34.7197C5.14543 34.5916 5.00644 34.4602 4.87506 34.3363C4.77649 34.2432 4.74345 34.0683 4.80457 33.9471C4.95709 33.6445 5.12423 33.381 5.45077 33.2846C5.58112 33.2461 5.64273 33.2042 5.58015 33.152C5.51758 33.0997 5.57719 33.0573 5.71322 33.0573C5.75122 33.0573 5.78788 33.0573 5.82364 33.0573C5.95967 33.0573 6.07009 33.0504 6.07033 33.0418C6.07057 33.0332 6.01711 33.0121 5.95061 32.9945C5.88404 32.9768 5.93013 32.9163 6.0536 32.8591C6.09056 32.8422 6.12681 32.8253 6.16305 32.8086C6.28651 32.7517 6.33852 32.6938 6.27914 32.6798C6.21977 32.6656 6.26875 32.6018 6.38859 32.5373C6.61456 32.4152 6.84132 32.292 7.07073 32.1733C7.11905 32.1483 7.17106 32.1304 7.23243 32.1108C7.32388 32.0817 7.33983 32.0402 7.26867 32.0193C7.19746 31.9987 7.20314 31.9519 7.281 31.9149C7.35886 31.8779 7.34756 31.8362 7.25538 31.8219C7.16321 31.8077 7.19057 31.7542 7.31621 31.7025C7.42198 31.6591 7.52696 31.616 7.62723 31.5747C7.75293 31.523 7.8111 31.4224 7.75293 31.3538C7.70068 31.292 7.66244 31.2451 7.67332 31.2171C7.70237 31.1423 7.74435 31.0727 7.79134 31.0013C7.8663 30.8882 7.88974 30.7992 7.84214 30.8012C7.79461 30.8031 7.77341 30.7473 7.79436 30.6763C7.80717 30.6334 7.81895 30.5905 7.82789 30.5471C7.88207 30.283 7.87959 29.9921 7.99496 29.7586C8.15268 29.4391 8.12193 29.1916 7.94471 28.9699C7.85996 28.8639 7.7522 28.8252 7.72883 28.8612C7.70515 28.8973 7.64408 28.845 7.59256 28.7445C7.54085 28.644 7.48631 28.593 7.47078 28.6305C7.45526 28.668 7.37142 28.6143 7.28371 28.5108C7.21075 28.4247 7.13639 28.3369 7.06071 28.2476C6.973 28.1441 6.88644 28.1017 6.86802 28.153C6.84923 28.2043 6.79505 28.1429 6.73344 28.022C6.42514 27.4152 5.90416 26.9336 5.78359 26.2414C5.78311 26.2385 5.77719 26.2363 5.77055 26.2344C5.76239 26.2319 5.72621 26.2571 5.68991 26.291C5.65367 26.3248 5.59332 26.2469 5.55515 26.1168C5.34223 25.3885 5.13619 24.683 4.92599 23.964C4.88799 23.834 4.78748 23.643 4.70763 23.5333C4.31283 22.9936 4.21177 22.6279 4.19818 22.4123C4.18955 22.2772 4.31821 22.1025 4.39069 21.9878C4.53336 21.7616 4.5028 21.5203 4.52134 21.2841C4.54647 20.9673 4.51119 20.6457 4.48462 20.3306C4.47326 20.1957 4.45236 20.0927 4.42349 20.1057C4.39486 20.1187 4.39588 20.0206 4.39341 19.8852C4.38332 19.3047 3.86753 19.1578 3.42858 18.9753C3.30288 18.9231 3.10748 18.8428 2.98764 18.8051C2.91201 18.7813 2.8405 18.7526 2.78505 18.7055C2.62854 18.5729 2.51395 18.3904 2.38535 18.2258C2.26781 18.0755 2.12604 17.9643 1.96984 17.8493C1.70292 17.6531 1.51089 17.3586 1.27284 17.1202C1.07526 16.9225 0.870678 16.7258 0.64344 16.5647C0.354107 16.3599 0.292255 15.9709 0.496298 15.6604C0.696053 15.3546 0.889284 15.0369 1.02954 14.7012Z" fill="url(#paint0_linear)"/>
<defs>
<linearGradient id="paint0_linear" x1="15.2481" y1="0.52539" x2="7.144" y2="33.5772" gradientUnits="userSpaceOnUse">
<stop stop-color="#4BB16B"/>
<stop offset="1" stop-color="#005085"/>
</linearGradient>
</defs>
</svg>
