<svg width="46" height="36" viewBox="0 0 46 36" fill="none" xmlns="http://www.w3.org/2000/svg">
<path d="M43.466 5.85715C43.2897 5.63658 43.1504 5.38416 43.014 5.13521C42.8818 4.89401 42.7999 4.62413 42.6531 4.39359C42.3929 3.98446 42.099 3.59681 41.8227 3.19803C41.706 3.02969 41.5903 2.86073 41.4734 2.68923C41.2816 2.40741 41.2936 2.09793 41.4877 2.1659C41.6821 2.23394 41.7796 2.19719 41.6905 2.08947C41.6345 2.02151 41.5723 1.9631 41.4991 1.92667C41.3472 1.85057 41.1582 1.83832 40.9833 1.81967C40.552 1.77383 40.5118 1.74712 40.425 1.32312C40.3926 1.16506 40.3713 1.00423 40.3593 0.843644C40.3535 0.76493 40.3531 0.685979 40.3541 0.599916C40.3558 0.46509 40.0784 0.510928 39.7751 0.756C39.5894 0.906236 39.4304 1.07165 39.306 1.27799C39.167 1.50821 39.0073 1.7272 38.8423 1.93963C38.8028 1.99029 38.6936 2.03478 38.6366 2.017C38.1649 1.87096 37.6905 1.90028 37.212 1.96026C36.783 2.01408 36.3534 2.08442 35.9228 2.09603C35.3733 2.11089 35.0454 1.85807 34.8481 1.3473C34.8355 1.31506 34.8215 1.28345 34.8014 1.23864C34.7745 1.17897 34.6682 1.45565 34.8198 1.80615C34.9714 2.15665 34.8312 2.41302 34.4699 2.23109C34.1087 2.04917 33.9318 1.8738 33.983 1.98958C34.0144 2.06047 34.0507 2.12725 34.0938 2.18953C34.1391 2.25536 34.191 2.31684 34.2458 2.37849C34.3345 2.47878 33.7286 2.66133 33.1847 2.18629C32.6407 1.71132 32.5402 1.27025 32.5302 1.59751C32.524 1.79422 32.5643 1.98444 32.6477 2.17404C32.8973 2.73957 33.3768 3.03365 33.9405 3.21233C34.0552 3.24876 34.1729 3.27682 34.2992 3.30456C34.4992 3.34874 34.4159 3.58733 34.0497 3.69442C33.6836 3.80142 33.5372 3.91815 33.7347 4.00074C33.9327 4.08324 33.8634 4.36767 33.5796 4.63495C33.4059 4.79839 33.2332 4.95605 33.0508 5.10218C32.6915 5.39016 32.3264 5.66906 31.9252 5.87865C31.2542 6.22915 30.7721 6.33876 30.9755 6.45035C31.0984 6.51776 31.2234 6.58091 31.3508 6.639C31.6547 6.77698 31.7039 6.92374 31.4917 7.19584C31.2212 7.54215 30.843 7.67753 30.415 7.69531C30.3609 7.69752 30.3065 7.69792 30.252 7.69721C30.162 7.69658 30.0868 7.71428 30.0845 7.7372C30.082 7.76011 30.3434 7.8333 30.6674 7.90031C30.9914 7.96733 31.1829 8.46751 30.8625 8.88859C30.542 9.30934 30.266 9.49506 30.4911 9.58832C30.7163 9.68149 30.7329 9.8179 30.5281 9.89298C30.3233 9.96845 30.2585 10.09 30.3836 10.1645C30.5087 10.2393 30.3584 10.5192 29.999 10.7139C29.7809 10.8319 29.5548 10.9291 29.3231 11.0148C27.8917 11.5446 26.3938 11.7752 24.8872 11.9383C23.0893 12.133 21.287 12.2897 19.4858 12.4542C18.0624 12.5841 16.7282 12.9717 15.6071 13.8807C14.9983 14.374 14.4183 14.9176 13.9048 15.5071C13.503 15.9679 13.0847 16.1407 12.4753 16.1323C11.5827 16.1201 10.68 16.1703 9.79738 16.3006C8.37788 16.5098 7.19598 17.1809 6.38407 18.39C5.8825 19.1368 5.41134 19.9058 4.95782 20.6826C4.57775 21.3336 4.26121 22.0213 3.88217 22.6728C3.47391 23.3741 2.86609 23.7555 2.01915 23.6714C2.00621 23.67 1.99263 23.6739 1.96602 23.6807C1.9372 23.6881 2.18473 23.8297 2.54828 23.8732C2.76857 23.8997 2.98759 23.8923 3.20923 23.8671C3.4292 23.8423 3.64242 23.8001 3.84231 23.7217C4.17735 23.5901 4.46927 23.5231 4.43814 23.7188C4.419 23.8385 4.36071 23.9448 4.27844 24.0348C4.02019 24.3166 3.75289 24.6084 3.43603 24.8145C3.21638 24.9573 2.98433 25.0821 2.75237 25.1998C2.36547 25.3957 2.50968 25.609 3.06406 25.5142C3.61844 25.4191 3.8728 25.8254 3.37608 26.3235C3.07995 26.6205 2.72997 26.8678 2.3746 27.1077C2.01558 27.3498 1.63908 27.5507 1.24289 27.7007C0.581305 27.9509 0.728377 28.1198 1.61256 27.9834C2.14851 27.9009 2.66009 27.7361 3.15126 27.4962C3.95444 27.1041 4.6439 27.0361 4.39931 27.4452C4.1544 27.8544 4.47483 27.9582 5.22647 27.591C5.97819 27.2235 6.58856 26.9448 6.45737 27.2322C6.32618 27.5194 6.82997 27.5078 7.48965 26.9662C8.14933 26.4245 8.63923 26.2712 8.42275 26.7023C8.20627 27.1335 8.00059 27.4143 8.0615 27.3869C8.10391 27.3679 8.13798 27.3521 8.16974 27.333C8.9379 26.8719 9.48029 26.2164 9.82248 25.3974C10.2731 24.3175 10.2015 23.229 9.82669 22.1501C9.57201 21.4166 9.25094 20.7049 9.0193 19.965C8.64828 18.7825 9.18456 17.7594 10.3526 17.3222C11.1752 17.0143 11.9036 17.3041 12.2917 18.0874C12.364 18.2334 12.3714 18.3614 12.3225 18.5239C12.0121 19.5583 11.9418 20.5788 12.548 21.55C12.6452 21.7058 12.7148 21.8792 12.7891 22.0482C13.1704 22.9126 13.1322 23.7088 12.3964 24.3888C12.3397 24.4411 12.295 24.5052 12.2399 24.5591C11.5744 25.2129 10.9108 25.8687 10.2401 26.5175C9.9547 26.7936 9.90737 27.086 10.0545 27.458C10.2687 28.0007 10.4745 28.5518 10.617 29.116C11.0097 30.6686 11.0712 32.2183 10.4394 33.7367C10.4329 33.7521 10.4313 33.7695 10.4291 33.7947C10.4262 33.8272 10.5493 33.7492 10.7048 33.6206C10.8603 33.4919 10.9993 33.3951 11.0149 33.4046C11.0304 33.4139 11.0061 33.5648 10.9604 33.7412C10.9328 33.8479 10.9041 33.954 10.8716 34.0591C10.7854 34.338 10.6892 34.6134 10.5942 34.8897C10.5197 35.107 10.601 35.2034 10.8224 35.2563C11.852 35.5023 12.893 35.623 13.95 35.5362C14.2393 35.5124 14.5293 35.4391 14.8072 35.3518C15.1322 35.2492 15.1491 35.1774 14.9278 34.9281C14.7441 34.7211 14.5464 34.5235 14.3352 34.3448C14.1058 34.151 13.8732 33.9608 13.6395 33.7715C13.2526 33.4581 12.9857 33.1872 13.044 33.1657C13.1023 33.1441 12.9656 33.0257 12.7384 32.9012C12.5113 32.7768 12.4957 32.5816 12.5058 32.3905C12.5116 32.2815 12.4566 32.175 12.4015 32.0638C12.2664 31.7894 12.1128 31.5121 12.0471 31.2184C11.923 30.6648 11.8958 30.0882 11.7555 29.5394C11.5788 28.8484 11.8893 28.3864 12.3627 27.9663C12.3798 27.9508 12.3966 27.935 12.4139 27.9195C13.4867 26.9663 14.5876 26.0425 15.6248 25.0524C15.9335 24.7577 16.2387 24.4594 16.5421 24.1592C17.0446 23.6617 17.5588 23.3553 17.7195 23.4504C17.8799 23.5455 18.1552 23.7326 18.2586 23.9373C18.3202 24.0595 18.3665 24.1901 18.4002 24.3269C18.4715 24.6164 18.5227 24.9152 18.5399 25.2126C18.5937 26.1457 18.3173 26.9863 17.7885 27.7541C17.6913 27.8949 17.5705 28.0758 17.5854 28.2261C17.6058 28.4319 17.6441 28.636 17.6888 28.8456C17.7614 29.1851 17.9428 29.3057 18.1482 29.2992C18.2668 29.2953 18.3773 29.3511 18.4874 29.4324C18.6676 29.5653 18.8549 29.6881 19.032 29.8242C19.4818 30.1688 19.8213 30.5806 19.8595 31.1781C19.8679 31.3071 19.9081 31.4348 19.9389 31.5618C20.0592 32.0565 20.1962 32.5456 20.4991 32.9676C20.5711 33.068 20.6498 33.1611 20.7522 33.2388C20.9161 33.3633 21.0571 33.3056 21.0208 33.1876C20.9971 33.1105 20.9784 33.0406 20.9725 32.9697C20.9647 32.8761 20.9904 32.7184 21.046 32.6949C21.1384 32.6555 21.2851 32.6694 21.3762 32.7197C21.4686 32.7707 21.5295 32.888 21.59 32.9848C21.8752 33.4404 21.844 33.9585 21.8719 34.4632C21.8914 34.8123 21.883 34.8401 22.2258 34.8449C23.0746 34.8565 23.9258 34.8733 24.7724 34.823C25.2192 34.7966 25.6667 34.6601 26.0976 34.5235C26.4015 34.4271 26.4284 34.2975 26.1906 34.0817C25.8442 33.7679 25.4719 33.4762 25.0825 33.217C24.8858 33.0861 24.6807 32.9681 24.4715 32.8529C24.1274 32.6634 23.8746 32.4412 23.9077 32.3544C23.9407 32.2676 23.3491 32.1781 22.773 31.7769C22.5397 31.6144 22.3479 31.36 21.93 30.8332C21.6549 30.4861 21.3633 30.1702 20.9352 29.9939C20.6537 29.8777 20.4133 29.6778 20.3154 29.3718C20.1304 28.7931 20.0102 28.2091 20.2656 27.6149C20.3505 27.4173 20.4143 27.2106 20.4975 27.0122C21.139 25.4794 21.7831 23.9474 22.4253 22.4149C22.4403 22.3791 22.4526 22.3419 22.4655 22.302C22.4856 22.2391 22.4979 22.1872 22.4928 22.1862C22.4879 22.1852 22.5401 22.0989 22.6094 21.9934C22.6788 21.888 23.1305 21.8583 23.6199 21.9127C23.9148 21.9457 24.2106 21.9743 24.5074 21.9967C26.0873 22.1153 27.6628 22.3004 29.2444 22.3816C30.633 22.4528 32.0272 22.4235 33.4188 22.4326C34.2825 22.438 35.1253 22.5358 35.9434 22.8415C36.7168 23.1307 37.5087 23.3709 38.2869 23.6482C38.6058 23.7618 38.9122 23.911 39.2197 24.0542C39.3736 24.1258 39.4633 24.2541 39.4132 24.4302C39.2661 24.9457 39.1265 25.4649 38.9498 25.9705C38.8899 26.1417 38.76 26.3448 38.6068 26.418C37.997 26.7086 37.3639 26.8534 36.7282 26.4628C36.6919 26.4406 36.6534 26.4212 36.6145 26.4028C36.5502 26.3725 36.4861 26.3586 36.4723 26.3718C36.4583 26.385 36.5299 26.5653 36.6323 26.7746C36.7347 26.9839 36.7727 27.1425 36.7166 27.129C36.6754 27.1189 36.6454 27.1118 36.6152 27.1038C36.1448 26.9752 35.9083 27.0355 35.6795 27.4581C35.4022 27.9701 35.1698 28.5076 34.9444 29.0452C34.8663 29.2312 34.8462 29.4495 34.8371 29.6546C34.8244 29.9432 34.9089 30.0145 35.1801 29.9294C35.8644 29.7146 36.5568 29.5144 37.2187 29.2423C37.5246 29.1165 37.8266 28.9875 38.1337 28.8957C38.6517 28.7409 39.1512 28.6074 39.2149 28.402C39.2541 28.2759 39.2933 28.1533 39.3367 28.0324C39.4537 27.7087 39.6169 27.3982 39.7016 27.067C39.7907 26.7188 39.8953 26.3809 40.0314 26.0587C40.2598 25.5183 40.6175 25.1984 40.6953 25.2739C40.7422 25.3193 40.7889 25.3651 40.8356 25.4106C40.8434 25.418 40.8514 25.4244 40.8599 25.4309C40.8739 25.4412 40.9295 25.5013 40.9775 25.5698C41.0073 25.6124 41.0325 25.656 41.0513 25.7018C41.2931 26.297 41.3413 26.9235 41.3063 27.5594C41.2956 27.7522 41.1907 27.8224 41.0164 27.787C40.9059 27.7644 40.7967 27.7377 40.6859 27.709C40.5045 27.6622 40.3162 27.8128 40.3807 28.0318C40.4192 28.163 40.4801 28.2888 40.534 28.4149C40.7215 28.8528 40.7413 29.2848 40.6662 29.7633C40.5155 30.7226 40.6713 31.6589 41.2066 32.4863C41.5127 32.9593 41.611 32.9035 41.8676 32.4841C42.1667 31.9952 42.3847 31.4561 42.627 30.9341C42.6734 30.8344 42.7119 30.7316 42.7485 30.6278C42.8094 30.4559 42.9497 30.3405 43.0631 30.3704C43.1765 30.4005 43.2222 30.1774 43.1644 29.8719C43.1289 29.6824 43.0938 29.5005 43.0566 29.3193C43.0155 29.1188 43.0051 29.0126 43.0676 28.9594C43.2257 28.8246 43.393 28.5519 43.2579 28.1288C43.1779 27.8782 43.059 27.6461 42.8451 27.449C42.7571 27.3679 42.6847 27.2582 42.6352 27.1482C42.5048 26.8593 42.3779 26.5691 42.2719 26.2746C42.0948 25.7832 42.2217 25.1533 42.2243 24.8391C42.2269 24.5251 42.0473 24.2688 42.0458 24.2114C42.0448 24.1724 42.0373 24.1363 42.0188 24.1124C42.0017 24.0902 41.9836 24.0688 41.9651 24.0473C41.9349 24.0119 41.8853 23.9119 41.8342 23.8358C41.8037 23.7906 41.7674 23.7484 41.7253 23.7107C41.6641 23.6558 41.6029 23.601 41.5416 23.5462C41.4403 23.4553 41.3586 23.3563 41.3589 23.3247C41.3592 23.3056 41.3592 23.2867 41.3586 23.2672C41.3553 23.1837 41.3259 23.065 41.2666 23.0263C40.8735 22.7687 40.4928 22.4695 40.0626 22.2951C39.2896 21.9813 38.6389 21.4961 37.9922 20.9979C37.6737 20.7525 37.6669 20.718 37.8316 20.3569C38.2307 19.4818 38.6364 18.6096 39.0578 17.7451C39.1832 17.4874 39.2286 17.2369 39.1603 16.9667C39.0154 16.3931 38.8379 15.8262 38.7222 15.2468C38.6512 14.8908 38.5819 14.4961 38.6642 14.1553C38.9448 12.9932 39.0349 11.817 39.0566 10.6307C39.0676 10.0229 39.0608 9.41477 39.0663 8.80695C39.0695 8.4242 39.3054 8.23303 39.6475 8.3368C39.7492 8.36778 39.8447 8.42254 39.9374 8.47644C40.2371 8.65118 40.532 8.83437 40.8326 9.00753C41.7149 9.51569 42.5975 10.0235 43.4849 10.5227C43.5928 10.5833 43.7548 10.6495 43.8506 10.611C44.1746 10.4821 44.467 10.5421 44.7692 10.6627C44.8593 10.6985 44.9662 10.6991 45.066 10.7017C45.3981 10.7098 45.4269 10.6836 45.4075 10.3554C45.3971 10.1761 45.4574 10.0778 45.6327 10.0058C45.7315 9.96521 45.8255 9.84042 45.8591 9.73405C45.899 9.60768 45.8566 9.45768 45.8767 9.32199C45.9382 8.90376 45.7954 8.61901 45.4888 8.29467C44.7659 7.5265 44.126 6.68135 43.466 5.85715Z" fill="url(#paint0_linear)"/>
<defs>
<linearGradient id="paint0_linear" x1="23.3613" y1="0.52539" x2="28.8876" y2="34.6698" gradientUnits="userSpaceOnUse">
<stop stop-color="#4BB16B"/>
<stop offset="1" stop-color="#005085"/>
</linearGradient>
</defs>
</svg>
