<svg width="45" height="36" viewBox="0 0 45 36" fill="none" xmlns="http://www.w3.org/2000/svg">
<path d="M2.10034 25.1396C2.48536 24.69 2.88692 24.2518 3.24224 23.7795C3.69905 23.1729 4.05001 22.5039 4.32537 21.7926C4.59544 21.0944 4.91082 20.4133 5.19467 19.72C5.31765 19.4199 5.41477 19.1088 5.51663 18.8003C5.58191 18.6023 5.71522 18.4758 5.93877 18.3705C5.93877 18.4889 5.93968 18.584 5.93877 18.679C5.92315 20.1345 5.90127 21.5901 5.89415 23.0456C5.89071 23.7487 6.09206 24.4224 6.24351 25.102C6.29379 25.3279 6.36152 25.5497 6.42152 25.7731C6.53172 26.1851 6.46368 26.5823 6.34499 26.9838C6.17042 27.5748 6.01897 28.1723 5.85757 28.7671C5.74981 29.1645 5.62339 29.5582 5.53852 29.9606C5.34337 30.8856 5.38867 31.8166 5.51915 32.7453C5.58811 33.2351 5.65936 33.7205 5.50699 34.2111C5.44768 34.4025 5.4052 34.6104 5.41293 34.8084C5.42732 35.1717 5.67214 35.4066 6.03397 35.4442C6.37996 35.4802 6.72687 35.5138 7.07408 35.5296C7.52867 35.5504 7.98517 35.5769 8.43915 35.5576C8.98557 35.5342 9.52954 35.4618 10.075 35.419C10.227 35.4069 10.2523 35.3236 10.2354 35.2037C10.2114 35.0331 10.1812 34.8634 10.1511 34.6819C10.1761 34.6695 10.2033 34.653 10.2326 34.6421C10.4784 34.5517 10.583 34.3191 10.4405 34.0978C10.3026 33.8834 10.1296 33.6885 9.95719 33.4987C9.79954 33.325 9.59941 33.1862 9.45852 33.0012C9.24684 32.7225 9.05827 32.4242 8.8834 32.1207C8.73134 31.8565 8.766 31.5588 8.84559 31.2839C8.97546 30.8382 9.09539 30.3808 9.30079 29.9685C9.515 29.5385 9.7879 29.124 10.1033 28.7611C10.5014 28.3027 10.9701 27.905 11.4054 27.478C11.8475 27.0448 12.1495 26.533 12.2902 25.9271C12.3455 25.6891 12.4176 25.4545 12.4966 25.223C12.511 25.1813 12.5972 25.1357 12.6471 25.1391C13.2201 25.1757 13.7918 25.2366 14.3651 25.2593C14.7375 25.2743 15.1126 25.2366 15.4863 25.2229C15.58 25.2195 15.6743 25.2202 15.7679 25.2168C16.5173 25.1906 17.2695 25.1953 18.0148 25.1266C18.5103 25.0809 18.9737 24.8696 19.4183 24.6369C19.7362 24.4702 20.0612 24.3175 20.3916 24.1542C20.6076 24.3724 20.7241 24.6427 20.7946 24.9358C21.0129 25.8438 21.0791 26.7707 21.135 27.6985C21.1647 28.1892 21.2159 28.6799 21.2149 29.1705C21.2139 29.7146 21.1559 30.258 21.1396 30.8025C21.1309 31.0946 21.1852 31.3898 21.1637 31.6799C21.1271 32.1684 21.0644 32.6559 20.9882 33.1405C20.9632 33.2989 20.8645 33.4466 20.7962 33.5975C20.6103 34.0064 20.6525 34.367 20.9335 34.6295C20.99 34.6823 21.0831 34.7277 21.1577 34.7249C21.9586 34.6945 22.7588 34.6481 23.5597 34.6177C24.0744 34.5981 24.5899 34.5954 25.1049 34.5929C25.1734 34.5925 25.2602 34.6193 25.3074 34.6653C25.49 34.8417 25.7211 34.842 25.9444 34.8452C26.5822 34.8542 27.2201 34.8486 27.8584 34.8479C28.1245 34.8476 28.3917 34.8613 28.6558 34.8399C28.8301 34.8259 29.0008 34.7641 29.1713 34.7175C29.2675 34.691 29.3575 34.6401 29.4546 34.6211C29.8598 34.5429 29.8652 34.4533 29.7858 34.0391C29.7596 33.9024 29.6293 33.7839 29.5429 33.66C29.4617 33.5434 29.3792 33.4272 29.289 33.3172C29.2587 33.2803 29.1945 33.2721 29.1607 33.2367C28.8593 32.9226 28.5133 32.6422 28.3386 32.2278C28.2952 32.1252 28.2701 32.0112 28.2577 31.9003C28.1703 31.1268 28.0591 30.3547 28.0138 29.5787C27.9794 28.9902 28.035 28.3967 28.0438 27.8054C28.051 27.311 28.0376 26.8164 28.0531 26.3222C28.0716 25.7368 28.0785 25.1479 28.1488 24.5678C28.2609 23.6437 28.2468 22.7198 28.1987 21.7973C28.158 21.0176 28.0503 20.2414 27.9822 19.4627C27.9773 19.4037 28.0356 19.312 28.0909 19.2791C28.6927 18.9221 29.2978 18.57 29.9056 18.2239C30.5866 17.8364 31.272 17.456 32.0226 17.035C32.1519 17.1832 32.3002 17.3625 32.4581 17.5325C32.5987 17.6832 32.7539 17.8202 32.8954 17.97C33.0768 18.1617 33.2604 18.3524 33.4246 18.5582C33.5855 18.7596 33.7215 18.8345 33.8479 18.749C33.9941 18.6505 34.036 18.3749 33.9261 18.2031C33.8834 18.1369 33.8341 18.0732 33.7787 18.0176C33.354 17.5906 33.1579 17.0378 32.9325 16.5008C32.9118 16.4517 32.8895 16.4033 32.8528 16.3199C33.1075 16.2012 33.3614 16.0785 33.6193 15.9651C33.7962 15.8874 33.976 15.8144 34.1592 15.7541C34.5027 15.641 34.7631 15.4182 34.9926 15.1528C35.1347 14.9887 35.3196 14.8961 35.5032 15.0188C35.9531 15.3193 36.473 15.3267 36.9739 15.4196C37 15.4246 37.0281 15.4244 37.0524 15.4337C37.1559 15.4734 37.2704 15.5188 37.3345 15.3936C37.3695 15.3252 37.3523 15.2302 37.3629 15.0931C37.4591 14.961 37.6635 15.0123 37.8425 14.9912C38.0405 14.9676 38.2413 14.947 38.4402 14.9542C38.5831 14.9594 38.7275 15.0018 38.8655 15.0452C39.7204 15.3149 40.5991 15.3982 41.4771 15.2578C42.07 15.163 42.6774 15.05 43.1872 14.6783C43.5258 14.4316 43.8352 14.1656 43.9144 13.7271C43.931 13.6373 43.9169 13.5419 43.8842 13.417C43.0068 14.2237 41.9491 14.2159 40.8333 14.197C41.1221 13.9107 41.5804 13.8244 41.5476 13.293C41.1645 13.4325 40.8093 13.5683 40.4491 13.6911C40.0563 13.825 39.6583 13.9344 39.2262 13.7433C39.451 13.6641 39.6698 13.5494 39.9015 13.5121C40.7071 13.3829 41.285 12.9475 41.7378 12.29C42.0276 11.8689 42.251 11.4265 42.3958 10.9389C42.548 10.4252 42.5441 9.90042 42.5206 9.3746C42.4919 8.73355 42.2229 8.15648 42.0153 7.56334C41.8017 6.95306 41.6838 6.32009 41.7627 5.67965C41.8455 5.01127 42.0687 4.37669 42.4287 3.79749C42.5896 3.53892 42.7335 3.26863 42.9108 3.02225C43.2519 2.54837 43.7114 2.22827 44.2728 2.05523C44.4305 2.00679 44.5847 1.94587 44.7431 1.89986C44.8899 1.85729 44.8709 1.7237 44.8325 1.65782C44.6828 1.40025 44.7324 1.12554 44.7269 0.855469C44.721 0.587307 44.5461 0.434452 44.3394 0.584184C43.9991 0.831174 43.5984 0.864456 43.2303 1.0052C42.4982 1.28517 41.8453 1.70558 41.2901 2.24815C40.7115 2.81334 40.2035 3.43298 39.8969 4.2083C39.6411 4.85529 39.328 5.48415 39.2114 6.17219C39.08 6.94994 39.0944 7.73204 39.2518 8.5136C39.3275 8.88991 39.3332 9.28176 39.347 9.66736C39.3504 9.76683 39.2824 9.88305 39.2165 9.96751C39.0219 10.217 38.8122 10.4544 38.6453 10.6527C38.315 10.5393 38.0085 10.4227 37.6951 10.3295C37.3788 10.2357 37.0909 10.1024 36.83 9.8963C36.6224 9.73225 36.3832 9.60887 36.1649 9.45754C35.7824 9.19311 35.4102 8.91375 35.0246 8.65465C34.7542 8.47286 34.4754 8.30096 34.1881 8.14719C33.7195 7.89617 33.2459 7.65314 32.7653 7.42564C32.32 7.21529 31.8351 7.24072 31.3645 7.28147C30.7076 7.33836 30.0814 7.52633 29.5103 7.86562C29.0021 8.16768 28.4996 8.47963 27.9926 8.7839C27.7147 8.95046 27.4071 8.99768 27.0874 8.99083C26.9084 8.98709 26.727 8.97003 26.5509 8.99182C26.265 9.02723 26.0566 8.84452 25.8223 8.75099C25.2718 8.53127 24.711 8.38337 24.1199 8.3315C23.6487 8.29022 23.1809 8.21223 22.7101 8.16494C21.9445 8.08817 21.1833 8.09784 20.461 8.40637C20.0398 8.58626 19.6351 8.80446 19.2133 8.98184C19.1025 9.02845 18.9491 9.0107 18.8239 8.98367C18.3362 8.87834 17.8528 8.75343 17.3661 8.64277C16.9324 8.5443 16.494 8.46631 16.0628 8.35846C15.281 8.16273 14.5466 8.39113 13.8156 8.60362C13.2854 8.75777 12.7643 8.94978 12.2528 9.1583C11.8903 9.30621 11.5375 9.48892 11.2038 9.69341C10.6614 10.0255 10.1085 10.3519 9.61418 10.7477C9.08054 11.1753 8.58784 11.66 8.11703 12.1569C7.69742 12.5994 7.3202 13.0836 6.94613 13.5664C6.66258 13.9325 6.38631 14.3094 6.15703 14.7096C5.86071 15.2273 5.59186 15.7636 5.35553 16.3108C5.22 16.6237 5.1701 16.9733 5.08477 17.3073C4.99454 17.661 4.92054 18.0189 4.81753 18.3685C4.65827 18.9083 4.48845 19.4452 4.30731 19.9781C4.16244 20.4048 4.00478 20.8277 3.83366 21.2447C3.68818 21.6002 3.51959 21.9463 3.35405 22.2935C3.12515 22.7739 2.91225 23.2635 2.6496 23.7257C2.43103 24.1101 2.17496 24.4804 1.88805 24.8167C1.73721 24.9928 1.46844 25.0634 1.27949 25.215C0.994719 25.4437 0.788318 25.733 0.727783 26.1739C0.933572 26.0801 1.1037 26.0164 1.2602 25.9284C1.6042 25.7362 1.84894 25.4329 2.10034 25.1396ZM24.0905 31.7632C24.196 31.5522 24.2584 31.3114 24.2963 31.0771C24.4024 30.423 24.4886 29.7658 24.577 29.1089C24.651 28.5585 24.7175 28.0074 24.7874 27.4564C24.8009 27.4574 24.8144 27.4586 24.8276 27.4595C24.9194 27.8384 25.0134 28.2167 25.1028 28.5959C25.2539 29.2379 25.2883 29.8836 25.2035 30.5405C25.1545 30.9214 25.0931 31.3214 25.2711 31.6818C25.4845 32.1137 25.4362 32.545 25.3468 32.9835C25.2938 33.2448 25.2183 33.5015 25.1375 33.8206C25.0294 33.6907 24.9609 33.6137 24.8982 33.5322C24.6968 33.269 24.5036 32.9996 24.2963 32.7411C24.06 32.4475 23.8932 32.1579 24.0905 31.7632Z" fill="url(#paint0_linear)"/>
<defs>
<linearGradient id="paint0_linear" x1="22.7938" y1="0.52539" x2="28.4301" y2="34.6329" gradientUnits="userSpaceOnUse">
<stop stop-color="#4BB16B"/>
<stop offset="1" stop-color="#005085"/>
</linearGradient>
</defs>
</svg>
