<svg width="35" height="36" viewBox="0 0 35 36" fill="none" xmlns="http://www.w3.org/2000/svg">
<path d="M33.8013 8.62048C33.7514 8.5658 33.6989 8.50823 33.6519 8.45547C33.8649 8.53726 34.0237 8.57445 34.1539 8.57445C34.6343 8.57445 34.6343 8.04924 34.6343 7.87664C34.6343 6.98451 31.9229 6.0353 28.187 5.61984C27.9416 5.59255 27.6935 5.57871 27.4495 5.57871C24.0406 5.57871 21.6813 8.25625 20.7931 9.26428C20.7162 9.35154 20.6494 9.42727 20.5931 9.48887C20.1228 10.0031 19.2265 11.6907 18.5064 13.0467C18.1286 13.7583 17.7382 14.4936 17.6432 14.5975C17.6326 14.5995 17.609 14.6024 17.5631 14.6024C17.031 14.6024 15.0461 14.2275 13.517 13.3418C12.482 12.7423 11.8975 11.4073 11.2206 9.86156C10.801 8.90312 10.3254 7.81696 9.68181 6.79298C8.54298 4.98123 6.89922 4.12255 6.1092 3.70978C5.93775 3.62021 5.76153 3.52815 5.68504 3.47164C6.32875 3.07732 7.37757 2.33396 7.53245 1.59762C7.56017 1.46548 7.54493 1.36197 7.48692 1.2897C7.43244 1.22195 7.34605 1.18754 7.22984 1.18754C6.94799 1.18754 6.50364 1.3908 6.14663 1.55408C6.05881 1.59425 5.95918 1.63981 5.87907 1.67325C5.92403 1.61213 5.98051 1.54082 6.02795 1.48095C6.30389 1.13267 6.4964 0.87194 6.45916 0.688094C6.44696 0.627741 6.41143 0.579977 6.35628 0.549993C6.32609 0.533752 6.2918 0.525391 6.25446 0.525391C6.02738 0.525391 5.69504 0.844935 5.25022 1.29633C5.12077 1.4279 4.9678 1.58301 4.87092 1.66364C4.88521 1.5955 4.9116 1.50613 4.93169 1.43818C5.01056 1.17101 5.09219 0.894621 4.97437 0.735185C4.93903 0.687421 4.86959 0.630528 4.7391 0.630528C4.47201 0.630528 4.23788 1.08443 3.93612 1.72563C3.86116 1.88506 3.77143 2.07593 3.71504 2.16453C3.6899 2.08861 3.66761 1.94542 3.6517 1.84287C3.60036 1.51228 3.55178 1.19994 3.33403 1.19994C3.13534 1.19994 3.02246 1.5315 2.85501 2.07266C2.79205 2.27611 2.69851 2.57797 2.6406 2.6488C2.57831 2.62035 2.44562 2.45073 2.36427 2.34675C2.19492 2.13032 2.0487 1.9434 1.89525 1.9434C1.88601 1.9434 1.87687 1.94417 1.86792 1.94542C1.68665 1.973 1.69018 2.22815 1.69475 2.55135C1.69675 2.69848 1.70161 3.04302 1.64055 3.07156C1.6214 3.07377 1.60388 3.07483 1.58778 3.07483C1.49796 3.07483 1.4691 3.04292 1.41661 2.98487C1.37994 2.94422 1.33422 2.89377 1.26249 2.8559C1.15648 2.80016 1.05561 2.81419 0.98655 2.89021C0.813668 3.08011 0.847863 3.64818 0.924732 4.56126C0.942163 4.76769 0.958546 4.96288 0.969119 5.14028C0.992075 5.52748 1.12743 5.79811 1.37099 5.94967C1.3106 6.13476 1.2404 6.37887 1.20087 6.61576C1.15353 6.89975 1.15753 7.27215 1.24659 7.37854C1.27031 7.40689 1.30212 7.42255 1.33622 7.42255C1.36441 7.42255 1.41671 7.4115 1.45205 7.3374C1.59092 7.04602 1.76219 6.92666 1.94116 6.86419C1.82734 7.03746 1.8582 7.30636 1.90992 7.73614C1.93745 7.96515 1.97165 8.2501 1.99222 8.59204C2.06042 9.72865 2.74395 10.0734 3.0358 10.2205C3.05876 10.2321 3.072 10.2436 3.07504 10.2545C3.09429 10.3251 2.95722 10.5415 2.79843 10.7922C2.60564 11.0964 2.3416 11.5131 2.04585 12.11C1.38366 13.4461 1.18286 15.7824 1.50891 18.3593C1.76047 20.3471 5.8023 24.414 7.97366 26.599C8.33038 26.9578 8.63842 27.2677 8.87351 27.5118C9.00838 27.6518 9.14336 27.7783 9.27842 27.8931C8.31019 29.6132 7.14621 31.6572 7.03953 31.7752C7.03752 31.7769 7.03114 31.7787 7.01981 31.7787C6.95637 31.7787 6.83997 31.7256 6.72738 31.6744C6.59765 31.6152 6.45058 31.5482 6.30247 31.5178C6.22912 31.5029 6.17226 31.4956 6.12863 31.4956C6.01252 31.4956 5.97899 31.5553 5.96927 31.5909C5.94746 31.6716 5.96823 31.7571 6.41743 32.0343C6.24608 32.0884 5.89431 32.1574 5.6217 32.2109C5.17792 32.298 4.71909 32.3881 4.47096 32.4881C3.76257 32.7735 3.69485 32.8553 3.71523 32.9627C3.73685 33.0762 3.88535 33.0762 3.9567 33.0762C4.07709 33.0762 4.26103 33.0587 4.51935 33.0224C5.50683 32.8841 5.74991 32.8813 6.0551 32.8867C6.09367 32.8874 6.13349 32.8881 6.17664 32.8886C6.15902 32.9013 6.14092 32.9143 6.12339 32.9268C5.84421 33.1273 5.377 33.4628 5.23907 33.9725C5.21802 34.0504 5.21126 34.1118 5.2465 34.1585C5.26746 34.1861 5.29956 34.2019 5.33452 34.2019C5.40243 34.2019 5.46168 34.1469 5.59141 34.0262C5.69971 33.9255 5.8344 33.8003 5.97623 33.7121C6.25789 33.5371 7.61637 32.8574 7.96652 32.8071C7.99509 32.8029 8.02519 32.8009 8.05605 32.8009C8.22627 32.8009 8.40239 32.8615 8.5727 32.9203C8.72387 32.9724 8.86655 33.0216 8.99314 33.0216C9.08316 33.0216 9.11697 32.9735 9.12907 32.9448C9.17022 32.8474 9.08382 32.7567 8.9117 32.5758C8.73596 32.3912 8.4703 32.1121 8.4703 31.9124C8.4703 31.8372 8.57918 31.6071 8.75778 31.2808C9.03724 31.2465 9.37482 31.151 9.70096 30.9213C10.068 30.6628 10.1173 30.5792 10.0894 30.4897C10.0791 30.4566 10.0461 30.4011 9.94052 30.4011C9.83869 30.4011 9.65724 30.4494 9.46531 30.5007L9.35681 30.5295C9.30052 30.5442 9.23965 30.5516 9.17612 30.5519C9.53103 29.9529 9.97586 29.2356 10.406 28.5571C10.6696 28.6453 10.9363 28.6902 11.2079 28.6902C11.5611 28.6902 11.8914 28.6157 12.195 28.5116C12.165 30.4682 12.083 33.2635 11.9649 33.7665C11.934 33.7448 11.8968 33.7175 11.8639 33.6934C11.6668 33.5486 11.3967 33.3504 11.1831 33.3378C11.1395 33.3378 11.1023 33.362 11.0862 33.4006C11.0567 33.4715 11.1036 33.5196 11.1886 33.6068C11.2255 33.6447 11.3143 33.7359 11.3434 33.7888C11.3081 33.795 11.2172 33.7936 11.1017 33.7754C10.9726 33.7551 10.8226 33.7448 10.6564 33.7448C9.9589 33.7448 9.11516 33.9245 8.79759 33.9921C8.7592 34.0003 8.72815 34.0068 8.70558 34.0113C8.61404 34.0298 8.56965 34.0721 8.57365 34.137C8.57965 34.2318 8.58232 34.2748 9.54398 34.3789C10.0074 34.4291 10.5766 34.4771 10.9351 34.503C11.1542 34.5189 11.2663 34.5411 11.3225 34.5585C11.272 34.5872 11.1701 34.6306 10.969 34.6886C10.3876 34.8563 9.92052 35.1717 9.71544 35.4139C9.67191 35.4653 9.68629 35.5044 9.69448 35.5224L9.72611 35.5643H9.78707C9.82707 35.5643 9.87537 35.5603 10.0367 35.4902C10.2071 35.416 10.4404 35.3307 10.671 35.2622C11.0521 35.1492 11.5389 35.0219 12.2609 34.9345C12.7041 34.8808 12.8432 34.767 12.9448 34.684C12.998 34.6404 13.0248 34.6185 13.0874 34.6115C13.1878 34.6008 13.3788 34.689 13.5471 34.7655C13.7461 34.8557 13.9352 34.9388 14.0618 34.9233C14.1239 34.9155 14.1706 34.8803 14.1895 34.8269C14.2369 34.6938 14.1298 34.4862 13.4131 33.7205C13.3417 33.6441 13.298 33.3833 13.2751 33.0017C13.5288 32.8885 13.8289 32.6977 14.0784 32.3755C14.3413 32.0359 14.3699 31.9397 14.3329 31.8629C14.3126 31.821 14.2709 31.7961 14.2209 31.7961C14.129 31.7961 13.9823 31.8854 13.7311 32.043L13.6352 32.1029C13.5315 32.1673 13.4034 32.205 13.2552 32.2178C13.2543 30.9745 13.3587 29.2032 13.4728 27.8067C13.6733 27.591 13.8404 27.3268 14.0041 27.0674C14.327 26.5557 14.6319 26.0723 15.1355 26.0723C15.2209 26.0723 15.3124 26.0861 15.4075 26.1133C15.6535 26.1837 15.8958 26.2165 16.1697 26.2165C16.3424 26.2165 16.5097 26.2042 16.6869 26.1911C16.8777 26.1771 17.0749 26.1626 17.2941 26.1626C17.8095 26.1626 18.319 26.2486 18.8974 26.4328C19.2202 26.5356 19.4941 26.5878 19.7116 26.5878C20.099 26.5878 20.2528 26.4214 20.3134 26.2816C20.506 25.8385 20.0523 25.1083 19.5634 24.5728C18.9809 23.9345 18.549 23.5193 18.2633 23.2446C18.1231 23.1099 17.9973 22.9889 17.936 22.917C17.9913 22.9148 18.0932 22.9173 18.2167 22.9217C18.3503 22.9263 18.5166 22.932 18.7161 22.932C19.6717 22.932 20.6557 22.7923 21.7242 22.5048C22.3912 22.3254 22.5198 22.1326 22.9014 21.5605C22.953 21.4831 23.0096 21.3983 23.0732 21.305C23.2274 21.0787 23.3162 20.935 23.3749 20.84C23.4655 20.6933 23.4655 20.6933 23.5516 20.6657C23.5882 20.6541 23.6355 20.6389 23.6997 20.6147C23.8386 20.562 24.0222 20.5299 24.2166 20.496C24.5465 20.4382 24.9203 20.373 25.2497 20.186C25.4682 20.0619 25.6499 20.0461 25.8103 20.0321C26.0128 20.0145 26.204 19.9979 26.3671 19.7716C26.4884 19.6033 26.5083 19.4095 26.5259 19.2385C26.551 18.993 26.573 18.8624 26.7638 18.8076C26.8957 18.7695 26.9805 18.7106 27.0233 18.6275C27.0925 18.4925 27.0372 18.333 26.9671 18.131C26.9177 17.9888 26.8619 17.8278 26.8317 17.6356C26.7821 17.3182 26.8479 17.2781 27.0658 17.145C27.2033 17.0609 27.3918 16.9457 27.6062 16.7166C27.9843 16.3128 27.845 16.0311 27.7529 15.8448C27.6915 15.7205 27.672 15.6679 27.7121 15.6071C28.5098 14.4 28.8183 13.7727 28.9368 13.459C29.0742 13.0952 29.0157 12.8594 28.9539 12.6097C28.8945 12.3703 28.8332 12.1228 28.9399 11.7069C29.0793 11.1647 29.0055 10.9708 28.9035 10.7023C28.8347 10.5217 28.757 10.3169 28.7188 9.93133C28.6722 9.4611 28.306 9.28494 28.0713 9.20441C28.1872 9.16933 28.3521 9.12262 28.5537 9.06573C28.6691 9.03315 28.8011 9.01652 28.9455 9.01652C29.7533 9.01652 30.8917 9.53164 31.896 9.98621C32.8006 10.3956 33.6551 10.7823 34.2128 10.7823C34.3581 10.7823 34.4825 10.7559 34.5826 10.7038C34.7329 10.6256 34.8224 10.5102 34.8485 10.361C34.9359 9.86291 34.2531 9.11532 33.8013 8.62048Z" fill="url(#paint0_linear)"/>
<defs>
<linearGradient id="paint0_linear" x1="17.8589" y1="0.52539" x2="25.0451" y2="34.0226" gradientUnits="userSpaceOnUse">
<stop stop-color="#4BB16B"/>
<stop offset="1" stop-color="#005085"/>
</linearGradient>
</defs>
</svg>
