<svg width="36" height="36" viewBox="0 0 36 36" fill="none" xmlns="http://www.w3.org/2000/svg">
<path d="M32.9246 21.8418C33.3999 23.7896 33.0643 25.2637 32.0859 26.5156C31.1076 27.7676 32.1978 28.4909 33.0083 28.8805C33.8187 29.2701 34.1267 29.5205 34.1825 30.0768C34.2384 30.6331 33.4835 32.8035 33.1201 33.1651C32.7567 33.5267 31.9458 34.3057 31.415 35.1128C30.8837 35.9193 30.1851 35.3911 30.1851 35.3911C29.6821 35.7807 29.1786 35.3911 29.1786 35.3911C28.284 35.8084 27.7528 35.2241 27.7528 35.2241C27.3058 34.6955 28.2559 34.1392 28.2559 34.1392C28.843 33.1099 29.2902 33.9446 29.4579 33.7219C29.6257 33.4992 29.7654 33.4716 30.66 32.4423C31.5547 31.4131 29.2342 31.7467 28.4236 31.552C27.6131 31.3574 26.0753 30.3281 26.0753 30.3281C26.0753 31.552 25.656 31.3575 25.0411 31.9974C24.4261 32.6374 24.1464 33.0547 23.3359 33.3884C22.5255 33.7224 22.1339 33.6667 21.407 34.1397C20.6801 34.6128 19.1706 34.5294 19.1706 34.5294C18.4998 34.7521 17.8566 34.5294 17.8566 34.5294C16.2352 34.5294 16.9061 33.9731 17.4933 33.2217C18.0804 32.4703 19.2543 33.1103 19.7855 32.7487C20.3166 32.3871 21.6306 31.8308 22.3016 31.441C22.9724 31.0514 22.3016 30.3561 22.3016 29.7162C22.3016 29.0762 21.7985 28.5756 21.7985 28.5756H19.1988C19.1988 28.5756 17.1862 28.4366 16.655 29.5215C16.1237 30.6064 15.3133 30.8292 15.2851 31.4134C15.2569 31.9977 15.7604 32.0534 15.7604 32.0534C16.8788 31.7475 16.9065 33.5281 16.9065 33.5281C15.5367 35.3364 12.8809 32.7767 12.8809 32.7767C9.80592 32.4983 10.0297 27.9916 10.0297 27.9916C9.4147 27.5467 8.43606 26.378 7.79329 25.3206C7.1502 24.2633 5.33318 23.4567 3.71176 24.2357C2.09034 25.0146 1.81065 23.7071 1.81065 23.7071C1.25166 23.7904 1.08388 23.0671 1.08388 23.0671C0.357105 22.2605 1.64287 22.0655 1.671 20.0626C1.69913 18.0596 3.3761 17.6976 3.29242 17.1137C3.20873 16.5294 1.50322 14.6655 1.92257 14.8324C2.28849 14.978 3.82571 15.7384 4.21073 15.9294C4.22353 15.879 4.24882 15.8073 4.29889 15.6952C4.52273 15.1946 6.98283 16.7801 6.98283 16.7801C6.98283 16.7801 10.8824 19.0753 11.6374 19.2424C12.3925 19.4093 12.3082 18.9083 13.2306 18.992C14.1531 19.0753 14.6147 19.159 18.7658 17.406C22.9173 15.6534 30.4783 18.4719 30.4783 18.4719C30.4783 18.4719 36.5159 8.8939 31.4843 4.76272C26.4526 0.631535 33.1824 -2.81085 34.8179 6.20227C36.4533 15.2155 32.4493 19.8947 32.9246 21.8418Z" fill="url(#paint0_linear)"/>
<defs>
<linearGradient id="paint0_linear" x1="18.0372" y1="0.52539" x2="10.9192" y2="34.0531" gradientUnits="userSpaceOnUse">
<stop stop-color="#4BB16B"/>
<stop offset="1" stop-color="#005085"/>
</linearGradient>
</defs>
</svg>
