<svg width="47" height="36" viewBox="0 0 47 36" fill="none" xmlns="http://www.w3.org/2000/svg">
<path d="M45.8694 24.4267C45.7884 24.7201 45.7243 25.02 45.6828 25.3212C45.6141 25.8227 45.4516 26.287 45.1884 26.7179C45.1075 26.8504 45.0077 26.9737 44.9443 27.1135C44.9127 27.1829 44.9452 27.2804 44.9466 27.3652C44.9476 27.4284 44.9449 27.4912 44.9439 27.5546C44.8732 27.5384 44.7653 27.545 44.739 27.5021C44.6567 27.3682 44.5669 27.2196 44.5498 27.069C44.5199 26.8035 44.5412 26.5318 44.5412 26.2371C44.4916 26.205 44.3935 26.1409 44.2942 26.0786C44.2675 26.0618 44.2353 26.0389 44.2076 26.0416C43.5677 26.1027 42.9738 26.2809 42.4373 26.6553C42.2172 26.8093 41.9371 26.8195 41.6611 26.7573C41.5746 26.7377 41.444 26.7645 41.3802 26.8219C41.2173 26.9678 41.0804 27.1427 40.9413 27.2973C40.8749 26.8955 41.1157 26.3517 41.4638 26.1024C41.7934 25.8664 42.1471 25.6928 42.5278 25.5471C42.6949 25.4833 42.7913 25.2361 42.9196 25.0723C42.7212 24.8926 42.5363 24.9097 42.3053 24.9784C42.0747 25.0468 41.8931 25.1836 41.6842 25.2779C41.5431 25.3417 41.3821 25.4118 41.2351 25.4027C40.8966 25.3814 40.6396 25.4397 40.6018 25.8621C40.4143 25.607 40.4705 25.1766 40.6913 24.9788C40.892 24.799 41.0871 24.6277 41.3637 24.5364C41.7931 24.3948 42.1998 24.184 42.6084 23.946C42.4297 23.9889 42.2527 24.0512 42.0714 24.0692C41.8842 24.0878 41.6611 24.2027 41.5154 23.8963C41.4071 24.0296 41.3213 24.1351 41.216 24.2647C41.0656 24.2731 41.0117 24.194 41.0525 24.0139C41.1258 23.6904 41.3144 23.5326 41.6394 23.5398C41.67 23.5404 41.7154 23.5444 41.7289 23.5273C41.9009 23.3089 42.152 23.3771 42.3757 23.3408C42.5365 23.3146 42.6935 23.2638 42.8396 23.1819C42.6247 23.194 42.4099 23.2061 42.1966 23.2181C42.1579 22.93 42.2904 22.7794 42.5283 22.7021C42.9097 22.5785 43.9299 22.2078 44.1921 21.8512C43.9522 21.8512 43.7352 21.8577 43.5186 21.8488C43.367 21.8427 43.2167 21.8076 43.0653 21.8007C42.9689 21.7964 42.8705 21.8151 42.7744 21.8322C42.6583 21.8524 42.5451 21.8977 42.4286 21.9046C42.0644 21.9263 41.6972 21.9635 41.3353 21.9369C41.1777 21.9254 41.0402 21.7362 40.8763 21.6953C40.6635 21.6419 40.5704 21.4965 40.497 21.3331C40.3572 21.0224 40.2302 20.7055 40.1157 20.385C40.0554 20.2166 39.983 20.1921 39.8626 20.3159C39.6922 20.4907 39.5284 20.6719 39.3599 20.849C39.204 21.0126 39.0724 21.23 38.8806 21.3205C38.7033 21.404 38.5236 21.4811 38.4118 21.6269C38.1647 21.9491 37.7909 22.062 37.4668 22.2585C37.331 22.3409 37.2161 22.4578 37.0812 22.5423C36.7845 22.7279 36.4887 22.9186 36.1781 23.0787C35.7764 23.2856 35.3723 23.4991 34.9473 23.6461C34.5071 23.7983 34.0389 23.8701 33.5855 23.9865C33.4065 24.0328 33.2285 24.0926 33.0607 24.1693C32.844 24.2685 32.6475 24.4191 32.4244 24.495C32.2155 24.5662 31.9805 24.5563 31.7621 24.6047C31.5453 24.6525 31.3354 24.7307 31.1212 24.7907C30.9738 24.832 30.8191 24.8516 30.6764 24.9039C30.299 25.0422 29.9255 25.1904 29.5524 25.3395C29.4202 25.3921 29.2971 25.4998 29.1639 25.5103C28.8414 25.5362 28.6322 25.7572 28.3779 25.9006C28.2104 25.9953 28.0387 26.083 27.8768 26.1864C27.7636 26.2588 27.6643 26.3524 27.5636 26.433C27.8137 26.7198 28.0627 26.9775 28.2736 27.2634C28.351 27.3681 28.3532 27.5387 28.3611 27.6808C28.4085 28.5479 28.1824 29.3376 27.6702 30.0447C27.3044 30.5504 26.9237 31.0471 26.5898 31.5728C26.4352 31.8165 26.3565 32.1151 26.2812 32.399C26.2348 32.5734 26.2888 32.7519 26.4783 32.8518C26.7959 33.019 26.8783 33.5708 26.7639 33.8671C26.7363 33.9385 26.6464 33.9862 26.5964 34.0341C26.428 33.7541 26.2829 33.5135 26.1381 33.2725C26.1032 33.2817 26.0686 33.2911 26.0338 33.3004C26.3631 33.8606 26.4405 34.4294 26.1118 35.0314C26.0226 34.85 25.9529 34.6555 25.8396 34.4905C25.6449 34.2067 25.5847 33.8288 25.2827 33.6285C25.1662 33.5515 24.9589 33.5135 24.8362 33.5633C24.6022 33.658 24.3795 33.8062 24.1873 33.9723C23.8442 34.2689 23.5297 34.5983 23.1974 34.9078C23.0405 35.0537 22.8635 35.1788 22.7079 35.3265C22.6427 35.3884 22.6088 35.4834 22.5605 35.5643C22.3631 35.4052 22.3197 35.0017 22.4575 34.7558C22.4996 34.6812 22.501 34.5836 22.5434 34.5093C22.6053 34.4013 22.673 34.288 22.7648 34.2071C22.9432 34.0507 23.1129 33.8967 23.1619 33.5709C22.8935 33.6976 22.6589 33.7879 22.4463 33.915C22.2723 34.0191 22.1611 34.1908 21.8946 34.0633C21.6988 33.9701 21.2708 34.2597 21.1517 34.4732C21.1178 34.5345 21.0474 34.5757 20.9938 34.6258C20.9701 34.5551 20.924 34.4834 20.9266 34.4136C20.9381 34.1389 21.0006 33.8855 21.279 33.7451C21.3274 33.7204 21.3859 33.6789 21.4014 33.6324C21.5025 33.3293 21.7597 33.2454 22.0252 33.154C22.165 33.1059 22.2897 33.0119 22.4184 32.9337C22.5378 32.8614 22.6529 32.7821 22.8231 32.6714C22.6891 32.6456 22.6013 32.6288 22.5134 32.6112C22.2513 32.5584 21.9805 32.5253 21.8975 32.1963C21.8851 32.1465 21.7633 32.0814 21.7097 32.0944C21.6277 32.1145 21.5455 32.1852 21.4938 32.2559C21.4517 32.3139 21.454 32.4038 21.4313 32.5037C21.3843 32.4667 21.3271 32.4372 21.3307 32.4225C21.3712 32.2559 21.3771 32.0526 21.4804 31.9365C21.5902 31.8132 21.7969 31.7074 21.9574 31.7122C22.2111 31.7198 22.4588 31.8427 22.7148 31.8845C22.874 31.9106 23.0537 31.9118 23.2054 31.8642C23.4797 31.7781 23.74 31.6468 24.0065 31.5351C24.4243 31.3599 24.5582 30.9268 24.8398 30.6278C24.8556 30.6111 24.8658 30.5866 24.8724 30.5635C24.9849 30.1567 25.0878 29.7469 25.2119 29.3437C25.2889 29.0932 25.3981 28.8524 25.5024 28.5821C25.4649 28.5578 25.411 28.4997 25.3481 28.4867C25.0724 28.4311 24.795 28.3647 24.516 28.3512C24.3801 28.3446 24.234 28.4351 24.1015 28.5002C23.8303 28.6334 23.5738 28.8007 23.2938 28.9107C23.1569 28.9648 22.975 28.8944 22.825 28.9291C22.6003 28.9811 22.3901 29.0926 22.166 29.1488C21.7778 29.2468 21.384 29.323 20.9921 29.4055C20.9148 29.4218 20.8072 29.396 20.7608 29.4396C20.5587 29.6298 20.3143 29.6043 20.0735 29.6049C19.7251 29.6056 19.3763 29.5965 19.0279 29.6004C18.7937 29.6029 18.5594 29.633 18.3258 29.6254C18.2267 29.6226 18.1326 29.5387 18.031 29.5201C17.7073 29.4603 17.3809 29.4134 17.0552 29.3616C16.9992 29.3527 16.9363 29.3599 16.8877 29.3364C16.4765 29.1374 16.1711 29.3789 15.8402 29.562C15.5908 29.7003 15.3157 29.7923 15.0532 29.9078C14.9255 29.9638 14.7699 29.9507 14.6731 30.0964C14.6505 30.1306 14.4627 30.1008 14.3902 30.0474C14.2573 29.9494 14.1612 29.9839 14.075 30.0837C13.9496 30.2293 13.8438 30.3916 13.718 30.5366C13.6742 30.5874 13.5966 30.6093 13.5348 30.6443C13.5381 30.5726 13.5256 30.4957 13.5476 30.4302C13.6118 30.2396 13.6894 30.0531 13.7713 29.8411C13.7565 29.8451 13.7417 29.8484 13.7269 29.8523C13.592 29.9028 13.4719 29.9455 13.3571 29.9934C13.2692 30.03 13.1939 30.0249 13.1219 29.9963C10.9066 30.4836 8.63285 30.5733 8.45415 30.4311C8.18014 30.2128 4.01263 29.8853 2.8061 29.7763C1.59966 29.6674 1.38049 28.978 1.38049 28.978C1.38049 28.978 1.70949 29.2305 1.70949 28.978C1.70949 28.7256 2.30662 27.5269 2.203 28.1393C2.09938 28.7516 3.29961 28.978 3.29961 28.978V28.5518C3.29961 28.5518 4.28664 29.0669 4.23172 28.9647C4.17681 28.8626 4.72523 28.5263 4.72523 28.5263C4.66209 29.1729 5.54775 28.9133 5.54775 28.9133V28.5263C5.54775 28.5263 6.26068 28.794 6.47986 28.8986C6.69928 29.003 6.75387 28.5191 6.75387 28.5191L7.68598 28.8986L8.01499 28.7398C8.3094 29.0934 9.29377 28.7873 10.0118 28.4977C9.58471 28.4221 9.15797 28.3438 8.72792 28.2902C7.87621 28.1838 7.01877 28.1213 6.16432 28.0347C5.57743 27.9755 4.99239 27.8828 4.40413 27.85C3.69217 27.8101 3.00286 27.6529 2.30639 27.5272C1.85456 27.4457 1.47596 27.2384 1.12687 26.9582C0.755692 26.6602 0.72908 25.9936 1.08051 25.6798C1.16437 25.6049 1.26339 25.5469 1.35186 25.4769C1.48806 25.3688 1.60555 25.2209 1.75884 25.1547C1.981 25.0594 2.23953 24.9431 2.46234 24.9756C3.11874 25.0706 3.69281 24.864 4.27874 24.6316C5.03416 24.3319 5.80007 24.0573 6.56405 23.7799C6.69138 23.7338 6.8358 23.6993 6.96878 23.7092C7.39713 23.7406 7.66985 23.4803 7.95088 23.2275C7.98668 23.1954 8.03217 23.1611 8.04499 23.1189C8.17554 22.6974 8.57132 22.5452 8.88525 22.3209C9.00403 22.2361 9.22119 22.2055 9.36166 22.2498C9.66438 22.3453 9.96146 22.3225 10.2435 22.2498C10.9199 22.0756 11.5973 22.134 12.2727 22.2019C12.5626 22.2311 12.8416 22.3608 13.1278 22.4364C13.5802 22.5563 14.03 22.6951 14.4897 22.7773C14.8953 22.8495 15.3109 22.9427 15.7181 22.7209C15.8863 22.6293 16.0797 22.6516 16.2002 22.8562C16.2936 23.0153 16.4404 22.9948 16.5851 22.9365C16.789 22.854 16.9884 22.7684 17.2158 22.871C17.2651 22.8932 17.347 22.8733 17.4026 22.8481C17.6059 22.7558 17.7908 22.7197 17.9139 22.9846C18.1172 22.8069 18.31 22.6912 18.5278 22.9368C18.5528 22.965 18.6745 22.9349 18.7338 22.9007C18.9351 22.7855 19.1283 22.6565 19.3247 22.5324C19.3724 22.5023 19.4391 22.4824 19.4636 22.4391C19.5527 22.2801 19.6376 22.1319 19.8636 22.189C19.884 22.1941 19.9354 22.1467 19.9449 22.1153C20.0637 21.7356 20.2818 21.4362 20.6262 21.2257C20.6776 21.1943 20.6953 21.1042 20.723 21.039C20.8167 20.8188 20.8763 20.5777 21.1297 20.4655C21.1721 20.4469 21.2066 20.38 21.2188 20.3294C21.3146 19.934 21.5872 19.6574 21.8485 19.37C21.9492 19.259 22.0149 19.1159 22.1196 19.0098C22.3262 18.8003 22.5536 18.6114 22.7637 18.4051C22.9194 18.2522 23.0639 18.0878 23.2089 17.9247C23.3413 17.7764 23.4626 17.6179 23.6004 17.4749C23.6379 17.4359 23.7379 17.4018 23.7725 17.4234C23.9676 17.5456 24.0489 17.4097 24.1414 17.2843C24.2973 17.0731 24.444 16.8537 24.6154 16.6557C24.7027 16.5548 24.8228 16.4896 24.9853 16.5683C25.0412 16.5954 25.1669 16.5326 25.2323 16.4776C25.4489 16.2965 25.64 16.0834 25.8666 15.917C25.9706 15.8407 26.1357 15.8499 26.271 15.8122C26.4019 15.7759 26.5585 15.7628 26.6546 15.6816C27.0649 15.3345 27.5139 15.1355 28.0654 15.1623C28.2117 15.1695 28.3707 15.0811 28.5111 15.011C28.7694 14.882 29.0162 14.731 29.2712 14.5955C29.4208 14.5155 29.562 14.5018 29.7278 14.6007C29.8028 14.6455 29.9584 14.6023 30.0559 14.5549C30.323 14.4249 30.5744 14.2624 30.8418 14.1328C30.929 14.0906 31.0551 14.0791 31.1478 14.1063C31.4445 14.1931 31.7061 14.119 31.9637 13.9811C32.092 13.9127 32.2184 13.824 32.3562 13.7942C32.4852 13.7663 32.6339 13.7834 32.7642 13.8168C33.0172 13.882 33.2561 13.949 33.5065 13.7916C33.8164 13.5964 34.1428 13.5123 34.4833 13.7406C34.529 13.7713 34.5968 13.7694 34.6748 13.7873C34.6599 13.6626 34.6495 13.5715 34.6357 13.455C34.7284 13.4667 34.7986 13.476 34.8808 13.4865C34.4659 13.0596 34.5564 12.5412 34.6541 12.0704C34.7686 11.5193 35.3954 11.4365 35.7596 11.1045C35.4928 10.9189 35.244 10.7427 34.9907 10.5734C34.9496 10.5459 34.8565 10.5652 34.8407 10.535C34.7884 10.4348 34.7601 10.3222 34.7193 10.204C34.6946 10.2344 34.6581 10.28 34.6051 10.3455C34.5287 10.2279 34.4597 10.1218 34.384 10.005C34.363 10.0223 34.3179 10.0593 34.2521 10.1136C34.2313 10.0417 34.2168 9.99053 34.2004 9.93291C34.1583 9.96991 34.1264 9.99808 34.0764 10.0423C34.0477 9.95619 34.0254 9.88974 34.003 9.82289C33.9806 9.80852 33.9582 9.79408 33.9358 9.77963C33.9171 9.8533 33.8986 9.9273 33.8799 10.001C33.8494 9.98291 33.8184 9.96525 33.7878 9.94728C33.7795 9.88677 33.7716 9.82578 33.7686 9.80419C33.6598 9.75933 33.5729 9.71415 33.4808 9.68703C32.8073 9.4876 32.1848 9.12086 31.4393 9.15296C31.1126 9.167 30.7803 9.03804 30.4493 8.9817C30.2588 8.94928 30.0637 8.9411 29.8742 8.90442C29.7383 8.87826 29.6103 8.81278 29.4748 8.78397C29.404 8.76888 29.3235 8.80588 29.2487 8.80066C28.542 8.7509 27.8363 8.68702 27.1289 8.6481C26.7575 8.6278 26.4123 8.55092 26.056 8.43335C25.7279 8.32533 25.347 8.36979 24.9891 8.36161C24.8166 8.35768 24.6354 8.45101 24.5294 8.35607C24.3267 8.37966 24.1629 8.41794 24.0003 8.41369C23.4348 8.3986 22.8699 8.37044 22.305 8.34195C22.253 8.3393 22.2043 8.29476 22.1517 8.27807C22.0069 8.23321 21.8606 8.1556 21.7155 8.15697C21.1028 8.16323 20.5169 8.03122 19.9302 7.87738C19.0014 7.63342 18.0647 7.41867 17.1387 7.16652C16.8277 7.08169 16.5382 6.91967 16.2385 6.79327C16.069 6.72153 15.9 6.64922 15.7298 6.57941C15.3787 6.436 15.0438 6.29099 14.775 5.99005C14.5282 5.71406 14.1594 5.54538 13.916 5.26707C13.5955 4.90129 13.3406 4.47797 13.0695 4.07166C13.0204 3.99831 13.0395 3.88275 13.0096 3.79271C12.9924 3.74159 12.9264 3.65877 12.9037 3.66503C12.6944 3.72393 12.7279 3.55926 12.7004 3.45646C12.6263 3.18016 12.5609 2.90145 12.4822 2.62643C12.4593 2.54554 12.4039 2.47387 12.352 2.37693C12.3961 2.35141 12.4444 2.32356 12.4912 2.29644C12.4481 1.98178 12.377 1.66711 12.3714 1.35149C12.3675 1.12655 12.4343 0.894382 12.5057 0.677305C12.5287 0.607246 12.6676 0.575146 12.7537 0.525391C12.788 0.597375 12.8222 0.66944 12.8562 0.741826C12.9101 0.856745 12.9587 0.973991 13.0187 1.08562C13.0895 1.21755 13.1812 1.3043 13.1759 1.50405C13.169 1.77288 13.3049 2.07382 13.4593 2.30888C13.5833 2.49747 13.8557 2.58357 14.008 2.76141C14.1646 2.94374 14.2923 3.12222 14.5515 3.17366C14.6121 3.18577 14.6439 3.34226 14.6959 3.44675C14.8022 3.27124 14.9352 3.29419 15.0333 3.43006C15.1905 3.64713 15.4064 3.67265 15.6369 3.64416C15.8367 3.61961 15.9495 3.71326 16.0554 3.86188C16.0999 3.9244 16.1854 3.97937 16.2611 3.99478C16.4996 4.04325 16.7318 4.07046 16.9204 4.26619C17.0668 4.4181 17.2478 4.55533 17.4879 4.35462C17.6265 4.23874 17.9295 4.36674 18.0521 4.54586C18.1305 4.65981 18.2246 4.76294 18.3302 4.89391C18.3775 4.81991 18.3947 4.79536 18.4098 4.76952C18.6009 4.44306 18.5996 4.44571 18.9454 4.58719C19.0948 4.6481 19.2467 4.72867 19.4025 4.74135C19.5649 4.75475 19.7383 4.7139 19.8982 4.6664C20.1452 4.59337 20.372 4.60749 20.6174 4.6936C20.829 4.76791 21.0649 4.77353 21.3218 4.8147C21.5294 4.61431 21.661 4.61335 21.991 4.77642C22.1742 4.86678 22.3825 4.90739 22.574 4.96862C22.8322 4.61568 23.0823 4.53767 23.4633 4.67619C23.6412 4.74103 23.8215 4.79993 24.0149 4.86638C23.9495 4.5262 24.1548 4.31666 24.4597 4.3864C24.6864 4.43816 24.9072 4.52652 25.1358 4.55693C25.2473 4.5717 25.4168 4.52684 25.4813 4.44659C25.6346 4.25575 25.8017 4.26193 26.0011 4.31787C26.239 4.38472 26.4785 4.44523 26.7068 4.50549C26.8407 4.25078 27.1809 4.05922 27.4119 4.09758C27.4997 4.11203 27.5961 4.15753 27.6596 4.21876C27.8896 4.43977 27.9524 4.4502 28.1883 4.25872C28.4759 4.02495 28.5812 4.02632 28.9105 4.21547C29.0629 4.30318 29.2356 4.35558 29.4004 4.42468C29.4682 4.14083 29.7943 3.97544 30.0393 4.09333C30.1571 4.14998 30.2765 4.20536 30.3874 4.27405C30.5012 4.34475 30.6055 4.43118 30.7144 4.51111C30.7894 4.22237 30.9711 4.09991 31.2326 4.25535C31.6317 4.49273 32.0028 4.48655 32.4042 4.30479C32.424 4.29596 32.5078 4.39258 32.5371 4.45213C32.5585 4.4957 32.5322 4.5599 32.5414 4.61263C32.545 4.63421 32.5861 4.64962 32.6279 4.68108C32.6437 4.58679 32.6559 4.51408 32.671 4.42468C33.0878 4.55565 33.4935 4.67161 33.8903 4.81269C34.0594 4.87264 34.2095 4.98459 34.3796 5.0792C34.3618 5.01701 34.3424 4.9492 34.3141 4.84905C34.928 4.5851 35.191 5.0792 35.5338 5.38737C35.9036 5.17944 36.3648 5.28456 36.631 5.62242C36.683 5.68855 36.7912 5.70885 36.8689 5.75764C36.9686 5.82056 37.0761 5.8781 37.1571 5.96067C37.2571 6.06283 37.3331 6.18818 37.4364 6.32573C37.5154 6.23537 37.5753 6.16692 37.6348 6.09855C37.7937 6.2576 37.9454 6.41056 38.0981 6.56247C38.3139 6.77658 38.5393 6.9825 38.7436 7.20712C38.8475 7.3214 38.915 7.46906 39.0084 7.61672C39.1262 7.44282 39.2648 7.51031 39.3723 7.63013C39.5435 7.82104 39.6944 8.02993 39.854 8.23096C39.8935 8.28072 39.9274 8.36787 39.9731 8.37437C40.2906 8.42019 40.3728 8.66383 40.4498 8.94936C40.6189 8.75548 40.7236 8.86325 40.8038 8.99912C40.9838 9.30359 41.1658 9.60774 41.3211 9.92473C41.3773 10.0393 41.3589 10.19 41.3747 10.3245C41.354 10.3271 41.3336 10.3294 41.3128 10.332C41.3698 10.3847 41.427 10.4374 41.4842 10.4902C41.6974 10.352 41.7553 10.3684 41.8415 10.6179C41.8994 10.7845 41.9218 10.9646 41.9889 11.1266C42.0751 11.3336 42.212 11.5209 42.2879 11.7308C42.3966 12.0307 42.4709 12.3433 42.5574 12.6512C42.6235 12.8869 42.6976 13.1213 42.746 13.3607C42.7789 13.5244 42.7927 13.6972 42.7808 13.8636C42.7568 14.208 42.6973 14.5498 42.6785 14.8943C42.6702 15.0475 42.6985 15.2158 42.7581 15.3573C42.9077 15.7132 43.0318 16.0622 43.0151 16.4623C43.0049 16.7063 43.1059 16.9525 43.1364 17.2003C43.1667 17.4459 43.1799 17.6944 43.1851 17.9422C43.193 18.3139 43.1871 18.6858 43.1871 19.0935C43.2502 19.084 43.3437 19.0851 43.4253 19.0548C43.7177 18.9471 44.0089 18.8748 44.3267 18.9384C44.455 18.9642 44.5965 18.9177 44.7285 18.9336C45.1638 18.9868 45.5224 19.2018 45.8488 19.4818C45.9464 19.5656 46.0535 19.6396 46.1594 19.7136C46.3048 19.8152 46.3703 19.9288 46.1867 20.1158C46.4429 20.0263 46.5127 20.1632 46.5394 20.3237C46.567 20.4899 46.5851 20.6619 46.5746 20.8292C46.5417 21.3373 46.4604 21.8439 46.4582 22.3518C46.4583 23.105 46.0605 23.734 45.8694 24.4267Z" fill="url(#paint0_linear)"/>
<defs>
<linearGradient id="paint0_linear" x1="23.7048" y1="0.52539" x2="18.2573" y2="34.6958" gradientUnits="userSpaceOnUse">
<stop stop-color="#4BB16B"/>
<stop offset="1" stop-color="#005085"/>
</linearGradient>
</defs>
</svg>
