<svg width="52" height="36" viewBox="0 0 52 36" fill="none" xmlns="http://www.w3.org/2000/svg">
<path d="M18.4143 32.1482C18.3344 32.1574 18.2011 32.1299 18.1834 32.1666C17.7304 33.0093 16.9398 32.7895 16.2381 32.8261C15.7496 32.8444 15.2611 32.8261 14.737 32.8261C14.7903 32.9635 14.8347 33.0643 14.8614 33.1742C15.0124 33.7971 14.5505 34.3467 13.911 34.3559C13.156 34.365 12.3921 34.4475 11.6371 34.4383C11.2285 34.4383 10.8199 34.3375 10.4113 34.2643C10.3136 34.2459 10.1893 34.1543 10.1448 34.0627C9.7629 33.3024 9.42537 32.533 9.46978 31.6353C9.51419 30.7284 9.17666 29.904 8.73255 29.1345C8.43943 28.6215 8.11078 28.1269 7.82655 27.6139C7.58672 27.1926 7.4979 26.7803 7.82655 26.304C8.02196 26.02 8.01308 25.5895 8.09302 25.2139C8.62596 22.6399 8.18184 20.0842 7.8976 17.5285C7.7999 16.6583 7.71108 15.7789 7.62225 14.8812C6.72514 15.788 6.39649 16.8964 6.69849 18.1147C6.97384 19.2598 7.25808 20.3865 7.24031 21.5773C7.22255 22.6949 6.95608 23.7117 6.36984 24.6826C5.76584 25.6811 4.91314 26.2399 3.88278 26.5971C3.2699 26.8078 2.67479 27.1651 2.05302 27.2292C1.5112 27.2842 0.942728 27.0093 0.392023 26.8628C0.347611 26.8536 0.329847 26.6429 0.320964 26.533C0.312082 26.2765 0.320964 26.02 0.320964 25.6903C1.13814 25.4979 2.07079 25.3697 3.03008 25.4521C3.80284 25.5254 4.43349 25.2231 4.9309 24.5544C5.90796 23.2445 5.97902 21.788 5.67702 20.2582C5.50825 19.3972 5.25955 18.5453 5.09078 17.6751C4.93978 16.9056 4.97531 16.1178 5.31284 15.4033C6.01455 13.8919 6.68072 12.3529 7.79102 11.098C7.7999 11.0888 7.80878 11.0797 7.81766 11.0614C8.72366 9.0919 10.4735 8.38656 12.3388 7.93771C13.8132 7.58046 15.3232 7.72702 16.7888 7.99267C19.4447 8.469 22.1094 8.62473 24.7829 8.30412C26.1242 8.13923 27.4476 7.74534 28.7711 7.43389C28.8599 7.41557 28.9932 7.1316 28.9488 7.04C28.8333 6.75603 28.6468 6.49955 28.4336 6.1423C29.3041 5.64764 30.2189 5.11635 31.1427 4.58505C31.1161 4.53925 31.0983 4.49345 31.0716 4.44765C30.8229 4.55757 30.5742 4.67666 30.2367 4.82322C30.2989 4.57589 30.3433 4.40185 30.3877 4.24612C31.3736 3.74231 32.4129 3.22018 33.4521 2.68888C33.4344 2.64308 33.4077 2.58812 33.3899 2.54232C33.2656 2.5698 33.1412 2.58812 32.8836 2.63392C33.1146 2.43239 33.2301 2.26751 33.3899 2.18507C34.1094 1.83698 34.8378 1.53469 35.6727 1.78202C35.7971 1.81866 36.0724 1.69041 36.1257 1.57133C36.2412 1.26904 36.4632 1.22324 36.7031 1.19576C37.2093 1.1408 37.7156 1.095 38.3463 1.04004C38.1065 0.948434 37.9643 0.902633 37.8311 0.856832C37.8311 0.829351 37.8311 0.80187 37.8311 0.77439C38.3019 0.811031 38.7726 0.847672 39.2523 0.884313C39.2612 0.856832 39.2701 0.829351 39.2701 0.80187C39.1901 0.756069 39.1102 0.710268 39.0658 0.682787C39.5898 0.636986 40.1849 0.444621 40.7179 0.563704C41.2863 0.691947 41.8015 1.10416 42.3522 1.40645C42.2989 1.33316 42.2368 1.25988 42.1302 1.13164C42.37 1.1866 42.5388 1.2324 42.7075 1.26904C42.7075 1.2324 42.7075 1.1866 42.6986 1.14996C42.894 1.12248 43.1161 1.02172 43.2671 1.095C43.6313 1.2782 43.9688 1.54385 44.3063 1.77286C44.4396 1.86446 44.5728 1.96522 44.706 2.06598C44.6794 1.7179 44.6616 1.39729 44.635 1.07668C44.6616 1.05836 44.6883 1.0492 44.7149 1.03088C44.8215 1.15912 44.937 1.28736 45.0347 1.42477C45.7719 2.53316 46.3759 3.70567 46.7756 4.99727C46.9178 5.44612 47.4063 5.77589 47.7083 6.17894C47.9747 6.53619 48.33 6.88428 48.4277 7.29649C48.6409 8.16671 49.2094 8.70717 49.7956 9.26594C50.1776 9.62319 50.5684 9.97128 50.9326 10.356C51.2346 10.6675 51.2701 11.0705 50.9414 11.3178C50.0976 11.9499 49.6002 13.0125 48.4722 13.3056C48.179 13.3789 47.957 13.7728 47.7083 14.0384C47.6905 14.0568 47.7527 14.2033 47.806 14.2491C48.1169 14.4873 48.0369 14.698 47.7793 14.8995C47.7705 14.9087 47.7527 14.9178 47.7438 14.927C47.202 15.4308 46.5269 15.8247 46.4115 16.7041C46.2605 16.6125 46.1628 16.5575 45.994 16.4567C46.1272 16.988 46.2338 17.446 46.3493 17.8949C46.3226 17.9041 46.3049 17.9041 46.2782 17.9132C46.1272 17.4644 45.9851 17.0155 45.8341 16.5667C45.8075 16.5758 45.7808 16.585 45.7542 16.5941C45.8963 17.3636 46.0384 18.1422 46.1805 18.9117C46.1628 18.9208 46.145 18.9208 46.1272 18.93C46.065 18.8018 46.0029 18.6735 45.9496 18.5544C45.9229 19.5163 45.541 20.304 44.9548 21.0735C44.6616 20.6705 44.404 20.2857 44.5284 19.8002C44.6439 19.3697 44.8393 18.9666 45.0169 18.4903C44.8126 18.5086 44.7149 18.5178 44.6083 18.527C44.4573 19.2781 44.2175 19.9743 43.7379 20.588C43.5869 20.7804 43.6046 21.1468 43.6313 21.4216C43.6846 21.9895 43.5336 22.5025 43.3204 23.0155C42.9296 23.9956 42.6365 25.0399 41.8903 25.8277C41.6683 26.0658 41.4107 26.249 41.1442 26.4781C40.7712 26.1391 40.3803 25.8185 40.0428 25.4521C39.954 25.3605 40.0073 25.0765 40.0606 24.9116C40.1583 24.6185 40.3182 24.3437 40.4958 23.9681C40.2738 23.9956 40.1405 24.0139 39.9895 24.0323C39.9984 23.9498 40.0073 23.8674 40.0251 23.7758C39.5454 23.9773 39.0746 23.7208 39.0569 23.162C38.9681 23.391 38.9059 23.5559 38.8082 23.7941C38.7016 23.6567 38.6305 23.5743 38.5595 23.4827C38.5239 23.5376 38.4884 23.5926 38.4529 23.6567C38.4262 23.6475 38.3907 23.6475 38.3641 23.6384C38.3996 22.8964 38.4262 22.1453 38.4618 21.3941C38.3108 21.3208 38.3108 21.3208 37.7512 21.9346C37.8045 21.7422 37.8578 21.559 37.9111 21.3483C37.8222 21.3392 37.7423 21.33 37.6357 21.3208C37.6979 21.1468 37.7512 21.0002 37.8045 20.8537C37.3959 20.7163 36.7119 21.0094 36.481 21.4674C36.1968 22.0353 35.9658 22.6307 35.7082 23.2078C34.8378 25.1681 34.3315 27.22 34.2071 29.3819C34.1716 30.0689 34.4913 31.5162 34.8733 32.1299C36.2234 31.7727 37.2005 32.3315 37.8045 33.449C37.6446 33.5956 37.5025 33.7513 37.3426 33.8795C37.2093 33.9895 37.0672 34.1727 36.9251 34.1818C36.4011 34.2093 36.481 34.3925 36.7563 34.6765C36.783 34.704 36.8008 34.7498 36.7919 34.7406C36.6231 34.8505 36.4455 34.933 36.3211 35.0612C36.0635 35.3269 35.7526 35.3543 35.4151 35.4459C34.4114 35.7024 33.4166 35.4551 32.4306 35.5009C31.8178 35.5284 31.3115 35.2994 31.0805 34.6307C30.9651 34.3009 30.7785 34.0811 30.3611 34.136C30.0768 34.1727 29.8903 33.962 30.0235 33.623C30.2722 33.0002 30.1834 32.3681 30.1035 31.736C29.9081 30.2429 29.6771 28.7498 29.535 27.2475C29.384 25.617 28.9576 24.0964 28.2915 22.6033C27.9984 21.9437 27.6786 21.7422 27.0302 21.7697C25.2448 21.8521 23.6194 21.1285 21.9761 20.5514C21.079 20.2399 20.1997 19.8735 19.3114 19.5346C18.7252 19.3147 18.4321 19.3605 18.0768 19.8644C17.1352 21.1743 16.1848 22.4842 15.341 23.8582C15.0568 24.3162 15.1012 24.9758 14.9324 25.5254C14.5416 26.817 14.968 28.0719 15.1278 29.3177C15.1989 29.8582 15.6608 30.3528 15.9894 30.8383C16.0427 30.9208 16.3092 30.8933 16.4691 30.8658C17.5172 30.6368 18.2278 31.104 18.4143 32.1482ZM13.6445 32.2765C13.4757 32.0658 13.2892 31.8826 13.1826 31.6628C12.9961 31.2689 12.854 30.8475 12.7296 30.4353C12.4898 29.6383 12.2233 28.8597 11.5305 28.2093C11.566 28.5574 11.5749 28.8231 11.6104 29.0887C11.7525 30.0689 12.2322 30.9116 12.6319 31.791C12.9339 32.4414 12.925 32.4505 13.6445 32.2765ZM47.9037 13.1407C47.4329 13.0491 47.0155 12.9667 46.598 12.9117C46.5003 12.9026 46.3404 12.9758 46.2871 13.0583C46.2338 13.1499 46.216 13.3423 46.2693 13.4247C46.4559 13.7087 46.6779 13.956 46.9177 14.2583C47.0687 14.0751 47.202 13.8919 47.353 13.7361C47.4685 13.6262 47.4773 13.2048 47.7882 13.5621C47.8326 13.4522 47.8593 13.3331 47.9037 13.1407Z" fill="url(#paint0_linear)"/>
<defs>
<linearGradient id="paint0_linear" x1="25.7454" y1="0.52539" x2="30.6687" y2="34.8583" gradientUnits="userSpaceOnUse">
<stop stop-color="#4BB16B"/>
<stop offset="1" stop-color="#005085"/>
</linearGradient>
</defs>
</svg>
