<svg width="44" height="36" viewBox="0 0 44 36" fill="none" xmlns="http://www.w3.org/2000/svg">
<path d="M43.3687 29.8249C43.3597 29.7133 43.3157 29.622 43.2353 29.5436C42.9768 29.2926 42.7176 29.0423 42.4642 28.7864C42.3736 28.6947 42.2678 28.6379 42.1485 28.6004C42.0734 28.5769 41.9969 28.5569 41.9208 28.5359C41.0625 28.3016 40.2165 28.0203 39.3408 27.8509C39.2825 27.8395 39.2262 27.8044 39.1753 27.7707C38.8509 27.5566 38.5278 27.3404 38.2056 27.1227C38.1598 27.0918 38.1098 27.0576 38.0808 27.0125C37.9653 26.8334 37.8477 26.6543 37.7488 26.4662C37.5395 26.0684 37.3714 25.6465 37.1331 25.268C36.6827 24.5527 36.2728 23.819 35.9365 23.0446C35.9007 22.9621 35.86 22.8819 35.8232 22.7998C35.7747 22.6923 35.7178 22.5875 35.6816 22.4761C35.5182 21.9744 35.3603 21.4709 35.2016 20.9676C35.0988 20.6413 35.0138 20.3086 34.8938 19.9889C34.6171 19.2519 34.2454 18.5567 33.9121 17.8447C33.8837 17.7839 33.8465 17.7223 33.8385 17.6578C33.807 17.4074 33.7649 17.1554 33.7655 16.9044C33.7664 16.4217 33.7885 15.9388 33.8119 15.4564C33.8457 14.7528 33.8011 14.0534 33.7126 13.356C33.6683 13.0085 33.5537 12.6804 33.4289 12.3544C33.3901 12.2523 33.373 12.1376 33.3676 12.0277C33.355 11.7645 33.358 11.5003 33.3505 11.2366C33.3347 10.6711 33.242 10.1203 33.0248 9.59445C32.9972 9.52774 32.9637 9.4622 32.9245 9.40148C32.8184 9.23589 32.7127 9.06833 32.515 9.01082C32.5 8.89529 32.564 8.83428 32.6268 8.78093C32.7794 8.65109 32.8318 8.65263 33.0098 8.76575C33.055 8.79465 33.0975 8.84406 33.1687 8.79582C33.1953 8.63475 33.2232 8.46711 33.2512 8.29947C33.2614 8.29677 33.2716 8.29378 33.2818 8.29115C33.3111 8.34384 33.3404 8.39654 33.37 8.44901C33.452 8.37158 33.4861 8.32217 33.5154 8.2697C33.6228 8.07914 33.7363 7.89421 33.8688 7.71796C34.1772 7.30737 34.349 6.84131 34.3337 6.32293C34.329 6.1639 34.378 6.06122 34.5112 5.97663C34.673 5.87388 34.7759 5.72207 34.8301 5.5359C34.8903 5.32988 34.9316 5.12261 34.9244 4.90615C34.9175 4.70392 34.9172 4.50176 34.9782 4.30493C35.0521 4.06643 35.1257 3.82763 35.1981 3.58884C35.222 3.54031 35.2377 3.48937 35.2436 3.43784C35.2649 3.36756 35.2858 3.29699 35.3067 3.22671C35.3352 3.13052 35.3545 3.03017 35.3642 2.93041C35.3836 2.73124 35.1942 2.44713 35.0057 2.38816C34.7379 2.30452 34.4749 2.30985 34.219 2.43844C34.0997 2.49858 33.9767 2.55185 33.8444 2.61323C33.7762 2.49712 33.7146 2.39232 33.6521 2.28569C33.7086 2.23482 33.7562 2.19162 33.8229 2.13148C33.7577 2.08565 33.7101 2.05084 33.6607 2.018C33.4782 1.89648 33.2829 1.79052 33.1156 1.6512C32.878 1.4532 32.6592 1.23287 32.4361 1.01845C32.2527 0.842128 32.0214 0.754332 31.7922 0.661135C31.7844 0.657851 31.7716 0.666828 31.7607 0.670112C31.7449 0.70164 31.729 0.732949 31.7093 0.771337C31.4834 0.62844 31.2494 0.615595 31.0005 0.647196C30.7375 0.680548 30.4721 0.679673 30.2106 0.613844C30.0807 0.581075 29.9479 0.560276 29.8145 0.533419C29.7993 0.563195 29.7858 0.581659 29.7804 0.602167C29.7738 0.627199 29.7734 0.653983 29.769 0.693612C29.5793 0.604867 29.4005 0.52685 29.1895 0.525391C29.1882 0.711784 29.0647 0.754989 28.9238 0.780605C28.8463 0.794545 28.7691 0.811549 28.6922 0.829722C28.6375 0.842566 28.5798 0.851178 28.5303 0.875553C28.2156 1.03129 27.926 1.22484 27.6647 1.45947C27.613 1.50589 27.5669 1.55924 27.5172 1.6104C27.4642 1.5461 27.4233 1.49611 27.3649 1.42488C27.2402 1.60084 27.1277 1.75899 27.0134 1.92006C26.9696 1.88138 26.9338 1.84978 26.8898 1.8108C26.5208 2.07018 26.4128 2.48106 26.2419 2.87917C26.0923 2.77583 25.9491 2.68862 25.8198 2.58411C25.6968 2.48435 25.5553 2.43465 25.4084 2.39684C25.2322 2.35159 25.1026 2.45764 25.1003 2.63089C25.0996 2.68212 25.105 2.73598 25.117 2.78809C25.1194 2.80627 25.1243 2.82415 25.1317 2.84108C25.1392 2.8637 25.1482 2.88545 25.1589 2.90603C25.2741 3.13023 25.4123 3.34253 25.529 3.56585C25.5386 3.58432 25.5482 3.60278 25.5578 3.62154C25.5584 3.62329 25.559 3.62475 25.5596 3.62657C25.664 3.92433 25.707 4.18634 25.7095 4.49008C25.7098 4.54664 25.7298 4.59934 25.7621 4.64196C25.7645 4.69078 25.7664 4.73931 25.7675 4.78814C25.7741 5.07787 25.7926 5.35921 25.9434 5.61676C25.9823 5.68318 25.9637 5.73346 25.8901 5.76419C25.8121 5.79666 25.7357 5.83264 25.6582 5.86629C25.1672 6.07888 24.6777 6.29476 24.1846 6.50261C23.8729 6.6339 23.5644 6.76673 23.3166 7.00669C23.2643 7.05763 23.2053 7.10171 23.1485 7.14783C22.9761 7.28803 22.7807 7.37502 22.5678 7.44559C21.7862 7.7046 20.9831 7.88625 20.1941 8.11673C19.5346 8.3094 18.868 8.47791 18.2501 8.79085C18.0194 8.90792 17.7774 9.00315 17.541 9.1092C17.4899 9.13211 17.4369 9.15386 17.3903 9.18451C16.9385 9.4814 16.4721 9.75617 16.0546 10.1034C15.8646 10.2616 15.675 10.4268 15.4631 10.5519C14.7151 10.9938 13.9985 11.4821 13.2879 11.9794C13.0572 12.1408 12.8342 12.3132 12.6048 12.476C12.5374 12.5237 12.4644 12.5731 12.3864 12.5946C11.8609 12.7404 11.3724 12.9655 10.9071 13.2466C10.507 13.4884 10.1016 13.7219 9.69655 13.9551C9.62504 13.9962 9.54423 14.0292 9.46378 14.0464C8.49885 14.2519 7.53692 14.4696 6.60279 14.7894C6.12406 14.9534 5.64262 15.1232 5.18934 15.3447C4.6334 15.6165 4.11221 15.9518 3.63377 16.3532C3.33068 16.6075 3.04644 16.8722 2.78794 17.1726C2.48815 17.521 2.25208 17.9013 2.03575 18.3048C1.70809 18.916 1.50855 19.572 1.33914 20.2322C1.18653 20.8267 1.05189 21.4333 1.03217 22.0548C1.02381 22.3185 0.984938 22.5816 0.985231 22.8449C0.985524 23.1251 1.01544 23.4052 1.03341 23.6852C1.04177 23.8142 1.03994 23.9449 1.06392 24.071C1.16116 24.5897 1.26801 25.1062 1.48493 25.5924C1.56032 25.7611 1.61151 25.9413 1.69313 26.107C1.95735 26.643 2.27064 27.1483 2.66767 27.5986C2.72722 27.6662 2.77686 27.7422 2.83612 27.8095C2.94766 27.9357 3.05693 28.0651 3.17808 28.1814C3.51079 28.5004 3.84916 28.8133 4.19031 29.1334C4.18195 29.1453 4.17293 29.1671 4.1568 29.1807C3.96503 29.3459 3.77978 29.5201 3.57753 29.6718C3.23946 29.9248 2.89119 30.1643 2.54586 30.4079C2.29784 30.5829 2.106 30.7946 2.07645 31.112C2.05643 31.3291 2.06596 31.5471 2.22663 31.7132C2.43065 31.9244 2.66649 32.1 2.93035 32.2325C3.68555 32.611 4.44493 32.9816 5.198 33.3649C5.47476 33.5057 5.72278 33.6858 5.91249 33.9432C6.16623 34.287 6.43133 34.6232 6.70362 34.9528C6.79822 35.0675 6.92502 35.1571 7.04353 35.2505C7.16798 35.3489 7.31465 35.3087 7.45163 35.2893C7.53597 35.2773 7.59405 35.1722 7.58026 35.0815C7.57036 35.0153 7.55064 34.9502 7.5315 34.8857C7.4773 34.7027 7.42318 34.5198 7.3651 34.3379C7.34112 34.2631 7.36869 34.2352 7.4498 34.2274C7.47488 34.2772 7.50128 34.3257 7.5246 34.3754C7.67149 34.6909 7.81691 35.0075 7.96563 35.3226C7.98896 35.3718 8.01741 35.4289 8.06046 35.4566C8.19422 35.543 8.33216 35.601 8.50384 35.5372C8.69685 35.4658 8.7564 35.4077 8.76894 35.2031C8.77019 35.1841 8.77701 35.1656 8.77943 35.1549C8.88085 35.1898 8.96731 35.2318 9.05861 35.2484C9.32217 35.2963 9.54152 35.132 9.45322 34.8616C9.417 34.7506 9.40621 34.6308 9.38861 34.5143C9.33567 34.1654 9.23931 33.8236 9.23725 33.4659C9.2352 33.1066 9.21929 32.7475 9.20433 32.3883C9.19413 32.1418 9.1065 31.9406 8.85276 31.8477C8.77884 31.8206 8.70792 31.7851 8.63378 31.7602C8.40938 31.6848 8.1874 31.5997 7.95845 31.5421C7.48603 31.4236 7.06113 31.2164 6.68177 30.9139C6.63572 30.8773 6.58695 30.8445 6.53789 30.809C6.71976 30.6203 6.71976 30.6206 6.93492 30.7067C6.96631 30.7192 6.99777 30.7335 7.0304 30.7409C7.51331 30.8522 7.99446 30.9728 8.4803 31.0702C8.895 31.1533 9.31535 31.2099 9.74084 31.1855C10.0275 31.1691 10.3148 31.151 10.5999 31.1185C11.0307 31.0693 11.4592 31.0107 11.876 30.8758C12.1997 30.771 12.5028 30.6245 12.8119 30.489C13.3792 30.24 13.8875 29.8992 14.3605 29.5044C14.6675 29.2479 14.953 28.9702 15.2207 28.6715C15.7393 28.0924 16.2339 27.4938 16.712 26.8822C16.9421 26.5877 17.2033 26.3263 17.4786 26.0761C17.5689 25.994 17.6739 25.9374 17.7891 25.8912C17.7693 25.9609 17.7401 26.02 17.7086 26.0777C17.5199 26.4228 17.3053 26.7567 17.1479 27.1154C16.9406 27.5877 16.7694 28.0766 16.5992 28.5641C16.4532 28.9819 16.446 29.4115 16.5588 29.84C16.5732 29.8944 16.6145 29.9469 16.6555 29.9879C16.7363 30.0688 16.8403 30.1077 16.9508 30.1407C17.1494 30.1996 17.343 30.1669 17.5358 30.1273C18.0049 30.0305 18.4714 29.9221 18.9411 29.8282C19.1452 29.7874 19.3552 29.7428 19.5605 29.7514C19.8806 29.7648 20.2005 29.8112 20.5173 29.8628C20.9966 29.9407 21.4769 30.0031 21.9628 30.0191C22.3138 30.0307 22.6289 29.9143 22.9248 29.7445C23.0963 29.6463 23.1136 29.4054 22.9592 29.3157C22.8497 29.252 22.7237 29.2071 22.5993 29.1804C22.3848 29.1339 22.163 29.1208 21.9497 29.0702C21.748 29.0226 21.5511 28.9501 21.3563 28.8777C21.2591 28.8418 21.2546 28.7238 21.3426 28.6685C21.3896 28.639 21.4434 28.6124 21.4972 28.6036C21.6696 28.5749 21.8425 28.5451 22.0166 28.5339C22.4556 28.5055 22.8954 28.4889 23.3343 28.4636C23.5135 28.4535 23.659 28.5074 23.7933 28.6299C24.138 28.9451 24.4908 29.2511 24.8424 29.5588C25.0016 29.6977 25.1847 29.7546 25.4016 29.7481C25.6353 29.7409 25.8046 29.5432 25.6867 29.3132C25.6347 29.2113 25.6042 29.0984 25.5629 28.987C25.8481 28.9338 25.9911 28.5589 25.813 28.3269C25.4327 27.8301 25.0342 27.3505 24.5722 26.9265C24.4459 26.8107 24.2937 26.7331 24.1216 26.7178C23.8951 26.6979 23.6678 26.7229 23.4516 26.7875C22.835 26.9715 22.2042 27.093 21.5774 27.2318C21.5175 27.245 21.4547 27.2538 21.3937 27.2521C21.2411 27.2469 21.1905 27.174 21.2411 27.0306C21.2991 26.8665 21.3649 26.705 21.4272 26.5427C21.6381 25.9928 21.9281 25.4871 22.3087 25.0369C22.6184 24.671 22.9005 24.286 23.1581 23.8828C23.3499 23.5831 23.5654 23.3012 23.8278 23.0608C23.9914 22.9106 24.0952 22.7308 24.17 22.5295C24.1961 22.4595 24.2074 22.3841 24.2287 22.299C24.2616 22.3231 24.285 22.3374 24.3047 22.3556C24.565 22.5965 24.8297 22.8322 25.0518 23.1113C25.199 23.2959 25.3534 23.4754 25.5107 23.6517C25.8285 24.0072 26.0775 24.4039 26.2752 24.8367C26.3893 25.0866 26.5313 25.3237 26.6576 25.5681C26.7746 25.7946 26.9433 25.9701 27.1684 26.09C27.2468 26.1316 27.304 26.1894 27.3386 26.2695C27.4284 26.4753 27.5166 26.6816 27.6067 26.8871C27.6303 26.941 27.6572 26.9935 27.6869 27.0554C27.7323 27.0193 27.7599 26.9976 27.791 26.9731C27.8577 27.1071 27.9176 27.234 27.9828 27.3581C28.1351 27.6467 28.3703 27.8568 28.6608 27.9919C28.9049 28.1051 29.1632 28.1915 29.4211 28.27C29.906 28.4174 30.3947 28.5541 30.8839 28.6872C31.0029 28.7196 31.0783 28.7709 31.1217 28.8911C31.2683 29.2996 31.4786 29.6782 31.6965 30.0523C31.7926 30.2177 31.9215 30.3459 32.1174 30.3906C32.3269 30.4386 32.4783 30.3309 32.4792 30.1201C32.4795 30.0206 32.4657 29.9175 32.4388 29.8216C32.3407 29.4702 32.2338 29.1212 32.1312 28.7712C32.116 28.7196 32.1053 28.6668 32.0923 28.6148C32.1055 28.6088 32.1187 28.6031 32.1322 28.5972C32.1636 28.6508 32.2018 28.7017 32.2252 28.7586C32.4111 29.2103 32.5912 29.6647 32.7802 30.1152C32.8206 30.2111 32.8802 30.3054 32.9511 30.3814C33.1396 30.5824 33.4986 30.5606 33.6646 30.3379C33.721 30.2622 33.7748 30.2262 33.8699 30.2236C33.9938 30.2199 34.0859 30.1551 34.1084 30.0258C34.1275 29.9163 34.1464 29.8049 34.1452 29.6944C34.1442 29.6066 34.15 29.5372 34.2128 29.4646C34.2688 29.3999 34.3172 29.3104 34.3256 29.2276C34.3408 29.0725 34.3415 28.9113 34.3187 28.7571C34.2517 28.3021 34.1718 27.849 34.0931 27.3958C34.0829 27.3366 34.0557 27.2791 34.0294 27.224C33.939 27.0361 33.7817 26.9277 33.5923 26.8501C32.628 26.4536 31.6809 26.0189 30.7429 25.5642C30.6723 25.53 30.6028 25.4914 30.5382 25.4469C30.2782 25.2684 30.0201 25.0873 29.7624 24.9051C29.7124 24.8697 29.6625 24.8303 29.6238 24.7835C29.3791 24.4876 29.1783 24.1631 28.9989 23.8245C28.7086 23.2771 28.4836 22.7031 28.2715 22.1221C27.8727 21.0306 27.495 19.9309 27.022 18.8676C26.9855 18.7857 26.9472 18.7042 26.9042 18.6255C26.6429 18.1469 26.3797 17.6697 26.1182 17.1915C26.0975 17.1537 26.0837 17.1124 26.0598 17.057C26.3085 16.931 26.5424 16.7956 26.7898 16.6907C27.4807 16.398 28.1563 16.0764 28.8023 15.695C28.8381 15.6738 28.8813 15.6641 28.9264 15.6471C28.9489 15.7016 28.9674 15.7421 28.9821 15.7837C29.1888 16.3774 29.3893 16.9736 29.5371 17.5852C29.5633 17.6939 29.5954 17.8029 29.605 17.9136C29.6367 18.2716 29.6639 18.6298 29.6834 18.9883C29.6977 19.2521 29.6876 19.5153 29.5861 19.7662C29.5631 19.8234 29.5437 19.8824 29.5278 19.942C29.5206 19.9691 29.5266 19.9997 29.5266 20.0453C29.71 19.9773 29.8084 19.8171 29.9978 19.744V20.3451C30.1082 20.3224 30.1926 20.3054 30.2883 20.2858C30.3545 20.5631 30.4173 20.8299 30.4816 21.0967C30.5481 21.3732 30.6758 21.6222 30.8341 21.8566C30.8471 21.8755 30.8769 21.8831 30.9075 21.9009C30.9721 21.7707 30.8853 21.6094 31.0211 21.4945C31.0942 21.6212 31.1576 21.7395 31.2285 21.853C31.5502 22.3671 31.8517 22.8963 32.3077 23.3123C32.3529 23.3536 32.3882 23.4061 32.4265 23.4546C32.7215 23.831 33.0094 24.2133 33.3118 24.5838C33.8073 25.1903 34.2552 25.8293 34.6801 26.4858C35.0957 27.1278 35.5215 27.7631 35.9428 28.4013C36.1636 28.5973 36.1614 28.8568 36.1358 29.1155C36.1062 29.413 36.1158 29.7085 36.128 30.0063C36.1358 30.1947 36.1893 30.3427 36.3303 30.4627C36.3815 30.5062 36.4314 30.5532 36.4882 30.588C37.0253 30.9188 37.5659 31.2437 38.1008 31.5781C38.3104 31.7091 38.5222 31.8434 38.7059 32.0063C38.8833 32.1637 39.0883 32.2031 39.3048 32.2466C39.565 32.2986 39.7582 31.9699 39.7085 31.7875C39.6681 31.6391 39.5964 31.4894 39.5018 31.3681C39.3857 31.2193 39.2408 31.088 39.0916 30.9704C38.9333 30.8456 38.7574 30.7422 38.5853 30.636C38.4773 30.5693 38.3866 30.4916 38.3232 30.3567C38.3735 30.3293 38.4171 30.2874 38.4644 30.2831C38.5591 30.2746 38.6589 30.2713 38.7504 30.2924C39.3106 30.4204 39.8695 30.5541 40.4275 30.6905C40.497 30.7074 40.564 30.7435 40.6256 30.781C40.9095 30.9537 41.1881 31.1356 41.4751 31.3032C41.6543 31.4077 41.8442 31.4938 42.0307 31.5854C42.1515 31.6447 42.2816 31.6472 42.4115 31.6289C42.664 31.5939 42.7544 31.4077 42.6267 31.1913C42.5968 31.1411 42.5646 31.0919 42.5231 31.026C42.6575 31.0683 42.7652 31.12 42.8778 31.1344C43.1608 31.1703 43.3836 31.0314 43.3499 30.7457C43.346 30.7125 43.3595 30.6592 43.3837 30.6434C43.4818 30.5784 43.5348 30.4837 43.5827 30.3834V30.2486C43.5296 30.1461 43.4994 30.032 43.4068 29.9499C43.3768 29.9253 43.372 29.8681 43.3687 29.8249ZM7.02498 25.8294C6.64144 26.217 6.24198 26.5895 5.92841 27.0418C5.7172 27.3467 5.48466 27.637 5.2615 27.9335C5.22858 27.9773 5.19272 28.0191 5.143 28.0804C4.92065 27.8827 4.69265 27.7071 4.49795 27.5001C4.21246 27.1972 3.95102 26.8723 3.67932 26.5565C3.65746 26.5308 3.63414 26.5059 3.61559 26.4778C3.27275 25.9523 3.00464 25.3905 2.82182 24.7916C2.75692 24.5784 2.73924 24.3509 2.70301 24.1294C2.59741 23.4811 2.62667 22.8323 2.68204 22.1815C2.7413 21.485 2.89896 20.8075 3.06653 20.1323C3.11471 19.9379 3.21254 19.7562 3.28016 19.5658C3.44531 19.1015 3.7242 18.6968 3.96415 18.2719C3.98299 18.2382 4.01145 18.2088 4.03895 18.1814C4.27442 17.947 4.5099 17.7127 4.74802 17.481C4.79172 17.4387 4.84438 17.4033 4.89791 17.3735C5.23723 17.1838 5.57684 16.995 5.91821 16.8095C5.99155 16.7696 6.07112 16.7375 6.15156 16.7142C6.44901 16.6273 6.74491 16.5332 7.04705 16.4655C7.33254 16.4018 7.62661 16.3786 7.91298 16.3184C8.25017 16.2475 8.57123 16.3443 8.92279 16.3666C8.85606 16.5429 8.82137 16.7067 8.6948 16.8308C8.6266 16.8978 8.56133 16.9681 8.49768 17.0395C8.47766 17.0619 8.46746 17.0928 8.44231 17.139C8.61376 17.1307 8.71042 16.997 8.87285 16.9648C8.72384 17.2816 8.60746 17.5886 8.53354 17.9481C8.71907 17.8557 8.77378 17.6848 8.9291 17.5848C8.86655 17.8474 8.76872 18.0853 8.82079 18.3456C8.88334 18.3538 8.93717 18.3611 9.00838 18.3706C8.99818 18.5627 8.98836 18.7503 8.97699 18.9644C9.0754 18.95 9.15321 18.9387 9.24121 18.9259C9.17301 19.3191 9.10657 19.7017 9.04013 20.0845C9.0515 20.0929 9.06257 20.1012 9.07394 20.1096C9.12424 20.085 9.17418 20.0598 9.23821 20.0284C9.27678 20.2016 9.24151 20.3735 9.25801 20.5417C9.27385 20.7076 9.30105 20.8722 9.3232 21.0377C9.45425 21.0585 9.46056 20.9196 9.55567 20.8931C9.66574 21.1905 9.54548 21.4889 9.56168 21.8058C9.64968 21.7884 9.72207 21.7741 9.81747 21.7555C9.74539 21.909 9.68283 22.0427 9.61016 22.1977C9.77054 22.2128 9.84292 22.0758 9.98174 22.0601C9.99905 22.1241 10.0203 22.1914 10.035 22.2598C10.1023 22.5725 10.1696 22.8843 10.1616 23.208C10.1559 23.4327 10.067 23.6242 9.93268 23.7903C9.74091 24.0272 9.51079 24.2217 9.24275 24.3772C8.85797 24.6006 8.48844 24.8494 8.10636 25.0778C7.76734 25.2806 7.44151 25.5013 7.12977 25.743C7.09376 25.7712 7.05636 25.7975 7.02498 25.8294ZM19.2618 23.2719C19.0676 23.6202 18.8735 23.9689 18.6826 24.3192C18.6419 24.3941 18.5901 24.434 18.5049 24.4551C18.2646 24.515 18.027 24.5858 17.7885 24.6539C17.7509 24.6645 17.7135 24.6779 17.6778 24.6944C17.1973 24.915 16.7757 25.2232 16.379 25.5673C16.3368 25.6039 16.3015 25.6487 16.2656 25.6922C15.7854 26.2733 15.3066 26.8554 14.8247 27.4352C14.7388 27.5385 14.6424 27.6339 14.547 27.7288C14.4713 27.8042 14.3872 27.8711 14.3113 27.9462C13.8409 28.4107 13.3179 28.8127 12.7706 29.1796C12.5163 29.3497 12.2288 29.4791 11.9431 29.5934C11.4916 29.7741 11.0155 29.8736 10.5314 29.9188C10.0485 29.9638 9.56432 29.9665 9.07848 29.9379C8.70595 29.9162 8.36193 29.7979 8.01059 29.6976C7.98038 29.689 7.95163 29.6744 7.91753 29.6606C7.93065 29.6366 7.9352 29.6185 7.94657 29.6092C8.2248 29.3814 8.48748 29.1366 8.79659 28.9446C9.92696 28.2423 11.0996 27.6186 12.3045 27.0542C12.5238 26.9514 12.7455 26.8541 12.969 26.7608C13.2299 26.6522 13.4466 26.4833 13.6225 26.2689C13.7814 26.0757 13.8669 25.8405 13.9367 25.6025C14.1072 25.021 14.2862 24.4413 14.4367 23.8547C14.5228 23.5187 14.5647 23.1714 14.6179 22.8274C14.7349 22.0719 14.7801 21.3096 14.825 20.5478C14.8265 20.5216 14.8327 20.4959 14.8402 20.4472C14.8824 20.485 14.9117 20.5073 14.9359 20.5339C15.2112 20.8352 15.3725 21.1835 15.3802 21.5962C15.3808 21.6353 15.3988 21.6737 15.4191 21.7534C15.5005 21.6451 15.5559 21.5716 15.6225 21.4822C15.6684 21.5369 15.7048 21.5837 15.7446 21.6274C15.8357 21.7269 15.9248 21.8281 16.0208 21.9229C16.1154 22.0157 16.1222 22.0122 16.2267 21.9189C16.2515 21.8966 16.2769 21.8751 16.3077 21.848C16.3538 21.8721 16.3999 21.8928 16.4418 21.9189C16.7102 22.0873 17.0034 22.2035 17.2915 22.332C17.5015 22.4255 17.7154 22.4395 17.9365 22.4189C18.0766 22.4058 18.2157 22.3822 18.3554 22.364C18.3754 22.3615 18.3961 22.3637 18.4329 22.3637C18.3713 22.4539 18.2552 22.4635 18.1995 22.5827C18.3075 22.5827 18.3901 22.5939 18.4685 22.5805C18.6758 22.5451 18.873 22.597 19.0699 22.6415C19.1998 22.671 19.283 22.7661 19.3117 22.8964C19.3417 23.0265 19.328 23.1527 19.2618 23.2719Z" fill="url(#paint0_linear)"/>
<defs>
<linearGradient id="paint0_linear" x1="22.2839" y1="0.52539" x2="28.1119" y2="34.5665" gradientUnits="userSpaceOnUse">
<stop stop-color="#4BB16B"/>
<stop offset="1" stop-color="#005085"/>
</linearGradient>
</defs>
</svg>
