<svg width="52" height="28" viewBox="0 0 52 28" fill="none" xmlns="http://www.w3.org/2000/svg">
<path d="M50.8445 8.74696C50.5772 8.82291 50.381 9.13952 50.4731 9.42349C50.5032 9.51557 50.526 9.60876 50.5422 9.70415C50.553 9.831 50.5526 9.95785 50.541 10.0843C50.5165 10.2311 50.4778 10.374 50.4264 10.5132C50.3816 10.6139 50.3307 10.712 50.2721 10.8047C50.254 10.8335 50.2356 10.862 50.2164 10.89C50.212 10.896 50.2063 10.9042 50.1998 10.9128C50.1658 10.9551 50.1311 10.9967 50.0939 11.0359C50.048 11.085 50.0002 11.1329 49.9499 11.1773C49.9395 11.1863 49.929 11.1957 49.9188 11.2047C49.9055 11.2148 49.8907 11.226 49.8813 11.2327C49.7832 11.3016 49.6809 11.3611 49.5738 11.4123C49.4267 11.4703 49.2748 11.5127 49.1194 11.54C48.9386 11.5591 48.7575 11.5584 48.5767 11.5393C48.3836 11.5063 48.1948 11.4529 48.0126 11.3791C47.8677 11.3106 47.7277 11.2298 47.5976 11.1341C47.5823 11.1228 47.5675 11.1116 47.5524 11.1004C47.5284 11.0801 47.5046 11.0596 47.4815 11.0387C47.5324 11.0091 47.5827 10.9784 47.6314 10.9455C48.0607 10.6566 48.4504 10.2487 48.6525 9.75505C48.7783 9.44779 48.8644 9.14769 48.8814 8.81163C48.8955 8.53363 48.8637 8.23086 48.7587 7.97194C48.6478 7.69843 48.51 7.44051 48.2869 7.24588C48.074 7.05988 47.8368 6.90799 47.5642 6.83388C47.0287 6.68832 46.4375 6.82526 46.0528 7.25184C45.6941 7.64963 45.5347 8.1728 45.4975 8.70679C45.4631 9.1974 45.5436 9.71791 45.7017 10.1808C45.7078 10.1984 45.714 10.216 45.7205 10.2336C45.6486 10.213 45.5774 10.1887 45.5077 10.1609C45.4074 10.1134 45.3101 10.0596 45.2177 9.99701C45.1862 9.97564 45.1551 9.95399 45.1244 9.93152C45.1052 9.91428 45.035 9.85558 45.0141 9.8354C44.9627 9.78633 44.9128 9.73588 44.8662 9.68195C44.8459 9.65875 44.7859 9.57941 44.7733 9.56446C44.7679 9.55621 44.7621 9.54758 44.7566 9.53942C44.654 9.3126 44.5975 9.06936 44.573 8.81346C44.5639 8.71991 44.5831 8.68395 44.676 8.65781C45.2328 8.50134 45.5651 7.98423 45.5007 7.40612C45.415 6.63595 44.8131 6.096 44.0617 6.10462C43.8448 6.10719 43.6282 6.14314 43.4109 6.16002C43.3805 6.16222 43.3429 6.15139 43.3176 6.13305C43.1469 6.0084 42.9861 5.86734 42.8081 5.75544C42.174 5.35765 41.5282 4.97931 40.8983 4.57446C40.3083 4.19502 39.7373 3.78411 39.1499 3.40018C38.187 2.77153 37.1758 2.2435 36.096 1.85956C35.1173 1.51158 34.1121 1.30237 33.0806 1.22716C32.513 1.18561 31.945 1.15121 31.3773 1.11297C30.7652 1.07178 30.1537 1.02244 29.5413 0.990246C28.8991 0.956584 28.2558 0.928885 27.613 0.91687C26.7452 0.90036 25.8775 0.899627 25.0094 0.895591C24.1474 0.891831 23.2855 0.903754 22.4238 0.887703C21.5803 0.872019 20.737 0.830104 19.8936 0.798644C19.835 0.796443 19.7764 0.787821 19.7182 0.782227H19.0974C19.0569 0.787821 19.0168 0.795709 18.9763 0.798644C18.679 0.818456 18.3818 0.832763 18.085 0.857803C17.5535 0.902745 17.0318 1.00896 16.5155 1.14443C15.7739 1.33905 15.0548 1.60357 14.3461 1.89891C13.2929 2.33788 12.2678 2.84078 11.2522 3.36468C10.8255 3.58472 10.405 3.81787 9.97507 4.03121C9.41322 4.31003 8.84048 4.56556 8.28041 4.84852C7.23435 5.37692 6.23171 5.98281 5.28305 6.68254C4.79529 7.04217 4.32703 7.42611 3.8888 7.84857C3.7059 8.02486 3.533 8.21233 3.35514 8.39458C3.30711 8.44365 3.26227 8.48666 3.18012 8.46795C2.69458 8.35752 2.21222 8.23554 1.7577 8.02192C1.6673 7.97927 1.58666 7.90626 1.51258 7.83555C1.43955 7.76557 1.38815 7.67055 1.31301 7.60387C1.19115 7.49573 1.06718 7.38236 0.926538 7.30642C0.738843 7.20571 0.541134 7.3 0.469175 7.50545C0.437715 7.59561 0.421144 7.69403 0.414231 7.78987C0.405192 7.91901 0.412104 8.04962 0.412104 8.18243C0.389684 8.18087 0.366554 8.17794 0.343425 8.17757C0.157591 8.17564 0.0469056 8.28718 0.0607301 8.47951C0.0671993 8.57196 0.0925444 8.66552 0.124713 8.75274C0.218029 9.00717 0.363364 9.23244 0.546628 9.4222C0.833754 9.71974 1.07196 10.0539 1.3037 10.3964C1.37566 10.503 1.46463 10.5995 1.55609 10.6898C1.81999 10.9502 2.1454 11.0845 2.49758 11.156C2.64902 11.1866 2.80234 11.2125 2.88989 11.3663C2.90655 11.3955 2.91267 11.4351 2.91196 11.4699C2.90983 11.5826 2.8859 11.6971 2.89999 11.8071C2.93358 12.066 2.97842 12.3239 3.02947 12.5798C3.11835 13.0263 3.2402 13.467 3.25287 13.927C3.26121 14.2346 3.22647 14.5322 3.02433 14.778C2.94076 14.8797 2.84789 14.9738 2.70539 14.9862C2.46496 15.0066 2.32326 15.1395 2.28737 15.3891C2.27869 15.4491 2.24652 15.4752 2.1836 15.4718C2.02922 15.464 1.90454 15.5227 1.81122 15.6553C1.7483 15.7443 1.65685 15.7907 1.5498 15.7805C1.42139 15.7686 1.29377 15.7457 1.16581 15.7267C0.870442 15.6825 0.84616 15.8113 0.904737 16.0422C0.965087 16.2801 1.04396 16.5128 1.10865 16.7494C1.12894 16.8234 1.13905 16.9031 1.13976 16.9806C1.14268 17.2302 1.12026 17.4817 1.14233 17.7294C1.18424 18.201 1.44496 18.5186 1.94353 18.4902C2.06175 18.4834 2.15976 18.5123 2.25627 18.58C2.41099 18.6883 2.55739 18.802 2.64211 18.9897C2.57742 19.0437 2.51193 19.0949 2.44937 19.1502C2.35392 19.2344 2.34054 19.3348 2.42588 19.4275C2.65443 19.676 2.93137 19.8326 3.26581 19.8653C3.51209 19.8897 3.75322 19.8436 3.99435 19.801C4.40297 19.7292 4.81221 19.7143 5.20887 19.8538C5.93413 20.1093 6.67428 20.2762 7.44083 20.3155C7.81684 20.335 8.19037 20.3151 8.56168 20.2632C9.07727 20.191 9.57336 20.0453 10.042 19.8078C10.2832 19.6854 10.5348 19.6689 10.7781 19.7704C11.0001 19.8628 11.2099 19.9893 11.4213 20.1075C11.6777 20.2508 11.9362 20.359 12.237 20.27C12.407 20.2194 12.4728 20.2557 12.5783 20.4132C12.8 20.7429 12.8546 21.1201 12.864 21.5078C12.8712 21.7948 12.8561 22.0827 12.8679 22.3693C12.8791 22.6336 12.9124 22.8969 12.9366 23.1608C12.942 23.2199 12.9677 23.2835 12.9536 23.3367C12.8387 23.7729 12.7233 24.2097 12.5938 24.6416C12.4904 24.9866 12.3274 25.2938 12.0406 25.524C11.9333 25.6101 11.8497 25.7385 11.7814 25.8626C11.7275 25.9605 11.6802 26.0642 11.6302 26.1657C11.4798 26.4718 11.307 26.7592 11.0597 27.0254C11.1638 27.0746 11.252 27.1338 11.3486 27.1596C11.9394 27.3172 12.5132 27.2447 13.0573 26.9743C13.2197 26.8939 13.357 26.8508 13.5317 26.9134C13.6583 26.9587 13.7761 26.9085 13.8517 26.7839C13.8842 26.7299 13.9233 26.6769 13.9425 26.6178C13.9939 26.4576 14.0444 26.2962 14.0803 26.1319C14.1511 25.809 14.215 25.4845 14.2755 25.1593C14.3676 24.6639 14.4953 24.1834 14.7516 23.7463C14.8916 23.5075 15.0232 23.2618 15.0843 22.9848C15.1081 22.8762 15.123 22.7655 15.1422 22.6551C15.157 22.6535 15.1686 22.6506 15.1801 22.6521C15.3974 22.6741 15.5366 22.804 15.6079 23.0081C15.6654 23.1734 15.7058 23.3452 15.7525 23.5144C15.8288 23.7916 15.9394 24.0446 16.1701 24.2271C16.2764 24.3113 16.3867 24.4019 16.4622 24.5134C16.7537 24.9449 17.138 25.2088 17.6457 25.2749C17.6692 25.2779 17.6912 25.2997 17.7126 25.3151C17.7776 25.3619 17.8377 25.4179 17.9071 25.4557C18.1931 25.6113 18.4813 25.763 18.7705 25.9124C18.7904 25.9224 18.8367 25.9127 18.8496 25.8955C18.8999 25.8288 18.9574 25.7607 18.9845 25.6832C19.1501 25.2051 19.0598 24.7653 18.7686 24.3687C18.6931 24.2654 18.5821 24.1903 18.4812 24.0962C18.513 24.0814 18.5481 24.0592 18.586 24.0477C18.679 24.0192 18.7751 24.0017 18.8662 23.9691C18.9924 23.9245 19.0289 23.8371 18.974 23.7124C18.885 23.5107 18.7296 23.3786 18.534 23.3C18.4057 23.2485 18.2703 23.2147 18.141 23.1664C18.1077 23.154 18.0784 23.1192 18.056 23.0878C17.9812 22.9842 17.923 22.8633 17.834 22.7754C17.7309 22.6733 17.6022 22.5991 17.4851 22.5124C17.4192 22.4633 17.3669 22.4076 17.3582 22.3148C17.3332 22.0457 17.4294 21.838 17.646 21.6905C17.7715 21.6052 17.8984 21.5221 18.0274 21.4428C18.3525 21.2434 18.6258 20.9912 18.8145 20.6468C18.8905 20.5083 18.9983 20.4018 19.14 20.3358C19.6295 20.1086 20.0497 19.7771 20.4456 19.4093C20.5052 19.3539 20.5602 19.2978 20.6441 19.2832C20.7804 19.2595 20.9149 19.2237 21.0519 19.2083C21.5765 19.1502 22.1012 19.178 22.624 19.2296C23.0076 19.2677 23.3902 19.3213 23.7731 19.3688C24.2729 19.431 24.7714 19.5 25.2718 19.5553C25.714 19.6042 26.1569 19.6498 26.6009 19.678C27.1371 19.7117 27.674 19.7124 28.2106 19.666C28.6481 19.6278 29.0816 19.5667 29.5061 19.4498C30.3236 19.2241 31.1501 19.0625 31.9976 19.0172C32.622 18.9835 33.2406 19.0145 33.8524 19.1512C34.1315 19.2137 34.4056 19.2938 34.6504 19.4549C34.6985 19.4867 34.7213 19.523 34.7274 19.5863C34.7658 19.974 34.803 20.3625 34.855 20.7482C34.9204 21.2348 34.9981 21.7197 34.9708 22.213C34.9567 22.464 34.9013 22.7051 34.7784 22.9273C34.4215 23.5718 34.0636 24.2158 33.7157 24.8654C33.5506 25.1737 33.3954 25.4892 33.3333 25.842C33.3246 25.8922 33.3348 25.9502 33.314 25.9929C33.2023 26.2238 33.0881 26.454 32.9658 26.6789C32.9048 26.7912 32.8245 26.8922 32.7446 27.0101C33.015 27.0538 33.2688 27.1005 33.5245 27.1347C33.8701 27.1806 34.2176 27.2039 34.5622 27.1234C34.8699 27.052 35.1209 26.9 35.2395 26.5752C35.2419 26.5684 35.2524 26.5647 35.2546 26.5636C35.3128 26.6055 35.3645 26.6515 35.4231 26.6839C35.5833 26.7722 35.8537 26.688 35.8378 26.4265C35.8277 26.2577 35.8538 26.0859 35.8693 25.9161C35.9105 25.4677 36.0164 25.036 36.1831 24.6202C36.4792 23.8811 36.9587 23.2801 37.5165 22.7405C37.5766 22.6825 37.6601 22.6439 37.7393 22.6155C37.8832 22.5642 38.0322 22.5279 38.1789 22.4849C38.3456 22.436 38.4802 22.3398 38.5496 22.1721C38.6255 21.9883 38.7029 21.8028 38.7528 21.6107C38.799 21.4337 38.8103 21.2467 38.8367 21.0632C39.0352 21.0405 39.2999 21.1573 39.4138 21.3298C39.485 21.4375 39.5371 21.5591 39.6115 21.6639C39.7012 21.7904 39.8056 21.9058 39.9033 22.0261C39.9666 22.1041 40.0461 22.1735 40.0888 22.2622C40.2913 22.6836 40.3227 23.1457 40.353 23.6038C40.3715 23.8866 40.3538 24.1718 40.3567 24.4559C40.36 24.7886 40.3595 25.1216 40.378 25.4536C40.3852 25.5818 40.3656 25.6956 40.3097 25.8024C40.1857 26.0374 40.0552 26.2687 39.9254 26.5003C39.8227 26.6832 39.8379 26.7222 40.0421 26.757C40.5432 26.843 41.0414 26.8209 41.5299 26.6798C41.8542 26.5862 42.15 26.4392 42.2737 26.0766C42.3355 26.1024 42.3937 26.1323 42.4553 26.1508C42.5995 26.1938 42.6896 26.1296 42.7091 25.9757C42.7336 25.7791 42.6902 25.5928 42.618 25.4148C42.3735 24.8134 42.1523 24.2052 42.0788 23.5512C42.0427 23.2275 42.0517 22.9067 42.1334 22.5895C42.2068 22.3047 42.3543 22.0602 42.5081 21.8179C42.5797 21.7049 42.6512 21.5861 42.6154 21.4441C42.5987 21.3777 42.6158 21.3377 42.6502 21.288C42.8034 21.065 42.8903 20.8165 42.8089 20.5479C42.7485 20.3469 42.6549 20.1541 42.558 19.9682C42.3942 19.6542 42.2257 19.3435 42.1693 18.9854C42.161 18.932 42.1588 18.8634 42.1834 18.8201C42.5265 18.2164 42.8754 17.6162 43.2218 17.0145C43.5153 16.504 43.8094 15.9912 43.9785 15.4203C44.1456 14.857 44.2794 14.2833 44.4402 13.718C44.6897 12.8415 44.8098 11.9475 44.8308 11.0382C45.0202 11.1463 45.2204 11.2316 45.427 11.2908C45.7224 11.3754 46.0308 11.4061 46.3363 11.3851C46.3896 11.4539 46.4449 11.5209 46.5035 11.5861C46.8661 11.9906 47.3195 12.2937 47.8228 12.4744C48.8113 12.8296 49.9825 12.6556 50.7573 11.9018C51.463 11.2159 51.8138 10.0966 51.4985 9.12925C51.4056 8.84731 51.1355 8.66396 50.8445 8.74696ZM47.3405 9.7933C47.2986 9.83448 47.2559 9.87447 47.2111 9.91226C47.2002 9.92052 47.1897 9.92868 47.1829 9.93391C47.154 9.95491 47.125 9.97582 47.0951 9.99527C47.0097 10.0514 46.9215 10.1016 46.8304 10.1464C46.8141 10.1123 46.7987 10.0779 46.7834 10.0435C46.6848 9.78642 46.6142 9.51961 46.573 9.24647C46.5517 9.04478 46.5473 8.84309 46.5665 8.6413C46.5878 8.5118 46.6193 8.38495 46.6634 8.26186C46.6848 8.21545 46.7076 8.17014 46.734 8.12676C46.7456 8.10768 46.7574 8.0886 46.7698 8.06952C46.7766 8.0609 46.7834 8.05265 46.7889 8.04669C46.8142 8.01862 46.8399 7.99129 46.8678 7.96625C46.9014 7.94304 46.9361 7.9225 46.9719 7.90342C47.0055 7.89214 47.0395 7.88242 47.0738 7.87499C47.1171 7.87269 47.1606 7.87269 47.204 7.87572C47.2612 7.8881 47.3168 7.90415 47.3718 7.92433C47.4184 7.9479 47.4636 7.97377 47.507 8.0033C47.5164 8.00963 47.5258 8.01642 47.5352 8.02311C47.554 8.03962 47.5724 8.05641 47.5898 8.07439C47.6162 8.10098 47.6415 8.12868 47.6653 8.15748C47.6975 8.20729 47.7258 8.25856 47.751 8.31203C47.7789 8.3921 47.7999 8.47373 47.8151 8.55711C47.8234 8.66414 47.8223 8.77118 47.813 8.87785C47.7909 9.0036 47.758 9.12595 47.7146 9.24574C47.6633 9.35983 47.6033 9.4699 47.5328 9.57281C47.5255 9.5829 47.5128 9.60014 47.5017 9.61509C47.4908 9.62857 47.4796 9.64205 47.4683 9.65517C47.4272 9.70277 47.3854 9.74955 47.3405 9.7933Z" fill="url(#paint0_linear)"/>
<defs>
<linearGradient id="paint0_linear" x1="25.8373" y1="0.782226" x2="28.6318" y2="26.9434" gradientUnits="userSpaceOnUse">
<stop stop-color="#4BB16B"/>
<stop offset="1" stop-color="#005085"/>
</linearGradient>
</defs>
</svg>
