<svg width="47" height="34" viewBox="0 0 47 34" fill="none" xmlns="http://www.w3.org/2000/svg">
<path d="M14.1772 28.6682C13.9077 28.9355 13.649 29.192 13.4334 29.4058C13.2179 29.4379 13.0454 29.47 12.8837 29.502C12.6035 29.5555 12.3232 29.641 12.043 29.6731C11.3316 29.7586 10.6094 29.8227 9.89802 29.8869C9.84413 29.8869 9.79023 29.8869 9.70401 29.812C9.88724 29.6945 10.0705 29.5662 10.2753 29.4379C10.0166 29.3951 9.74712 29.3524 9.44532 29.2989C9.70401 28.9568 10.0813 28.9675 10.437 28.8927C10.189 28.8286 9.94114 28.7644 9.65011 28.6896C9.97347 28.4865 10.2861 28.5079 10.5879 28.572C10.9004 28.6362 11.213 28.7324 11.5256 28.7965C12.1292 28.9141 12.7005 28.8713 13.1963 28.4651C13.6274 28.1123 14.0586 27.7489 14.5221 27.4389C15.0179 27.1182 15.0718 26.124 14.5652 25.7071C13.8646 25.1298 13.4658 24.3816 13.2286 23.5264C13.1316 23.1629 12.8945 22.9384 12.5172 22.8101C11.8597 22.5856 11.213 22.3184 10.5555 22.0725C10.4693 22.0405 10.3723 22.0191 10.2861 21.987C9.94114 21.848 9.57466 21.7304 9.2513 21.5594C8.38901 21.0784 7.53749 20.5652 6.68597 20.0735C5.53266 19.4107 4.69192 18.4379 4.07753 17.2941C3.52782 16.2465 3.06434 15.1454 2.62241 14.0444C2.08348 12.6974 2.16971 11.3184 2.63319 9.96081C2.91344 9.11631 3.20446 8.28249 3.49548 7.43799C3.73262 6.76452 3.78651 6.08036 3.67872 5.38552C3.64639 5.18241 3.57094 5.05413 3.36614 4.94723C3.09667 4.79757 2.83799 4.60515 2.64397 4.36997C2.35294 4.03858 2.00803 3.87823 1.59844 3.79271C1.29663 3.72857 0.994831 3.66443 0.574463 3.57891C0.768479 3.39719 0.876266 3.20477 1.03795 3.14063C1.35053 3.02304 1.69545 2.98028 2.02958 2.90545C2.35295 2.83062 2.66553 2.73441 2.99967 2.69165C3.49549 2.62751 4.00208 2.56337 4.4979 2.55268C4.77815 2.55268 4.95061 2.47785 4.98294 2.2106C5.02606 1.83645 5.05839 1.45162 5.05839 1.07747C5.05839 0.799529 5.13384 0.714009 5.38175 0.820909C5.42487 0.842289 5.47876 0.885048 5.48954 0.874358C5.87757 0.62849 6.10393 1.05609 6.42729 1.08816C6.4704 1.08816 6.52429 1.10954 6.54585 1.14161C6.90155 1.57989 7.4297 1.92197 7.39737 2.61682C7.32192 2.61682 7.23569 2.61682 7.16024 2.62751C6.85843 2.67027 6.55663 2.67027 6.26561 2.75579C5.50032 2.99097 5.38175 3.19408 5.54343 3.96375C5.59733 4.20962 5.62966 4.47687 5.71589 4.71205C6.14704 5.94139 6.02847 7.17074 5.8129 8.42146C5.71589 8.97734 5.68356 9.55459 5.70511 10.1105C5.73745 11.0405 6.48118 11.7674 7.40815 12.0881C8.11954 12.3447 8.83093 12.3554 9.53155 12.2592C12.7867 11.8102 15.4275 13.0716 17.7449 15.1454C18.715 16.0113 19.5449 17.0162 20.418 17.9783C21.6791 19.3787 22.8648 20.8539 24.1905 22.2008C25.29 23.3232 26.5511 24.296 27.7367 25.3223C27.8445 25.4078 27.9846 25.4612 28.0924 25.5468C28.2757 25.6964 28.4373 25.8675 28.6098 26.0171C28.6745 26.0706 28.7392 26.124 28.8146 26.1668C30.7009 27.2144 32.7057 27.4816 34.8399 27.1502C36.004 26.9685 37.2004 26.9365 38.3753 26.9151C39.658 26.883 40.9406 26.9151 42.2233 26.9578C43.4736 27.0006 44.7132 27.1716 45.888 27.6527C46.6641 27.9734 47.009 28.6148 46.9336 29.4486C46.8581 30.229 46.427 30.7955 45.8557 31.2766C44.8209 32.1425 43.5922 32.4632 42.2664 32.538C42.1478 32.5487 42.0293 32.5487 41.8999 32.5594C41.8784 32.9335 41.5981 33.1152 41.3071 33.2008C40.6388 33.3932 39.9598 33.607 39.2807 33.6925C36.7262 33.9811 34.1608 34.056 31.6278 33.4252C28.6206 32.6876 26.0445 31.2124 23.975 28.8927C23.9426 28.8606 23.9103 28.8393 23.8672 28.7965C23.7486 29.192 23.6516 29.5662 23.5115 29.9296C23.436 30.1327 23.3175 30.3359 23.1666 30.4962C22.9402 30.7528 22.6923 30.7314 22.4983 30.4428C22.3582 30.229 22.2719 29.9938 22.1426 29.7479C22.0995 29.7693 22.0348 29.78 21.9809 29.812C21.6791 29.9296 21.5282 29.8655 21.3665 29.5982C21.2264 29.3524 21.0432 29.1386 20.9138 28.882C20.7737 28.5934 20.6767 28.2727 20.5474 27.9627C20.515 27.8879 20.5042 27.7703 20.4503 27.7489C20.1162 27.6206 20.0623 27.332 20.0192 27.054C19.9761 26.7227 19.9869 26.3913 19.9545 26.0599C19.933 25.8781 19.8899 25.7071 19.8252 25.5361C19.7928 25.4719 19.6851 25.4292 19.6096 25.3864C19.5773 25.4612 19.5234 25.5468 19.5234 25.6323C19.5126 25.7926 19.5665 25.9637 19.5342 26.1133C19.4264 26.6051 19.2863 27.0968 19.1246 27.5885C18.7581 26.5302 18.0683 25.7071 17.3461 24.8626C17.1736 25.1298 17.2383 25.3436 17.3461 25.5574C17.4215 25.6964 17.497 25.8461 17.5293 25.9957C17.5724 26.2309 17.5078 26.4233 17.2706 26.5623C16.9042 26.7868 16.5377 27.0113 16.1928 27.2785C14.9963 28.1872 14.6406 29.4272 14.77 30.849C14.7808 30.9879 14.77 31.1376 14.77 31.3407C14.5867 31.2552 14.479 31.2124 14.3712 31.159C14.3496 31.159 14.3173 31.159 14.3173 31.1697C13.9939 31.7149 13.4981 31.8966 12.8837 31.9287C12.1939 31.9607 11.5148 32.0142 10.8681 32.3242C10.6633 32.4204 10.4154 32.4204 10.189 32.4632C10.1675 32.4311 10.1459 32.4097 10.1244 32.3776C10.3292 32.2066 10.5447 32.0462 10.7603 31.8645C10.4154 31.8645 10.0813 31.8645 9.73634 31.8645C9.97347 31.469 10.4046 31.4048 10.7927 31.2445C10.5016 31.2124 10.2214 31.191 9.88724 31.159C10.2537 30.849 10.6202 30.8703 11.0082 30.9024C11.5579 30.9452 12.1076 30.9559 12.6466 30.9772C13.0238 30.9879 13.3364 30.8276 13.4981 30.4962C13.7891 29.9296 14.037 29.3524 14.3065 28.7751C14.2742 28.743 14.2311 28.7003 14.1772 28.6682Z" fill="url(#paint0_linear)"/>
<defs>
<linearGradient id="paint0_linear" x1="23.7591" y1="0.776367" x2="28.5795" y2="33.1906" gradientUnits="userSpaceOnUse">
<stop stop-color="#4BB16B"/>
<stop offset="1" stop-color="#005085"/>
</linearGradient>
</defs>
</svg>
