<svg width="33" height="36" viewBox="0 0 33 36" fill="none" xmlns="http://www.w3.org/2000/svg">
<path d="M2.08354 16.6844C2.12669 16.7656 2.16509 16.8492 2.2142 16.9529C2.23255 16.9916 2.21742 17.0057 2.17998 16.9844C1.80308 16.77 1.45426 16.5716 1.10713 16.374C1.0697 16.3527 1.01513 16.3604 0.985166 16.3913C0.975018 16.4016 0.965051 16.412 0.954902 16.4223C0.924882 16.4532 0.919169 16.5074 0.941776 16.544C1.11011 16.8171 1.26161 17.1046 1.46495 17.3489C1.66106 17.5843 1.9053 17.7928 2.16193 17.963C2.95262 18.4874 3.74259 19.017 4.56822 19.4825C4.9072 19.6735 5.33539 19.7091 5.72439 19.8103C8.68703 20.5816 7.94149 20.2623 9.88464 22.1408C10.049 22.2997 10.1656 22.5425 10.2199 22.7666C10.257 22.9201 10.1805 23.1263 10.0976 23.2783C9.67614 24.0521 8.98341 24.5752 8.32982 25.1344C8.28321 25.1743 8.28248 25.2745 8.27227 25.3483C8.20038 25.8702 8.10539 26.3908 8.07166 26.9152C8.05234 27.2169 8.09178 27.538 8.18056 27.8271C8.30028 28.2165 8.48381 28.5879 8.65762 28.9587C8.84187 29.3515 9.04394 29.4557 9.49121 29.3829C9.53363 29.376 9.56608 29.3345 9.56535 29.2916C9.55417 28.4707 10.0746 27.9285 10.6295 27.3847C11.2321 26.7943 11.9364 26.7646 12.6803 26.8747C12.7229 26.8811 12.7691 26.9193 12.7822 26.96C13.0837 27.8933 12.8511 28.8319 12.8286 29.7666C12.8167 30.2566 12.7939 30.7491 12.8266 31.2372C12.8734 31.9333 12.6709 32.5363 12.2483 33.077C12.0237 33.3642 11.8085 33.3958 11.5821 33.1137C11.385 32.868 11.2421 32.5721 11.1128 32.2816C10.9658 31.9517 10.7815 31.8691 10.5715 32.0677C10.5402 32.0973 10.5506 32.1361 10.5898 32.1538C10.8192 32.259 10.8985 32.4025 10.7121 32.6775C10.6563 32.7596 10.7103 32.992 10.7941 33.0772C10.9969 33.2825 11.2377 33.4507 11.4879 33.6461C11.5216 33.6726 11.5146 33.7014 11.4723 33.7083C10.8708 33.8073 10.3568 33.6271 9.87127 33.3258C9.38729 33.0256 8.94889 33.2039 8.86162 33.7135C8.85445 33.7557 8.88174 33.773 8.91887 33.7515C9.04582 33.6782 9.17946 33.601 9.31388 33.5233C9.35107 33.5018 9.40388 33.4959 9.4319 33.5099C9.45991 33.5242 9.47255 33.5691 9.46465 33.6111C9.40814 33.9131 9.5941 33.9738 9.84253 34.0077C10.0719 34.0388 10.2925 34.1293 10.5207 34.1762C10.7131 34.2159 10.9094 34.2371 11.1205 34.3184C11.1606 34.3337 11.1591 34.3583 11.118 34.3706C10.9873 34.4103 10.8572 34.4508 10.7257 34.4886C10.4031 34.5816 10.0701 34.6485 9.75994 34.7719C9.5016 34.8748 9.32281 35.0645 9.34317 35.3599C9.34615 35.4025 9.37739 35.4616 9.40789 35.4919C9.42625 35.5102 9.4446 35.5285 9.46295 35.5467C9.49346 35.577 9.52269 35.5672 9.52816 35.5245C9.55721 35.2928 9.5758 35.1832 10.001 35.2343C10.5195 35.2967 11.1408 35.013 11.6241 34.725C12.1304 34.4235 12.5888 34.2959 13.149 34.4583C13.4336 34.5407 13.7324 34.5772 14.0264 34.6238C14.0988 34.6352 14.2082 34.633 14.2496 34.5891C14.6029 34.2157 14.8471 34.3875 15.0735 34.7396C15.0968 34.7756 15.1253 34.7726 15.1345 34.7307C15.2133 34.3724 15.008 34.1861 14.7608 34.0985C14.5171 34.0122 14.2107 33.9665 13.9697 34.0348C13.5234 34.1615 13.2139 34.0215 12.9541 33.7686C12.9233 33.7388 12.9184 33.684 12.9414 33.6477C13.5077 32.7646 14.0592 31.905 14.6103 31.0458C14.6336 31.0097 14.6329 30.9604 14.6086 30.936C14.5845 30.9116 14.5969 30.9056 14.6361 30.9232C14.7085 30.9555 14.7872 30.9905 14.89 31.0364C14.9294 31.0539 14.9602 31.0334 14.9592 30.9905C14.9542 30.8017 14.9498 30.6374 14.9453 30.4672C14.944 30.4242 14.971 30.4104 15.0055 30.4361C15.0856 30.496 15.1612 30.5525 15.2359 30.6086C15.2703 30.6342 15.3323 30.648 15.3745 30.6394C15.376 30.6392 15.3775 30.6387 15.3789 30.6384C15.4211 30.6296 15.4508 30.5878 15.4457 30.5454C15.4164 30.312 15.3871 30.0783 15.3577 29.8419C15.3524 29.7994 15.3827 29.7691 15.4259 29.77C15.7752 29.778 15.9825 29.5616 15.9012 29.2551C15.7698 28.7618 15.5856 28.2826 15.4524 27.7898C15.402 27.6041 15.4093 27.4029 15.3989 27.1984C15.3966 27.1557 15.4274 27.1313 15.4685 27.1439C15.5039 27.1548 15.5384 27.1653 15.5761 27.1767C15.6173 27.1893 15.6413 27.1659 15.6302 27.1247C15.6121 27.0587 15.5955 26.9988 15.5791 26.9395C15.5677 26.8981 15.5935 26.8658 15.6364 26.8673C15.8362 26.8735 16.0264 26.8794 16.2361 26.8858C16.2793 26.8871 16.3236 26.9216 16.335 26.963C16.738 28.3962 17.0806 29.8236 15.9366 31.1543C15.9086 31.1869 15.8568 31.1926 15.8218 31.1677C15.67 31.0599 15.4917 30.9333 15.2564 30.7662C15.2215 30.7413 15.1944 30.7558 15.1962 30.7985C15.2017 30.9446 15.2006 30.9974 15.2091 31.0482C15.2349 31.2 15.3335 31.4502 15.2835 31.4835C15.1501 31.5723 14.9748 31.5985 14.8079 31.6377C14.7661 31.6476 14.7288 31.6222 14.7246 31.5795C14.7221 31.5565 14.7199 31.5336 14.7177 31.5106C14.7133 31.468 14.6865 31.459 14.6577 31.4909C14.5907 31.5647 14.5206 31.6421 14.4355 31.7357C14.4068 31.7675 14.4174 31.8013 14.4591 31.8112C14.6334 31.8524 14.7787 31.8864 14.9421 31.9252C14.984 31.935 14.9932 31.9679 14.957 31.9911C14.6272 32.2003 14.0679 31.8687 13.9456 32.4888C13.9374 32.5307 13.9684 32.5626 14.0113 32.5601C14.3579 32.5408 14.714 32.5658 15.0306 32.466C15.6963 32.2565 16.2019 32.4066 16.6447 32.9277C16.8233 33.1378 16.9976 33.4405 17.4179 33.2473C17.4571 33.2293 17.4853 33.2467 17.4828 33.2894C17.4746 33.4336 17.4677 33.5508 17.462 33.6544C17.4595 33.6971 17.4898 33.718 17.526 33.6948C17.7536 33.5496 17.8264 33.2526 17.6235 32.9751C17.4943 32.7987 17.2766 32.6824 17.0881 32.5546C16.9507 32.4616 16.7781 32.4155 16.6522 32.3114C16.2111 31.9465 16.2354 31.8294 16.6408 31.4418C17.0481 31.0522 17.4089 30.6144 17.7959 30.2032C17.8495 30.1462 17.9249 30.1096 18.0427 30.0366C18.0792 30.0139 18.1156 29.9608 18.1245 29.9189C18.1491 29.8042 18.182 29.648 18.218 29.4794C18.2269 29.4375 18.2606 29.4261 18.2933 29.454C18.365 29.5155 18.431 29.572 18.5051 29.6354C18.5378 29.6632 18.572 29.6521 18.5837 29.611C18.5998 29.5547 18.6134 29.5117 18.6103 29.4698C18.5827 29.112 18.7545 28.8379 18.9571 28.5665C18.9985 28.5109 18.9673 28.39 18.9484 28.3036C18.8961 28.0633 18.8349 27.8249 18.7726 27.5705C18.7624 27.5288 18.787 27.5071 18.8274 27.5219C18.8839 27.5426 18.9422 27.5639 19.0153 27.5905C19.0558 27.6053 19.0783 27.5839 19.0659 27.5429C18.9816 27.2663 18.9077 27.0243 18.8256 26.7555C18.813 26.7145 18.8306 26.7027 18.8643 26.7291C18.9072 26.7624 18.9432 26.7905 18.9765 26.8164C19.0104 26.8428 19.0575 26.8576 19.0818 26.8492C19.1061 26.8411 19.1175 26.8003 19.1074 26.7589C19.0624 26.5734 19.0174 26.3875 18.9722 26.201C18.962 26.1593 18.9831 26.1065 19.0195 26.0838C19.3044 25.9086 19.625 25.7712 19.7231 25.3729C19.744 25.2885 19.9758 25.1377 20.0636 25.0928C20.6466 24.7943 21.2654 24.5579 21.8893 24.3507C22.0549 24.2956 22.284 24.396 22.4744 24.455C23.1143 24.6537 23.7394 24.9118 24.3905 25.0579C24.8958 25.1714 25.3885 25.0102 25.8228 24.6971C26.3567 24.3124 26.922 23.9695 27.4434 23.5695C28.0648 23.0928 28.6531 22.5733 29.2577 22.0749C29.6235 21.7731 29.9996 21.4837 30.3585 21.1742C30.7166 20.8655 31.0652 20.5453 31.4047 20.2164C31.5222 20.1026 31.5983 19.9469 31.6962 19.8121C31.7962 19.6743 31.8909 19.5313 32.0032 19.4038C32.1299 19.2599 32.3044 19.1491 32.3992 18.9893C32.458 18.89 32.4492 18.7514 32.4231 18.6145C32.4149 18.5723 32.4233 18.5079 32.4429 18.4696C32.6315 18.0987 32.5698 18.0291 32.1882 17.7264C31.7861 17.4074 31.3968 17.3974 30.9585 17.5845C29.3964 18.2502 27.8324 18.9111 26.2715 19.5798C24.2535 20.4441 24.2522 20.4947 22.0775 20.3928C20.8154 20.3336 19.5631 20.338 18.3137 20.4538C18.2708 20.4577 18.2659 20.4431 18.3025 20.4207C18.5222 20.2862 18.7374 20.1446 18.9481 19.9958C18.9834 19.9709 19.0436 19.937 19.083 19.9198C19.4488 19.7606 19.8095 19.5884 20.1763 19.4307C20.2906 19.3816 20.4214 19.3643 20.5467 19.3473C21.1341 19.2681 21.6054 19.026 21.8598 18.458C21.887 18.3973 21.9579 18.3544 22.0125 18.3078C22.1201 18.2158 22.2796 18.1478 22.3294 18.0324C22.4417 17.7711 22.5446 17.5347 22.8139 17.3763C22.8776 17.339 22.8456 17.1404 22.8409 16.9588C22.8397 16.9158 22.8742 16.8702 22.9131 16.8519C23.105 16.7616 23.1802 16.6059 23.108 16.2883C23.0582 16.069 23.3296 15.7953 23.3757 15.5318C23.4491 15.1121 23.6356 14.6973 23.4283 14.2475C23.3323 14.0387 23.3596 13.7742 23.3274 13.5356C23.2535 12.9896 23.2136 12.4348 23.0852 11.9016C23.0338 11.6887 22.8437 11.5085 22.7155 11.3509C22.6885 11.3176 22.6929 11.2645 22.7232 11.2344C22.8315 11.1266 22.9439 11.0148 23.0566 10.9025C23.0871 10.8722 23.0871 10.823 23.0566 10.7927C22.9322 10.6686 22.8062 10.5435 22.6716 10.4093C22.6411 10.379 22.6455 10.335 22.6817 10.3121C22.7906 10.243 22.9242 10.1633 23.0383 10.0619C23.1149 9.99377 23.182 9.87112 23.1788 9.77563C23.1769 9.72083 23.0315 9.65152 22.9401 9.62334C22.8032 9.58089 22.6599 9.55869 22.4972 9.52761C22.4549 9.5195 22.4492 9.4921 22.4838 9.46695C22.7534 9.27275 23.0008 9.09458 23.2463 8.91768C23.2812 8.89246 23.3078 8.8387 23.3055 8.79751C23.3033 8.75633 23.2679 8.71411 23.2262 8.70323C22.9944 8.64275 22.761 8.58185 22.5128 8.51696C22.4711 8.50607 22.4637 8.4745 22.4967 8.44686C22.6725 8.29827 22.8567 8.14973 23.0283 7.98789C23.2569 7.77223 23.2299 7.60198 22.9244 7.52403C22.6941 7.46506 22.4315 7.45024 22.1994 7.49663C21.7479 7.58668 21.306 7.7259 20.8273 7.85738C20.7859 7.86875 20.78 7.8569 20.8141 7.83095C22.9405 6.22387 23.0565 6.13237 23.0885 5.70593C23.0918 5.66324 23.0623 5.64352 23.0234 5.66203C21.8833 6.20439 20.7316 6.75239 19.5797 7.30044C19.5407 7.31895 19.5338 7.30927 19.5645 7.27921C20.6941 6.16146 21.9545 5.17639 22.6933 3.68996C22.7124 3.65143 22.699 3.64037 22.6639 3.66504C21.4685 4.5104 20.311 5.32861 19.1547 6.14664C19.1194 6.17156 19.075 6.17772 19.0552 6.16018C19.0354 6.14289 19.0409 6.10146 19.0674 6.06765C19.3914 5.65556 19.7229 5.24914 20.0346 4.82797C20.5019 4.19652 20.9724 3.56562 21.4028 2.90925C21.5612 2.66764 21.6321 2.3696 21.7328 2.09049C21.7474 2.05028 21.7353 1.99331 21.7048 1.96295C21.6743 1.93259 21.6252 1.93307 21.5952 1.96397C20.5402 3.04647 19.4852 4.12921 18.4302 5.21171C18.4002 5.24255 18.3724 5.25882 18.3677 5.24848C18.3633 5.23814 18.3774 5.19985 18.3997 5.16308C18.9504 4.24763 19.5139 3.33961 20.0441 2.4126C20.3612 1.85838 20.3237 1.24277 20.2238 0.634001C20.2189 0.603399 20.1946 0.575761 20.1487 0.53899C20.1152 0.512077 20.0835 0.526652 20.0786 0.569108C19.8869 2.2019 18.6422 3.139 17.6618 4.26202C17.6335 4.29432 17.6247 4.28887 17.6415 4.24944C18.1027 3.16719 18.4823 2.07973 18.154 0.96149C18.1419 0.920244 18.1186 0.919518 18.1034 0.959736C17.8518 1.62004 17.6289 2.35243 17.284 3.0221C16.9327 3.70435 16.4598 4.32492 16.0056 4.96054C15.9806 4.99562 15.9625 4.98915 15.9652 4.94651C16.0425 3.74064 16.2376 2.5318 15.4985 1.44265C15.4745 1.40709 15.4568 1.41356 15.4609 1.4562C15.4824 1.69182 15.5121 1.92751 15.5159 2.16337C15.5318 3.15902 15.3077 4.09764 14.9402 5.02888C14.4289 6.32505 13.9392 7.63724 13.7962 9.04251C13.7788 9.21227 13.7317 9.37883 13.6863 9.58191C13.6769 9.62383 13.6516 9.62806 13.6293 9.59153C13.5217 9.41584 13.4259 9.25938 13.3032 9.05908C13.2809 9.02255 13.2504 9.02527 13.2336 9.06477C13.1694 9.21378 13.1015 9.32162 13.1094 9.42328C13.1434 9.86689 13.1661 10.3194 13.2751 10.7478C13.4521 11.4432 13.7003 12.1205 13.9041 12.8094C13.9351 12.9143 13.9492 13.0196 14.0021 13.0979C14.0261 13.1334 14.0427 13.1835 14.0284 13.2188C14.014 13.254 14.0023 13.2824 14.0023 13.2824C13.9889 13.3234 13.9756 13.3643 13.9619 13.4056C13.9485 13.4463 13.9051 13.467 13.865 13.4517C13.797 13.4258 13.7296 13.3997 13.6656 13.3708C13.5458 13.3166 13.3552 13.318 13.3034 13.2312C13.0227 12.7594 12.645 12.7828 12.2003 12.9588C12.1603 12.9746 12.1341 12.9541 12.1417 12.9119C12.1983 12.601 12.2657 12.3155 12.2838 12.027C12.2932 11.8768 12.2317 11.7221 12.1879 11.5686C12.1759 11.5274 12.1348 11.5044 12.0937 11.517C11.9392 11.5649 11.7828 11.6077 11.6359 11.6729C11.5534 11.7095 11.4854 11.7796 11.39 11.8622C11.3575 11.8903 11.3292 11.8772 11.3305 11.8345C11.3448 11.2979 11.6206 10.7856 11.3057 10.264C11.2834 10.2272 11.2363 10.2208 11.2028 10.2477C11.0645 10.3595 10.9397 10.4604 10.8017 10.5722C10.7682 10.5993 10.7407 10.5865 10.7402 10.5435C10.736 10.1672 10.732 9.81905 10.728 9.47263C10.7275 9.42969 10.6968 9.3833 10.6593 9.36897C10.6219 9.3547 10.5671 9.36752 10.5366 9.39788C10.2829 9.65032 10.029 9.90275 9.77544 10.1554C9.74493 10.1857 9.70847 10.1985 9.69412 10.1843C9.67978 10.17 9.67529 10.1243 9.68446 10.0824C9.78516 9.61868 9.8858 9.15506 9.98674 8.69143C9.99591 8.64952 9.97337 8.59769 9.93642 8.5755C9.92354 8.56788 9.91065 8.55996 9.89771 8.55228C9.86076 8.53008 9.80473 8.53504 9.77149 8.56238C9.5972 8.70674 9.40874 8.839 9.26715 9.00997C8.85731 9.50541 8.47081 10.0197 8.07604 10.5272C8.04972 10.5611 8.00214 10.5748 7.97017 10.5575C7.93821 10.5403 7.9246 10.4942 7.93942 10.4539C8.00238 10.2844 8.06066 10.1127 8.13578 9.94883C8.39411 9.38748 8.66983 8.83374 8.91826 8.26821C8.96609 8.15917 8.95369 8.02394 8.9227 7.87909C8.91376 7.83712 8.87633 7.82309 8.84139 7.84825C7.89719 8.52953 7.52527 9.65866 6.68323 10.4483C6.65199 10.4776 6.6351 10.4673 6.64555 10.4258C6.7031 10.1998 6.74625 9.96758 6.83498 9.75434C7.1429 9.01505 7.4814 8.28841 7.78683 7.5484C7.84711 7.40228 7.84164 7.22962 7.82104 7.05441C7.81606 7.01196 7.77966 6.99224 7.74143 7.0122C7.17784 7.30975 6.89125 7.82992 6.55306 8.29282C6.22155 8.74635 5.93642 9.2332 5.63366 9.70771C5.61062 9.744 5.57143 9.76522 5.54639 9.75537C5.52135 9.74545 5.51114 9.70402 5.52336 9.66308C5.87024 8.49966 6.21712 7.33624 6.564 6.17282C6.5764 6.13164 6.55409 6.08453 6.51489 6.06723C6.5025 6.06179 6.48986 6.05634 6.47746 6.0509C6.43802 6.0336 6.37877 6.04129 6.34577 6.06892C5.2553 6.98118 5.00413 8.43876 4.13705 9.54194C4.11049 9.57575 4.08995 9.56782 4.09044 9.52488C4.09293 9.30353 4.07458 9.07753 4.12465 8.86755C4.33443 7.98765 4.58414 7.11713 4.79137 6.23693C4.84321 6.01709 4.81914 5.77966 4.8189 5.54772C4.8189 5.50478 4.78693 5.45864 4.74622 5.44455C4.745 5.44406 4.74354 5.44358 4.74202 5.4431C4.70137 5.42907 4.64558 5.44382 4.61635 5.47545C4.4832 5.61951 4.33693 5.75553 4.2355 5.91906C3.55888 7.0102 3.23533 8.23876 2.87873 9.45328C2.81303 9.67735 2.76642 9.90704 2.69824 10.197C2.68833 10.2387 2.66548 10.2411 2.64816 10.2019C2.37767 9.58778 2.333 9.02098 2.42058 8.4367C2.52176 7.7591 2.62562 7.08205 2.73002 6.40494C2.75135 6.26729 2.77688 6.13007 2.80167 5.9929C2.80933 5.95069 2.78155 5.90751 2.73993 5.89644C2.73172 5.8942 2.72382 5.89227 2.71562 5.89003C2.67393 5.8789 2.61845 5.89723 2.58994 5.92928C2.47539 6.05761 2.34024 6.17827 2.2825 6.32825C2.02435 7.00065 1.77598 7.67873 1.56863 8.36794C1.40546 8.91079 1.30057 9.47088 1.17362 10.0244C1.16395 10.066 1.13175 10.1046 1.10148 10.1102C1.07122 10.1159 1.04095 10.0862 1.03378 10.0438C0.883254 9.15355 0.733028 8.26331 0.582559 7.37301C0.575388 7.3308 0.534671 7.29379 0.491828 7.29058C0.484353 7.2901 0.476939 7.28961 0.469525 7.28889C0.426621 7.28568 0.380009 7.3158 0.364634 7.35572C0.285025 7.56201 0.186636 7.76485 0.148898 7.97828C-0.0511601 9.11061 -0.0169461 10.2484 0.184631 11.3741C0.520512 13.2472 1.19069 15.0065 2.08354 16.6844Z" fill="url(#paint0_linear)"/>
<defs>
<linearGradient id="paint0_linear" x1="16.2805" y1="0.52539" x2="23.7597" y2="33.8876" gradientUnits="userSpaceOnUse">
<stop stop-color="#4BB16B"/>
<stop offset="1" stop-color="#005085"/>
</linearGradient>
</defs>
</svg>
