<svg width="34" height="36" viewBox="0 0 34 36" fill="none" xmlns="http://www.w3.org/2000/svg">
<path d="M0.386906 5.32518C0.460201 5.19753 0.661766 5.08812 0.71674 4.96047C1.00993 4.37692 1.50467 4.01221 1.70618 3.31925C1.74283 3.17336 1.8711 2.991 1.99936 2.91806C2.89725 2.33451 3.2454 1.18566 4.60138 1.03977C4.74792 1.02154 4.80295 0.839178 4.94948 0.784471C4.96786 0.784471 4.96786 0.784471 4.98613 0.784471C5.13272 0.747999 5.33423 0.839178 5.37094 0.966829C5.40758 1.09448 5.62747 1.11272 5.77407 1.13095C6.61697 1.24037 7.03837 1.75097 7.51479 2.2251C7.6248 2.33451 7.77133 2.53511 7.8263 2.66276C8.06458 3.22807 8.22943 3.86632 8.15614 4.74164C8.10116 5.45283 7.67971 6.41933 7.38653 7.18523C6.80015 8.62586 6.06719 9.99355 5.9206 11.9083C5.88401 12.273 5.88401 12.7289 6.0306 13.0936C6.08558 13.2395 6.28708 13.2942 6.39703 13.203C6.59859 13.0207 6.69021 12.7471 6.85513 12.5283C7.2949 11.9812 7.95457 11.4706 8.61424 10.9783C9.45715 10.3218 10.1901 9.77472 11.1979 9.35529C11.601 9.19117 11.8942 9.22764 12.4256 9.1547C13.122 9.06352 13.8915 8.77175 14.7162 8.62586C15.3575 8.51645 16.2003 8.4435 16.8418 8.42527C17.3915 8.40703 18.2894 8.66233 18.7291 8.46174C18.9673 8.35232 18.949 8.02408 19.0956 7.64113C19.2422 7.23994 19.6087 6.49227 19.7919 6.18226C19.9752 5.83578 20.2867 5.41636 20.5615 4.99694C21.0746 4.26751 21.6793 3.55631 22.3207 2.91806C22.6505 2.58981 22.9437 2.17039 23.2552 1.93333C23.3835 1.84215 23.8599 1.56861 24.0798 1.56861C24.6661 1.56861 24.8677 2.0245 25.1426 2.44393C25.2342 2.57158 25.4174 2.62629 25.5823 2.62629C26.0954 2.57158 26.6268 2.77217 26.9566 3.08218C27.1582 3.28277 27.2498 3.64749 27.488 3.84808C27.6163 3.9575 27.7996 3.9575 27.9461 4.04868C28.5142 4.44987 28.6241 5.10635 28.9173 5.65343C28.9906 5.78108 29.1739 5.89049 29.3388 5.92696C29.7053 5.99991 29.9618 6.18227 30.1634 6.40109C30.255 6.51051 30.3649 6.74751 30.4016 6.87523C30.6215 7.47701 31.0612 7.89643 31.0063 8.6988C30.9879 8.84469 31.0796 9.04528 31.1895 9.13646C31.8125 9.61059 32.2706 10.1759 32.3256 11.0877C32.3439 11.3612 32.179 11.6348 32.1973 11.9083C32.1973 11.9812 32.2157 12.0724 32.2523 12.1454C32.289 12.273 32.4539 12.4371 32.5638 12.5283C33.0769 13.0025 33.4067 13.6225 33.425 14.4248C33.4067 15.1907 33.0402 15.829 32.5272 16.3578C32.4172 16.4672 32.4172 16.6314 32.5088 16.7408C33.0769 17.4885 33.0036 18.692 32.289 19.3303C32.179 19.4214 32.0691 19.5855 32.0507 19.6949C32.0324 19.8044 32.0141 19.9138 32.0141 19.9321C32.0141 19.9503 32.0141 19.9685 32.0141 19.9685C32.0141 19.9868 32.0141 20.0049 31.9958 20.0049C31.9958 20.0232 31.9408 20.1691 31.8858 20.2967C31.8675 20.3514 31.8309 20.4061 31.7942 20.4426C31.7209 20.5702 31.7026 20.7525 31.7759 20.8984C32.1607 21.6279 32.0691 22.6126 31.4644 23.1962C31.3544 23.3056 31.2445 23.3786 31.2445 23.3967C31.2445 23.415 31.2811 23.5426 31.2995 23.6885V23.7067C31.3178 23.8526 31.3361 24.035 31.3361 24.1079C31.3361 24.1443 31.3361 24.199 31.3361 24.2356C31.3178 24.3085 31.3178 24.3815 31.2995 24.4544C31.2628 24.5638 31.1895 24.7644 31.1162 24.9103C30.9879 25.1656 30.7864 25.3844 30.5298 25.5486C30.4016 25.6215 30.2916 25.8039 30.255 25.9497C30.255 25.9862 30.2367 26.0044 30.2367 26.0409C30.2 26.1867 30.145 26.3509 30.1267 26.4238C30.1084 26.4603 30.0901 26.4968 30.0717 26.5332C30.0717 26.5332 30.0717 26.5515 30.0534 26.5515C30.0534 26.5515 29.9801 26.6792 29.8885 26.7886C29.7053 27.0074 29.4854 27.1898 29.1922 27.2992C29.0456 27.3539 28.899 27.4998 28.8257 27.6274C28.5508 28.1563 28.0378 28.5392 27.2682 28.5392C27.2498 28.5392 27.2315 28.5392 27.2132 28.5392C27.1765 28.5392 27.0849 28.6486 26.9933 28.7581C26.7001 29.1045 26.2603 29.3416 25.6556 29.3416C25.4174 29.3416 25.2159 29.3052 25.0326 29.2322C24.886 29.1775 24.6845 29.1228 24.5928 29.1228C24.5195 29.1228 24.4646 29.1228 24.3913 29.1228C24.2447 29.1411 24.0798 29.3052 24.1897 29.4145L24.208 29.4328C24.318 29.5422 24.2813 29.761 24.1714 29.834C24.0431 29.9069 24.0798 30.1075 24.1897 30.2351C24.4462 30.5269 24.7211 30.7822 24.8494 31.1834C24.9044 31.3292 24.8494 31.5845 24.7211 31.6393C24.5562 31.694 24.3363 31.6393 24.1164 31.6393C23.9698 31.6393 23.8416 31.8034 23.9332 31.931C24.1714 32.2957 24.8494 32.3504 24.7394 32.861C24.7028 33.0616 24.4462 33.1711 24.208 33.1893C23.9698 33.2075 23.7499 33.0252 23.5484 33.0252C23.3651 33.0252 23.2918 33.1893 23.0903 33.2623C22.9986 33.2987 22.8704 33.2623 22.7971 33.2987C22.6138 33.3899 22.4856 33.627 22.2657 33.6634C21.6793 33.7728 21.2579 33.1893 20.7998 32.9705C20.6715 32.8975 20.5066 33.0252 20.5982 33.1528C20.6532 33.244 20.7448 33.2987 20.8181 33.3717C20.928 33.4811 20.7998 33.7364 20.6532 33.7728C20.4516 33.8093 20.2134 33.7181 20.0485 33.6634C19.6453 33.5175 19.2972 33.2075 18.949 33.0616C18.5642 32.8975 18.0878 33.0069 17.6847 32.8792C17.5381 32.8428 17.2999 32.8245 17.2815 32.9886C17.2815 33.0798 17.2999 33.1711 17.3182 33.2622C17.3731 33.4081 17.4098 33.6452 17.2999 33.7363C17.1899 33.8093 17.0616 33.864 17.025 34.0281C16.97 34.2104 17.0616 34.411 17.0616 34.6116C17.0616 34.7575 16.915 34.958 16.7868 35.031C16.3654 35.2499 15.7057 35.414 15.0461 35.4505C14.6796 35.4687 14.2764 35.3958 14.0932 35.5781C13.9833 35.6875 13.8549 35.8152 13.7084 35.8152H13.1586C13.0121 35.8152 12.8837 35.7058 12.8837 35.5781C12.8837 35.4505 12.8105 35.2134 12.6822 35.177C12.5539 35.1405 12.389 35.1223 12.3158 35.0128C12.2607 34.9399 12.2791 34.867 12.2974 34.794C12.3158 34.6663 12.1508 34.5204 12.0042 34.5022C11.7293 34.4657 11.4544 34.5204 11.1613 34.5022C10.7765 34.484 10.41 34.3198 10.0618 34.3746C9.6038 34.4475 9.29223 34.9763 8.8158 35.0858C8.66921 35.1222 8.44932 35.0128 8.431 34.8669C8.41261 34.721 8.39435 34.5569 8.30267 34.5022C8.19273 34.411 7.99116 34.4657 7.82624 34.484C7.67965 34.5022 7.58803 34.3016 7.66133 34.174C7.80792 33.9551 8.08278 33.7728 8.30267 33.6998C9.20055 33.3898 10.7765 33.6451 11.4911 33.0433C12.2057 32.4415 12.3523 30.9462 12.2607 29.7061C12.2423 29.4509 12.1691 29.1773 12.0408 28.9585C11.9492 28.8308 11.7293 28.7579 11.5827 28.7761C9.82363 28.8125 8.65088 28.5573 7.11166 28.3567C6.54362 28.2837 5.95724 27.992 5.48082 27.7001C5.00439 27.4084 4.63791 26.9525 4.21652 26.7155C3.83165 26.5149 3.30025 26.369 3.02539 26.1502C2.07254 25.366 1.74271 23.9801 1.26628 22.6854C0.973095 21.9012 0.698235 21.5547 0.661587 20.4788C0.606613 19.1841 0.58823 17.6158 0.734882 16.4123C0.789856 16.0111 0.973156 15.6829 1.02807 15.3182C1.08298 14.9534 0.991421 14.6252 1.02807 14.3334C1.08304 13.8593 1.26628 13.3305 1.43114 12.911C1.48611 12.7651 1.65103 12.6557 1.72432 12.5098C1.79762 12.364 1.77929 12.1634 1.85259 12.0175C1.94421 11.8169 2.1641 11.6528 2.18243 11.4157C2.20081 11.1422 1.92595 11.0145 1.81594 10.5951C1.74265 10.3398 1.81594 10.0115 1.77936 9.77448C1.74271 9.59212 1.59605 9.428 1.57779 9.28211C1.46785 8.53444 1.99924 7.82325 2.10919 7.07558C2.20081 6.43733 2.23746 5.32494 1.61444 5.19729C1.22957 5.12435 0.936447 5.37965 0.6432 5.52554C0.514935 5.59848 0.331696 5.47083 0.386726 5.34318V5.32518H0.386906ZM12.9756 34.2289C13.2504 34.3566 13.4153 34.2289 13.8001 34.2289C14.1116 34.2289 14.4232 34.3566 14.6614 34.3566C15.0828 34.3383 15.8158 34.083 16.0174 33.9007C16.2556 33.7001 16.6404 32.7883 16.5122 32.2777C16.4572 32.0589 16.0907 31.913 15.9075 31.7124C15.3394 31.1107 14.9363 30.5089 14.5148 29.9071C14.4232 29.7794 14.3315 29.6883 14.2949 29.6883C14.2583 29.6883 14.1666 29.7977 14.0934 29.9253C13.5437 30.8006 12.8473 31.676 12.774 32.9161C12.7557 33.0619 12.6641 33.2625 12.6091 33.4084C12.4624 33.6818 12.6823 34.1012 12.9756 34.2289Z" fill="url(#paint0_linear)"/>
<defs>
<linearGradient id="paint0_linear" x1="16.9009" y1="0.776367" x2="9.52783" y2="34.1882" gradientUnits="userSpaceOnUse">
<stop stop-color="#4BB16B"/>
<stop offset="1" stop-color="#005085"/>
</linearGradient>
</defs>
</svg>
