<svg width="42" height="36" viewBox="0 0 42 36" fill="none" xmlns="http://www.w3.org/2000/svg">
<path d="M41.5761 9.56554C41.3077 9.33492 41.0011 9.12669 40.6813 9.00785C39.8099 8.68431 39.0286 8.21477 38.3837 7.48078C38.327 7.41628 38.2641 7.3578 38.2005 7.30159C38.0319 7.15277 37.8582 7.01507 37.6804 6.88606C37.9299 6.58585 38.1021 6.21565 38.1654 5.80074C38.1836 5.68003 38.1939 5.56151 38.1962 5.44463C38.2301 5.3092 38.2457 5.16673 38.239 5.02143C38.2042 4.24471 37.7006 3.54329 37.0035 3.29098C36.798 3.21653 36.5913 3.13896 36.3965 3.03672C35.8063 2.72664 35.6252 2.25005 36.0839 1.63842C36.0908 1.62918 36.0913 1.61415 36.0951 1.60139C35.5825 1.71764 35.2437 2.24692 35.3182 2.81064C35.3858 3.3223 35.6783 3.63535 36.0666 3.86566C36.5146 4.13143 36.6421 4.58618 36.393 5.07968C36.3318 5.20101 36.2492 5.30967 36.1624 5.43164C36.1098 5.46201 36.0606 5.50162 36.0166 5.55016C35.9323 5.64339 35.8483 5.73639 35.764 5.82963C35.5811 5.75041 35.3968 5.67408 35.2118 5.59995C34.6963 5.39359 34.1726 5.41692 33.66 5.64238C33.4334 5.74203 33.2085 5.84748 32.9784 5.93657C32.9211 5.95856 32.8271 5.95473 32.7836 5.91613C32.2595 5.44886 32.2227 4.65421 32.6981 4.12877C32.7939 4.02301 32.9035 3.93204 33.0111 3.841C33.3973 3.51362 33.7422 3.1431 33.9896 2.67395C34.474 1.75475 34.1731 0.935438 33.2156 0.525391C33.2637 0.652836 33.3117 0.766581 33.3493 0.884085C33.5211 1.4168 33.4106 1.81957 32.9993 2.15243C32.9067 2.22743 32.8086 2.30187 32.703 2.34884C32.2129 2.56663 31.7199 2.77713 31.2264 2.98568C30.744 3.18945 30.2614 3.39064 29.8595 3.76726C29.3525 4.2422 29.2231 4.80944 29.5271 5.45943C29.6875 5.80247 29.9133 6.11129 30.1314 6.41636C30.2889 6.63673 30.4825 6.82524 30.664 7.03214H29.0353C29.0243 7.05484 29.0133 7.07778 29.0021 7.10056C29.4114 7.45025 29.8207 7.80002 30.2403 8.1584C29.8066 8.52218 29.366 8.89559 28.9201 9.26094C28.8717 9.30055 28.793 9.29578 28.7277 9.30791C28.2542 9.39379 27.7716 9.44076 27.3085 9.57235C26.3099 9.85566 25.4041 10.3964 24.4938 10.9167C23.5398 11.4619 22.5886 11.9775 21.4775 12.047C20.1515 12.1301 18.8305 12.3112 17.506 12.4288C16.6342 12.506 15.7601 12.5769 14.886 12.5942C13.9987 12.6118 13.1099 12.5721 12.2226 12.5332C11.859 12.5172 11.4963 12.3866 11.1356 12.3994C10.6927 12.4154 10.2532 12.5313 9.81086 12.5929C9.71224 12.6067 9.59 12.6083 9.50942 12.5568C8.35518 11.8199 7.15955 11.1761 5.92304 10.6322C4.85797 10.1636 3.76379 9.83554 2.59608 9.94357C1.44381 10.0503 0.666091 10.7724 0.393973 12.0139C0.279768 12.5348 0.371837 13.0187 0.682164 13.4125C1.42252 14.3522 2.36739 14.8306 3.49576 14.8354C3.68244 14.836 3.86904 14.7865 4.05572 14.7603C3.77528 14.9497 3.49026 15.1232 3.19488 15.2711C2.90183 15.4177 2.59834 15.5387 2.29781 15.6716C3.44049 16.1222 5.6144 15.2809 6.15547 13.6993C4.88934 14.0586 3.73073 13.6463 2.5872 12.988C2.69442 13.3515 2.79453 13.7076 2.90845 14.0586C2.92685 14.1155 3.00165 14.1605 3.05889 14.1886C3.2976 14.3061 3.53982 14.4151 3.79326 14.5332C3.76421 14.5534 3.75441 14.5664 3.74518 14.5658C2.6873 14.4869 1.81977 13.995 1.15513 13.0768C1.00208 12.8653 0.916989 12.6117 0.967606 12.337C1.05157 11.8837 1.22132 11.4769 1.56873 11.1936C2.11233 10.7506 2.73221 10.7516 3.36238 10.8295C4.20538 10.9336 4.96104 11.3239 5.72297 11.7046C6.65345 12.1696 7.37767 12.9199 8.0789 13.7021C7.93537 13.9244 7.7881 14.1228 7.6696 14.3406C7.00516 15.5642 6.81419 16.9261 6.74743 18.3212C6.69857 19.3481 6.86361 20.3459 7.09258 21.3335C7.25338 22.0272 7.21827 22.6814 6.78049 23.2489C6.56449 23.529 6.34707 23.8136 6.09766 24.0544C5.68863 24.4492 5.25748 24.8159 4.82745 25.1825C4.58557 25.3889 4.46735 25.6255 4.58212 25.9628C4.60108 26.0187 4.61116 26.0788 4.62639 26.1363C5.06615 27.8026 4.89273 29.3398 3.84063 30.6871C3.76041 30.7899 3.78917 30.8556 3.8455 30.9397C4.05607 31.254 4.33968 31.4482 4.67158 31.566C4.85593 31.6316 5.10302 31.6456 5.20482 31.787C5.31585 31.9416 5.28159 32.2189 5.33079 32.437C5.35096 32.5262 5.40728 32.6379 5.47573 32.6756C6.10189 33.0212 6.76519 33.1826 7.4653 33.0969C7.65394 33.0739 7.83808 33.0043 8.07389 32.9433C7.93241 32.6894 7.84873 32.4537 7.70061 32.2905C7.33128 31.8842 6.93121 31.5124 6.54693 31.1224C6.48109 31.0556 6.39797 30.9758 6.38098 30.8879C6.09392 29.4155 6.28257 28.0619 7.27319 26.9565C7.78888 26.3807 8.3532 25.8585 8.89687 25.3136C9.18852 25.021 9.4925 24.7425 9.77294 24.4375C9.82504 24.381 9.85838 24.3344 9.87565 24.2919C10.0097 24.1842 10.1435 24.0766 10.2775 23.969C10.3316 23.9488 10.3847 23.9252 10.4374 23.8974C10.9258 24.4302 11.4352 24.9405 11.9466 25.4487C12.3176 25.8173 12.6015 26.2495 12.7847 26.764C13.0651 27.5514 13.0795 28.3626 12.9762 29.1876C12.9685 29.2502 12.9955 29.3498 13.0381 29.384C13.9588 30.1237 14.7351 31.0267 15.4357 32.0116C15.9293 32.7054 16.3691 33.4381 16.6193 34.2896C16.6604 34.4298 16.693 34.5732 16.7396 34.7544C16.8532 34.6448 16.9464 34.5612 17.0333 34.4695C17.092 34.4075 17.1377 34.3305 17.1955 34.267C17.3592 34.0878 17.4428 34.1024 17.5467 34.3241C17.6218 34.4844 17.7031 34.6416 17.7696 34.8063C17.9353 35.2171 18.2425 35.4126 18.6175 35.5027C19.1934 35.641 19.7488 35.5324 20.2927 35.3158C20.8834 35.0804 20.9162 34.9504 20.5159 34.3934C20.1659 33.9063 19.718 33.5393 19.2152 33.2937C18.6949 33.0398 18.2977 32.6428 17.9217 32.1972C17.8475 32.1094 17.7649 32.0298 17.6911 31.9416C17.2018 31.3569 16.7083 30.7762 16.2282 30.1824C16.0418 29.9518 15.9104 29.6854 15.8948 29.3545C15.8568 28.55 15.7896 27.7468 15.7565 26.9418C15.7156 25.9508 15.6797 24.9594 15.6538 23.9676C15.8871 24.0731 16.1404 24.1354 16.4045 24.1459L16.5791 24.1529C16.6918 24.2177 16.7779 24.3222 16.8612 24.4439C17.2797 25.0533 17.7572 25.5963 18.3655 25.977C18.7086 26.1919 19.0734 26.3337 19.4916 26.3701C19.264 25.777 19.023 25.2171 19.1038 24.5573C19.1803 24.5573 19.2468 24.5576 19.3129 24.5573C19.7472 24.5547 20.183 24.5774 20.615 24.5442C21.4583 24.479 22.284 24.5774 23.0846 24.8607C23.8134 25.1188 24.5253 25.435 25.248 25.714C25.9441 25.983 26.6531 26.1213 27.3799 25.8696C27.4317 25.8517 27.4843 25.8265 27.5338 25.7955C27.6518 25.7776 27.7697 25.7579 27.887 25.7386C28.1151 25.7096 28.3426 25.6926 28.5713 25.7058C28.636 25.7217 28.7001 25.7405 28.7634 25.7613C28.9257 25.8705 29.0816 25.9715 29.2168 26.0992C30.059 26.8945 30.8939 27.6991 31.7217 28.5128C31.8425 28.6317 31.938 28.8058 31.9973 28.9747C32.3104 29.8671 32.4399 30.8042 32.4839 31.7541C32.4945 31.9824 32.5756 32.1112 32.7425 32.183C32.873 32.2392 33.0169 32.2836 33.1552 32.2849C33.389 32.2868 33.6228 32.2501 33.8668 32.2286C33.8831 32.2922 33.8993 32.3644 33.9203 32.435C34.0169 32.756 34.1119 33.0773 34.2134 33.3961C34.2635 33.5529 34.352 33.6283 34.522 33.61C34.8255 33.5771 35.1315 33.5796 35.4364 33.5627C35.9702 33.5331 36.5038 33.5002 37.0543 33.4675C37.0341 33.4062 37.0247 33.3631 37.0065 33.3251C36.5774 32.436 35.9316 31.8179 35.0785 31.4838C34.7711 31.3634 34.5076 31.1907 34.3238 30.9029C34.1446 30.6221 33.981 30.3235 33.8489 30.0124C33.5395 29.2829 33.4604 28.4821 33.3056 27.7045C33.1529 26.937 32.9605 26.1841 32.4816 25.5696C32.4456 25.5236 32.4229 25.4648 32.3976 25.4185C32.5624 25.4076 32.7108 25.4121 32.8552 25.386C33.3089 25.3042 33.689 25.0387 34.0636 24.7647C34.3141 24.581 34.3674 24.59 34.5957 24.7867C35.0823 25.206 35.6044 25.5344 36.2361 25.6187C36.8757 25.704 36.9131 25.7675 36.954 26.4712C36.9716 26.7737 37.0452 26.8855 37.2842 26.9717C37.5307 27.0609 37.5592 27.1538 37.3777 27.3809C37.2713 27.5141 37.1382 27.6237 37.0066 27.7284C36.8931 27.8191 36.7653 27.8881 36.6266 27.9778C36.8024 28.2353 36.952 28.4994 37.1413 28.7221C37.4985 29.1424 37.8626 29.5595 38.2563 29.9358C38.4145 30.0869 38.6524 30.1623 38.8653 30.208C39.0873 30.2558 39.1978 30.1517 39.2332 29.9035C39.2657 29.6755 39.2844 29.4363 39.2584 29.2092C39.2211 28.8827 39.1443 28.5605 39.0715 28.2401C38.9772 27.8243 38.9554 27.4234 39.075 26.9987C39.2855 26.2519 38.9918 25.5806 38.3824 25.1823C37.8109 24.8089 37.254 24.4048 36.7107 23.9827C36.4406 23.7728 36.2044 23.5033 36.0777 23.1446C36.025 22.9961 36.0477 22.8964 36.1527 22.7702C36.5338 22.3125 36.9463 21.8724 37.2534 21.3572C37.7597 20.5082 37.8071 19.5225 37.6984 18.5439C37.5932 17.5972 37.4166 16.6604 37.2837 15.7173C37.2267 15.3133 37.2011 14.9041 37.1646 14.5314C37.9467 14.2812 38.5691 13.8984 38.8869 13.0768C38.9948 12.7979 39.185 12.6482 39.4461 12.6198C39.6949 12.5926 39.9503 12.5582 40.1957 12.5913C40.4833 12.6303 40.7151 12.5402 40.9654 12.4016C41.2056 12.2687 41.3088 12.1173 41.2507 11.8193C41.1966 11.5412 41.2556 11.2994 41.4491 11.0802C41.5826 10.9288 41.674 10.7219 41.7543 10.5245C41.9083 10.1475 41.868 9.8166 41.5761 9.56554Z" fill="url(#paint0_linear)"/>
<defs>
<linearGradient id="paint0_linear" x1="21.0947" y1="0.52539" x2="27.0682" y2="34.5144" gradientUnits="userSpaceOnUse">
<stop stop-color="#4BB16B"/>
<stop offset="1" stop-color="#005085"/>
</linearGradient>
</defs>
</svg>
