<svg width="57" height="30" viewBox="0 0 57 30" fill="none" xmlns="http://www.w3.org/2000/svg">
<path d="M49.4133 0.279297C49.2793 0.279297 49.1395 0.279297 49.0055 0.279297C48.8307 0.476672 48.6559 0.679852 48.4752 0.883033C48.4228 0.859812 48.3645 0.824981 48.3063 0.795955C47.945 0.604385 47.7469 0.557944 47.5313 0.999135C47.4963 1.0688 47.3681 1.12685 47.2749 1.13846C46.4941 1.24876 45.7192 1.34164 44.9384 1.45194C43.977 1.58546 43.0214 1.70156 42.124 2.12533C40.7373 2.78132 39.333 3.39666 37.9346 4.01781C37.7365 4.10489 37.5151 4.14553 37.2995 4.16875C36.6061 4.2326 35.8952 4.20938 35.2135 4.3371C33.5354 4.64477 31.8573 4.82473 30.15 4.81892C27.5221 4.80731 24.8884 4.80731 22.2606 4.80731C22.0974 4.80731 21.9284 4.80731 21.7653 4.83053C20.1687 5.05113 18.578 5.28914 16.9815 5.49813C15.5539 5.68389 14.2196 6.10186 13.0076 6.87975C12.052 7.4951 11.3062 8.27879 10.9857 9.40499C10.5837 10.8156 10.339 12.2495 10.1933 13.7066C10.1059 14.6006 10.0826 15.5062 9.88448 16.377C9.51156 18.0431 8.62006 19.3144 6.82542 19.6859C6.26022 19.802 5.67172 19.8368 5.09487 19.8136C4.18006 19.7788 3.37014 19.4769 2.72919 18.7513C2.29218 18.2578 1.75029 17.8457 1.23171 17.4277C0.765568 17.0562 0.56163 17.091 0.182888 17.5148C0.182888 17.6483 0.182888 17.7876 0.182888 17.9211C0.27029 18.0779 0.334385 18.2637 0.456749 18.3914C0.952026 18.9312 1.424 19.506 1.98336 19.982C4.02856 21.7119 6.89534 21.77 8.71329 20.5102C10.5196 19.2563 11.5917 17.6019 11.953 15.4656C12.1511 14.2929 12.3375 13.1203 12.5357 11.9476C12.5531 11.8374 12.6056 11.7271 12.6405 11.6226C12.6697 11.6284 12.6988 11.6284 12.7338 11.6342C12.7862 12.1392 12.8445 12.6501 12.8794 13.1551C13.0193 15.2566 12.8969 17.3522 12.7513 19.4421C12.6755 20.5219 12.5124 21.5842 11.7316 22.4259C11.1139 23.0877 10.9566 23.8772 11.1431 24.7422C11.1664 24.8467 11.1722 24.9512 11.1955 25.0557C11.3587 25.8394 11.5218 26.6289 12.0171 27.2907C12.3783 27.7725 12.7279 28.2601 13.0659 28.7536C13.165 28.8987 13.264 28.9567 13.4388 28.9625C14.0098 28.9858 14.5809 29.0264 15.1519 29.0612C15.385 29.0612 15.618 29.0612 15.8511 29.0612C16.0609 28.173 15.6646 27.6564 14.744 27.6796C14.4177 27.6912 14.272 27.5519 14.1497 27.3023C13.7418 26.4896 13.8467 25.6826 14.2196 24.8989C14.8023 23.6799 15.5772 22.5827 16.4862 21.5726C16.5095 21.5436 16.5445 21.5261 16.6202 21.4681C16.4746 22.1937 16.4046 22.8729 15.9327 23.4535C15.6355 23.8134 15.6297 24.2894 15.8686 24.6841C16.4163 25.5723 17.0048 26.4373 17.5875 27.3081C17.704 27.4822 17.8555 27.639 18.0012 27.7957C18.3333 28.1382 18.6713 28.4807 19.015 28.8174C19.0791 28.8755 19.1665 28.9451 19.2481 28.9451C20.2387 28.9509 21.2292 28.9567 22.2198 28.9451C22.2955 28.9451 22.4121 28.8522 22.4295 28.7826C22.5635 28.2891 22.348 27.7725 21.8702 27.5751C21.5555 27.4416 21.2001 27.4126 20.8621 27.3371C20.7747 27.3139 20.6582 27.3081 20.5999 27.25C20.0872 26.745 19.6152 26.2109 19.2947 25.5549C19.085 25.1195 19.0791 24.7074 19.2772 24.2488C19.9823 22.5943 20.664 20.934 21.3341 19.2679C21.7478 18.2346 22.1032 17.1839 22.5169 16.1564C22.7034 15.692 22.7675 15.692 23.2453 15.8081C25.0341 16.2493 26.8229 16.6847 28.6117 17.1375C30.9017 17.7238 33.2149 17.927 35.5689 17.7064C36.4371 17.6251 37.3053 17.5612 38.1735 17.4916C38.1851 17.509 38.2026 17.5206 38.2084 17.538C38.8377 19.3028 39.2398 21.1024 39.0883 22.9949C39.0533 23.407 39.0358 23.825 39.03 24.243C39.0184 25.433 39.0475 26.6231 39.2747 27.7957C39.3214 28.0279 39.4321 28.1614 39.6651 28.1847C40.4459 28.2659 41.2267 28.3704 42.0075 28.4227C42.6485 28.4633 43.1729 28.2717 43.5225 27.6448C43.9012 26.9714 43.6448 26.2167 42.8873 26.0426C42.7825 26.0193 42.6776 25.9903 42.5727 25.9903C42.293 25.9903 42.1299 25.8626 42.0425 25.6014C41.9609 25.3459 41.7511 25.1486 41.8152 24.8235C42.2697 22.4608 42.6951 20.0923 43.1437 17.7238C43.1787 17.5496 43.3011 17.3871 43.4176 17.2419C43.7031 16.8704 44.0585 16.5337 44.2974 16.139C44.7053 15.4598 44.8801 14.6819 44.9325 13.8982C44.985 13.1029 45.2064 12.3714 45.6551 11.7271C45.8765 11.4136 46.1737 11.1175 46.5 10.9201C47.0244 10.6009 47.5138 10.2816 47.7585 9.68364C47.9625 9.70106 48.1548 9.73589 48.347 9.72428C48.7607 9.68945 49.2094 9.71847 49.5707 9.55012C49.9785 9.36436 50.2349 9.49207 50.5029 9.72428C50.6778 9.87521 50.8001 10.0784 50.9691 10.2351C51.2138 10.4615 51.4527 10.7286 51.7441 10.8621C52.6064 11.2452 53.3115 10.6995 53.2648 9.69525C53.2532 9.46885 53.3173 9.32372 53.4513 9.16118C53.597 8.98122 53.7018 8.76643 53.8242 8.56905C53.8009 8.55744 53.7776 8.54583 53.7543 8.52842C53.6144 8.60969 53.4746 8.69096 53.2998 8.78965C53.3289 8.6271 53.3406 8.52842 53.3697 8.35426C53.2415 8.47036 53.1774 8.52842 53.1192 8.58647C52.5074 9.12635 52.2918 9.05668 52.082 8.24977C52.0762 8.23235 52.0878 8.21494 52.1053 8.1685C52.2044 8.15689 52.3209 8.13367 52.4316 8.14528C52.8453 8.1743 53.2648 8.20333 53.6785 8.24977C54.6574 8.36007 55.2401 7.99434 55.6072 7.08874C55.7296 6.74043 55.9393 6.45017 56.1141 6.1425C56.1141 6.06703 56.1141 5.98576 56.1141 5.91029C55.5664 5.38202 55.0187 4.85376 54.4652 4.3371C54.3311 4.21519 54.2321 4.1165 54.2496 3.90752C54.2612 3.7798 54.2088 3.60565 54.1156 3.51277C53.0085 2.38657 51.9014 1.24876 50.1825 1.09782C50.1184 1.09202 50.0135 1.01655 50.0077 0.97011C49.9611 0.59858 49.7629 0.377984 49.4133 0.279297Z" fill="url(#paint0_linear)"/>
<defs>
<linearGradient id="paint0_linear" x1="28.1485" y1="0.279297" x2="25.1008" y2="28.7348" gradientUnits="userSpaceOnUse">
<stop stop-color="#4BB16B"/>
<stop offset="1" stop-color="#005085"/>
</linearGradient>
</defs>
</svg>
