<svg width="53" height="31" viewBox="0 0 53 31" fill="none" xmlns="http://www.w3.org/2000/svg">
<path d="M0.531948 9.08637C1.25926 8.59287 1.68585 7.82995 2.27428 7.2134C2.3132 7.17238 2.34165 7.12058 2.3825 7.08221C2.65854 6.82349 2.79147 6.54138 2.61209 6.16043C2.53003 5.98594 2.5806 5.79629 2.72895 5.65761C3.01361 5.39149 3.28065 5.09851 3.59782 4.8778C4.03597 4.57294 4.51846 4.33213 4.97286 4.04847C5.11322 3.96086 5.22677 3.82812 5.3451 3.7089C5.48179 3.57095 5.59461 3.40514 5.74626 3.28766C5.94436 3.13491 6.10877 3.16168 6.3088 3.31114C6.35369 3.34467 6.42162 3.36367 6.47853 3.3633C6.6927 3.36257 6.90732 3.35654 7.12121 3.34165C7.34107 3.32676 7.56423 3.31854 7.77848 3.27377C8.42713 3.13811 9.0688 2.967 9.71965 2.84513C10.5638 2.68672 11.4137 2.57299 12.2797 2.6204C12.7834 2.64799 13.2643 2.53471 13.734 2.33226C14.8688 1.8436 16.0689 1.5562 17.2636 1.25545C17.8689 1.10307 18.4655 0.905837 19.0783 0.795114C19.7169 0.679549 20.3734 0.60281 21.0188 0.763778C21.8345 0.967684 22.6185 1.26623 23.3803 1.62252C23.499 1.67807 23.6496 1.70447 23.78 1.69104C24.8092 1.58671 25.8361 1.4738 26.8725 1.44657C27.4512 1.43131 28.0272 1.32205 28.6051 1.2613C29.271 1.19123 29.9392 1.14016 30.6036 1.05931C31.3496 0.968781 32.0931 0.8555 32.8373 0.749527C33.2179 0.695536 33.5969 0.632135 33.9778 0.580702C35.4797 0.377162 36.982 0.199841 38.5048 0.31641C39.7314 0.410324 40.9663 0.433071 42.1536 0.806533C42.2723 0.843806 42.3719 0.938451 42.4869 0.992533C42.7038 1.0943 42.918 1.21243 43.1469 1.27656C43.6926 1.42894 44.1668 1.71379 44.6282 2.02348C45.1832 2.39621 45.772 2.73505 46.2691 3.17484C47.1691 3.9721 48.023 4.81266 48.6755 5.84918C49.4043 7.0073 49.8519 8.26444 50.2284 9.55968C50.446 10.3078 50.6808 11.0514 50.88 11.8043C50.9958 12.2408 51.0695 12.6895 51.1373 13.1368C51.1879 13.4708 51.1332 13.7977 50.9939 14.1133C50.9433 14.2278 50.9677 14.3728 50.9414 14.5002C50.8909 14.7495 50.9058 15.0713 50.7534 15.2278C50.5329 15.454 50.4767 15.7973 50.17 15.955C50.0861 15.9155 49.991 15.8703 49.8734 15.8149C49.8734 15.9136 49.8734 15.995 49.8734 16.087C49.4992 15.986 49.716 16.2912 49.6198 16.4288C49.5475 16.3747 49.4741 16.3196 49.3955 16.2606C49.2909 16.4914 49.2071 16.2603 49.0925 16.2312C49.0539 16.4213 49.043 16.6204 48.9718 16.7948C48.8227 17.1605 48.9828 17.4691 49.1153 17.7829C49.5434 18.796 50.0932 19.7413 50.7456 20.6269C51.1531 21.1796 51.5689 21.726 51.9876 22.2705C52.1176 22.4398 52.2591 22.6031 52.4138 22.7495C52.5877 22.9139 52.6704 23.0965 52.6479 23.3366C52.6277 23.5531 52.5838 23.7771 52.731 23.9747C52.7411 23.988 52.743 24.0115 52.7404 24.0291C52.7033 24.3064 52.6632 24.5833 52.6273 24.8607C52.6154 24.9536 52.6011 25.0486 52.6093 25.1406C52.6273 25.3411 52.5509 25.4936 52.4022 25.6206C52.3716 25.6468 52.3236 25.6911 52.3295 25.7157C52.3835 25.9334 52.2022 26.0553 52.1341 26.2223C52.094 26.3202 52.0711 26.4265 52.052 26.5309C52.0003 26.8145 51.958 27.1001 51.904 27.383C51.8962 27.4251 51.8543 27.4727 51.8149 27.4948C51.6336 27.5955 51.5932 27.7594 51.643 27.9324C51.7606 28.3409 51.7089 28.7121 51.4666 29.0644C51.4322 29.1144 51.4535 29.2127 51.4704 29.2839C51.4876 29.3554 51.533 29.4203 51.5633 29.4893C51.6068 29.5877 51.5854 29.6418 51.473 29.6872C51.3229 29.748 51.1711 29.824 51.0476 29.9265C50.8446 30.0946 50.6184 30.1442 50.366 30.1374C49.0393 30.1016 47.7127 30.067 46.3862 30.0339C46.2821 30.0313 46.2105 30.0148 46.1352 29.9157C46.0678 29.8273 45.9232 29.7934 45.8078 29.7464C45.586 29.6563 45.552 29.437 45.5584 29.2671C45.5708 28.9563 45.6457 28.6453 45.718 28.3402C45.7651 28.1415 45.8914 27.989 46.0648 27.862C46.1509 27.7987 46.212 27.6547 46.221 27.5426C46.2453 27.2396 46.4735 27.0715 46.6802 26.9626C46.909 26.8418 46.9674 26.6867 46.9884 26.475C46.9962 26.3949 46.9895 26.3129 46.9458 26.2577C46.8986 26.2037 46.8431 26.1541 46.806 26.0937C46.7671 26.03 46.7488 25.9544 46.7151 25.8868C46.6929 25.8425 46.66 25.7679 46.6308 25.7675C46.3679 25.763 46.2728 25.5002 46.0618 25.4097C45.9352 25.3553 45.8454 25.211 45.7443 25.1026C45.6039 24.9513 45.4694 24.7947 45.3304 24.6419C45.1667 24.4614 45.0008 24.2829 44.8368 24.1026C44.7926 24.0537 44.751 24.0026 44.7019 23.9453C44.678 23.9811 44.6612 23.9952 44.6585 24.0116C44.5334 24.8697 44.351 25.724 44.4529 26.5991C44.4768 26.8045 44.5278 27.0069 44.566 27.2107C44.6099 27.4456 44.4723 27.6214 44.2296 27.6189C43.9397 27.6156 43.7472 27.7535 43.5524 27.9573C43.4453 28.0695 43.23 28.1161 43.0596 28.1258C42.524 28.156 41.9866 28.1701 41.4502 28.1627C40.4775 28.1493 39.5049 28.1213 38.5329 28.0871C38.3049 28.0792 38.0794 28.0181 37.8517 27.989C37.7652 27.9779 37.6765 27.9871 37.5816 27.9871C37.3929 27.7061 37.5041 27.2521 37.8041 27.0851C37.8641 27.0515 37.921 26.9904 37.9506 26.9286C38.0772 26.6625 38.2165 26.4249 38.524 26.315C38.73 26.2412 38.8237 26.0378 38.8416 25.8323C38.8693 25.5141 38.876 25.1927 38.8696 24.8734C38.8561 24.1942 38.8561 23.5133 38.7985 22.8375C38.7442 22.2035 38.6408 21.5718 38.5254 20.9452C38.3992 20.2593 38.2351 19.5805 38.085 18.8992C38.0688 18.8261 38.0403 18.7549 38.0122 18.6852C37.9017 18.4071 37.901 18.4206 37.598 18.4224C37.334 18.4239 37.0699 18.3926 36.8058 18.3748C36.7628 18.3718 36.72 18.3635 36.6541 18.3549C36.6541 18.4814 36.6541 18.5969 36.6541 18.7217C36.6092 18.7217 36.5837 18.7285 36.5639 18.7206C36.3312 18.6274 36.1009 18.5846 35.847 18.6542C35.6306 18.7134 35.429 18.6415 35.2466 18.412C35.2466 18.5625 35.2466 18.6446 35.2466 18.7653C35.0679 18.6922 34.9214 18.6237 34.7687 18.5745C34.7128 18.5567 34.6413 18.5823 34.578 18.595C34.5211 18.6062 34.4637 18.6454 34.4106 18.6393C34.2539 18.6219 34.0866 18.6166 33.9465 18.5547C33.6226 18.4116 33.2783 18.4861 32.9401 18.4146C32.9259 18.4768 32.9139 18.5294 32.8922 18.6233C32.7881 18.5719 32.69 18.5383 32.6098 18.4798C32.5031 18.4019 32.4065 18.3654 32.2634 18.3829C32.1357 18.3985 31.9758 18.3679 31.8705 18.2978C31.6843 18.1738 31.4985 18.1011 31.2806 18.1272C31.2365 18.1763 31.1848 18.221 31.1503 18.2759C31.1222 18.321 31.1143 18.3783 31.0866 18.4641C31.0008 18.4093 30.9016 18.3684 30.8331 18.2976C30.663 18.122 30.456 18.037 30.2245 17.9748C30.0345 17.9237 29.8563 17.8302 29.6507 17.7463C29.5211 17.8492 29.3796 17.7523 29.2466 17.6609C29.1152 17.5704 29.0014 17.4645 28.8316 17.598C28.7848 17.6349 28.6983 17.624 28.6298 17.6308C28.5043 17.6426 28.3803 17.5375 28.2437 17.6572C28.2084 17.6881 28.0407 17.5901 27.9485 17.5294C27.8197 17.4444 27.7043 17.3389 27.583 17.242C27.5684 17.2524 27.5534 17.2632 27.5388 17.2737C27.7261 17.6669 27.9134 18.0601 28.1096 18.4723C28.0389 18.4723 27.983 18.4723 27.8883 18.4723C27.9943 18.6397 28.0875 18.7873 28.1811 18.9349C28.171 18.9479 28.1606 18.961 28.1505 18.9741C28.074 18.946 27.998 18.9182 27.8804 18.8753C27.9553 19.0259 28.0164 19.1485 28.0973 19.3113C27.9595 19.286 27.8654 19.2689 27.7295 19.2439C27.7887 19.3695 27.8298 19.4776 27.8883 19.5753C28.0273 19.8067 28.1366 20.0281 28.1539 20.3211C28.173 20.6472 28.3131 20.9696 28.4239 21.2854C28.4933 21.4829 28.57 21.6638 28.528 21.8855C28.5041 22.0126 28.5662 22.1545 28.5805 22.2909C28.5891 22.374 28.5801 22.4586 28.5785 22.5425C28.5062 22.509 28.434 22.4755 28.3178 22.4218C28.3339 22.5041 28.3441 22.5787 28.3646 22.6507C28.3837 22.7185 28.4511 22.7833 28.3287 22.8321C28.3047 22.8418 28.302 22.9469 28.3155 23.0014C28.4396 23.5005 28.5691 23.9984 28.7036 24.5225C28.7028 24.5233 28.6631 24.5497 28.617 24.581C28.6811 24.7133 28.744 24.8446 28.8091 24.979C28.4668 25.0849 28.4196 25.155 28.4874 25.4972C28.5349 25.7357 28.6174 25.9675 28.6657 26.2061C28.7409 26.5767 28.8 26.9501 28.8675 27.3288C28.4926 27.343 28.4989 27.3433 28.4855 27.6845C28.4825 27.7642 28.4207 27.8414 28.3881 27.9203C28.3739 27.9542 28.3511 27.9911 28.3548 28.0244C28.3762 28.2215 28.2455 28.3199 28.1083 28.4146C27.705 28.693 27.2443 28.7296 26.7713 28.7586C25.5233 28.8351 24.2772 28.9354 23.03 29.0259C22.9356 29.0326 22.8402 29.0531 22.7473 29.0438C22.4469 29.014 22.1622 29.0736 21.8687 29.131C21.5839 29.1865 21.2799 29.1437 20.9847 29.1407C20.9637 29.1403 20.9375 29.119 20.9229 29.1005C20.8094 28.9547 20.6866 28.9178 20.5177 29.027C20.4716 29.0568 20.3756 29.0102 20.2749 28.9942C20.2101 29.1545 20.0955 29.1098 19.9629 29.0021C19.8277 28.8917 19.6869 28.9193 19.5378 28.9908C19.4154 29.0494 19.2801 29.081 19.121 29.1347C19.1304 28.8851 19.2487 28.7683 19.3723 28.6505C19.4184 28.6066 19.4786 28.5402 19.4745 28.4884C19.4534 28.2323 19.5584 28.0191 19.6891 27.8175C19.8019 27.6438 19.9082 27.4497 20.0658 27.3254C20.2142 27.2092 20.4209 27.1529 20.6111 27.1055C20.952 27.0202 21.2999 26.9636 21.6437 26.889C21.6868 26.8797 21.7329 26.8416 21.7576 26.804C21.7924 26.7514 21.8085 26.687 21.8329 26.6273C21.8575 26.65 21.8826 26.6732 21.9074 26.6959C21.9515 26.7876 21.9958 26.8792 22.0396 26.971C22.059 26.965 22.0785 26.959 22.098 26.9535C22.2366 26.4041 22.3077 25.8543 22.1317 25.2922C22.0628 25.072 22.0209 24.8435 21.9736 24.6167C21.9006 24.2668 21.8429 23.9135 21.7613 23.5652C21.7119 23.3547 21.6152 23.1657 21.41 23.0491C21.3576 23.0193 21.3269 22.9436 21.2966 22.8839C21.2145 22.7237 21.1277 22.5645 21.0617 22.3975C20.9939 22.226 20.9287 22.0494 20.8984 21.869C20.8692 21.6942 20.8594 21.5302 20.7287 21.3838C20.6628 21.3099 20.6639 21.1739 20.6407 21.0651C20.5737 20.7509 20.5092 20.4363 20.4396 20.1005C20.3007 20.26 20.2441 20.1899 20.1958 20.0293C20.1568 19.9007 20.0824 19.7829 20.0153 19.6439C19.9452 19.6971 19.8985 19.733 19.8325 19.7828C19.774 19.655 19.7033 19.5375 19.667 19.4108C19.6123 19.22 19.5842 19.0221 19.5407 18.8279C19.5228 18.7474 19.5275 18.6441 19.3867 18.6639C19.3617 18.6672 19.3074 18.5942 19.2979 18.5498C19.274 18.4403 19.2684 18.3266 19.2549 18.2095C19.0579 18.3038 19.0725 18.1543 19.0482 18.0429C18.9477 17.5889 18.7534 17.1741 18.5373 16.7682C18.5193 16.7689 18.5013 16.7701 18.4838 16.7707C18.4658 16.8964 18.4369 17.0216 18.4317 17.1476C18.4186 17.4551 18.4168 17.7633 18.4089 18.0712C18.4047 18.236 18.3516 18.3443 18.1463 18.2609C18.1247 18.385 18.098 18.4943 18.0883 18.605C18.0748 18.7555 18.0467 18.8707 17.8587 18.7592C17.8164 18.8461 17.7815 18.9183 17.7478 18.9877C17.5842 18.9746 17.3344 19.208 17.346 19.3638C17.3643 19.6157 17.3796 19.8573 17.1778 20.0645C17.1115 20.1324 17.1014 20.2613 17.0811 20.3653C17.0541 20.5047 16.977 20.5901 16.849 20.5111C16.6414 20.3829 16.4579 20.5454 16.2627 20.5275C16.2396 20.5253 16.2032 20.5849 16.186 20.6222C16.1246 20.7534 16.0725 20.8887 16.0104 21.0192C15.9002 21.2495 15.8714 21.2614 15.6268 21.194C15.5987 21.2678 15.5762 21.346 15.5388 21.4165C15.5151 21.4612 15.4724 21.5216 15.4321 21.5273C15.2481 21.5526 15.2235 21.6764 15.2115 21.8251C15.1848 22.1482 15.1024 22.2403 14.8025 22.3317C14.7519 22.3469 14.7028 22.3973 14.6729 22.4438C14.629 22.5117 14.6093 22.5944 14.5688 22.6653C14.4343 22.9001 14.3834 22.9012 14.2403 22.6678C14.0511 22.7823 13.8833 22.7166 13.7144 22.5612C13.6646 22.6678 13.6212 22.7558 13.5819 22.8456C13.5009 23.0286 13.4009 23.1845 13.1935 23.2586C13.1422 23.2769 13.0917 23.404 13.1036 23.4703C13.1351 23.6488 13.0766 23.7648 12.9335 23.8651C12.8417 23.9295 12.7739 24.0275 12.6836 24.0946C12.4762 24.2478 12.3997 24.2273 12.2601 23.9687C12.0413 24.0578 11.8069 24.1297 11.5967 24.2456C11.3735 24.3686 11.1679 24.4531 10.9217 24.3138C10.8675 24.2832 10.7873 24.294 10.7188 24.2936C10.5757 24.2929 10.4311 24.2877 10.2895 24.3033C10.1986 24.3133 10.1052 24.3465 10.024 24.3901C9.91875 24.4464 9.8231 24.521 9.7258 24.5906C9.54156 24.7233 9.343 24.7568 9.1348 24.6633C8.48093 24.3695 7.81419 24.494 7.14756 24.5944C7.09248 24.6026 7.03483 24.6137 6.98058 24.6074C6.54647 24.5549 6.11354 24.5012 5.68806 24.6678C5.65657 24.6801 5.58726 24.6264 5.55173 24.5884C5.52438 24.5594 5.52438 24.5061 5.50868 24.4654C5.49289 24.4252 5.4727 24.3868 5.46297 24.3666C5.33794 24.3666 5.20383 24.405 5.12965 24.3551C5.06558 24.3118 5.06971 24.1683 5.04006 24.055C4.8236 24.1385 4.7363 24.0874 4.79734 23.8604C4.80487 23.8324 4.73253 23.7572 4.68801 23.7476C4.62476 23.7341 4.55279 23.7632 4.48422 23.7707C4.41831 23.7777 4.35203 23.7796 4.28576 23.784C4.29062 23.7065 4.28649 23.6267 4.30365 23.5522C4.31715 23.4936 4.35726 23.4407 4.40784 23.342C4.2292 23.342 4.07746 23.342 3.91461 23.342C4.02431 23.0192 4.17073 22.8906 4.44043 22.8164C4.53636 22.6867 4.58878 22.5842 4.66928 22.513C4.8985 22.3092 5.15251 22.1478 5.47306 22.125C5.52245 22.1216 5.57423 22.1078 5.61949 22.0874C6.02358 21.9048 6.4263 21.9069 6.82856 22.1023C7.18731 21.5159 7.53862 20.9387 7.89442 20.3642C7.96373 20.2524 8.05774 20.1563 8.13035 20.0464C8.24005 19.8806 8.34084 19.7087 8.44577 19.5395C8.47532 19.4914 8.49598 19.4336 8.536 19.397C8.82507 19.1361 8.97269 18.7861 9.15435 18.4554C9.29884 18.192 9.47041 17.9427 9.63042 17.6873C9.64382 17.6661 9.66291 17.6481 9.67457 17.6262C9.86974 17.2634 10.0644 16.9005 10.2584 16.5371C10.2697 16.5159 10.2783 16.4894 10.2779 16.4654C10.273 16.2433 10.3891 16.0816 10.5479 15.9477C10.7476 15.78 10.824 15.5619 10.8872 15.3156C10.9977 14.887 11.1534 14.4699 11.2891 14.0475C11.3314 13.916 11.3651 13.7814 11.4116 13.6513C11.4939 13.4221 11.5831 13.1951 11.6891 12.9148C11.5374 12.8608 11.3569 12.7967 11.1594 12.7263C11.134 12.8284 11.1197 12.8858 11.0954 12.9831C10.9703 12.9078 10.8579 12.8404 10.7339 12.7661C10.6601 12.939 10.553 12.8585 10.4538 12.794C10.3639 12.7358 10.284 12.6625 10.1942 12.6039C10.0961 12.5398 10.0099 12.4251 9.86386 12.5361C9.83091 12.5611 9.74287 12.5238 9.68403 12.5037C9.46353 12.4276 9.24661 12.3385 9.02345 12.2722C8.95525 12.2517 8.86987 12.2878 8.7923 12.2983C8.78927 12.324 8.78661 12.3494 8.78367 12.3751C8.64616 12.3057 8.50837 12.2368 8.34433 12.1544C8.3245 12.2617 8.30834 12.3493 8.28778 12.4597C8.14586 12.3807 8.01331 12.3016 7.87542 12.2319C7.70092 12.1436 7.52264 12.0631 7.34511 11.9803C7.31105 11.9643 7.25974 11.9323 7.24101 11.9445C7.07283 12.0552 6.95634 11.892 6.81442 11.8745C6.66948 11.8565 6.52039 11.8714 6.37554 11.8528C6.20957 11.8316 6.04626 11.7887 5.87478 11.754C5.76545 11.9102 5.74066 11.9054 5.59947 11.7328C5.54779 11.6699 5.46756 11.5968 5.39431 11.5893C5.03841 11.5528 4.67295 11.5748 4.32532 11.5047C3.9103 11.4209 3.56128 11.6218 3.18142 11.6807C2.86206 11.7307 2.5751 11.7138 2.35368 11.4485C2.23416 11.3054 2.07581 11.2796 1.9024 11.2603C1.78958 11.2476 1.66979 11.2055 1.57505 11.1436C1.28185 10.9517 0.999107 10.7254 0.872063 10.3967C0.757496 10.0997 0.611355 9.84499 0.38443 9.62217C0.257748 9.49528 0.310989 9.23619 0.531948 9.08637Z" fill="url(#paint0_linear)"/>
<defs>
<linearGradient id="paint0_linear" x1="26.5292" y1="0.279297" x2="23.0387" y2="29.7243" gradientUnits="userSpaceOnUse">
<stop stop-color="#4BB16B"/>
<stop offset="1" stop-color="#005085"/>
</linearGradient>
</defs>
</svg>
