<svg width="41" height="38" viewBox="0 0 41 38" fill="none" xmlns="http://www.w3.org/2000/svg">
<path d="M1.80737 7.94919C2.73027 7.83024 3.6225 7.6063 4.47317 7.25129C4.74243 7.13886 5.00429 7.0059 5.25558 6.86115C5.71895 6.5941 6.21914 6.41138 6.74961 6.33548C7.29033 6.25804 7.68953 6.00186 8.00812 5.6015C8.28646 5.25181 8.48456 4.85674 8.67685 4.45936C8.72491 4.35999 8.73554 4.24291 8.76195 4.13364C8.782 4.05031 8.79573 3.96501 8.8188 3.88287C8.86374 3.72467 8.94909 3.61424 9.13219 3.56806C9.39859 3.50109 9.60974 3.34478 9.76599 3.12589C9.87853 2.96816 9.9436 2.79409 9.93592 2.59807C9.92542 2.33421 9.90876 2.07032 9.90373 1.80661C9.90124 1.67828 9.91078 1.54862 9.93006 1.42184C9.95249 1.2753 10.023 1.14757 10.1341 1.04421C10.268 0.920092 10.4396 0.914619 10.5627 1.05389C10.648 1.15055 10.7183 1.26922 10.7615 1.38897C10.943 1.89365 11.0414 2.4127 11.0456 2.9452C11.0468 3.13961 11.1147 3.31659 11.2185 3.4809C11.3798 3.73544 11.5784 3.81551 11.8763 3.74807C12.3585 3.63869 12.8394 3.52379 13.3223 3.41653C13.5935 3.35638 13.866 3.30084 14.1403 3.25317C14.9922 3.1046 15.5636 2.26806 15.3951 1.43504C15.3352 1.13805 15.3449 0.83383 15.4009 0.536006C15.4147 0.463407 15.4424 0.390863 15.4772 0.325114C15.567 0.154985 15.7159 0.108364 15.8973 0.196916C16.1056 0.298335 16.2557 0.45881 16.3561 0.660623C16.5214 0.993705 16.5917 1.34944 16.6176 1.71079C16.6404 2.03327 16.6466 2.3569 16.6484 2.67968C16.6496 2.95772 16.7128 3.21393 16.8934 3.43938C17.0001 3.57251 17.1358 3.668 17.303 3.7147C18.021 3.91553 18.7385 4.12151 19.477 4.23164C19.8534 4.28766 20.2342 4.31482 20.613 4.35447C20.6352 4.35669 20.6585 4.35858 20.68 4.35448C21.2031 4.25486 21.7095 4.11343 22.1408 3.80022C22.4247 3.59396 22.6183 3.32397 22.6838 2.98265C22.7066 2.86397 22.6936 2.73712 22.6869 2.61423C22.6777 2.44223 22.6553 2.27062 22.6465 2.09833C22.64 1.97222 22.6498 1.95986 22.7499 1.82064C22.8863 1.88241 23.0187 1.93897 23.148 2.00215C23.2836 2.06833 23.4134 2.146 23.55 2.20972C23.7317 2.29443 23.92 2.30181 24.1031 2.22443C24.2349 2.16877 24.3641 2.10623 24.4892 2.03838C24.6051 1.97563 24.7109 1.89595 24.8274 1.83398C24.9386 1.77516 25.0539 1.71879 25.1741 1.68096C25.3448 1.62737 25.4609 1.73295 25.4262 1.90359C25.4012 2.0279 25.3335 2.1333 25.2368 2.21737C25.0312 2.39629 24.8259 2.57527 24.6157 2.74872C24.4011 2.92591 24.1767 3.09216 23.964 3.27121C23.7459 3.45499 23.5619 3.6682 23.425 3.91689C23.3373 4.07626 23.2815 4.2381 23.4248 4.39645C23.573 4.56026 23.7647 4.60339 23.9754 4.54625C24.277 4.46473 24.564 4.3472 24.8247 4.18241C25.1026 4.00649 25.3711 3.81734 25.6449 3.63515C25.946 3.43498 26.2457 3.23286 26.5505 3.03796C26.7499 2.91051 26.9631 2.80716 27.2093 2.7831C27.226 2.78158 27.2425 2.77846 27.2591 2.77724C27.5448 2.75864 27.6211 2.85455 27.5316 3.12084C27.4751 3.28934 27.3615 3.42039 27.2289 3.53575C27.0809 3.6643 26.9333 3.79529 26.7728 3.90917C26.3044 4.24162 25.8368 4.57628 25.3557 4.89136C24.738 5.29569 24.0404 5.5313 23.3107 5.68092C22.7936 5.78738 22.2666 5.77071 21.7394 5.7309C21.5446 5.7163 21.3513 5.68131 21.1543 5.71753C20.6801 5.80429 20.2824 6.21552 20.2504 6.66584C20.2388 6.83046 20.2701 6.9878 20.3706 7.12843C20.43 7.21142 20.462 7.30151 20.4619 7.40204C20.4615 7.49341 20.4285 7.5695 20.3578 7.62943C20.1528 7.80393 19.9164 7.91292 19.638 7.93246C19.5822 7.93635 19.5259 7.94443 19.4705 7.94067C19.1008 7.9141 18.7507 8.00536 18.3983 8.08332C17.725 8.23246 17.0463 8.35801 16.3582 8.43562C15.4947 8.53302 14.6296 8.54916 13.7641 8.40185C13.6707 8.38583 13.5793 8.35702 13.4866 8.33569C13.2904 8.29048 13.0952 8.24094 12.8979 8.20256C12.6998 8.16429 12.5014 8.18851 12.3224 8.26338C12.0239 8.38833 11.71 8.45483 11.3941 8.51961C11.3017 8.53864 11.2096 8.56113 11.1192 8.58756C10.755 8.69497 10.5788 8.95453 10.6419 9.32403C10.6737 9.50879 10.7212 9.69683 10.7986 9.8688C11.0011 10.321 11.0501 10.7891 10.9996 11.2645C10.9518 11.7127 10.8709 12.1572 10.8082 12.6038C10.7306 13.1565 10.6368 13.7078 10.5854 14.2635C10.5139 15.0357 10.5285 15.8121 10.5871 16.5878C10.6036 16.808 10.6172 17.0291 10.6453 17.2484C10.7296 17.8995 11.0233 18.4665 11.4482 18.977C11.8676 19.4806 12.3796 19.8781 12.9638 20.1898C14.0526 20.7708 15.2133 21.1567 16.4222 21.4087C17.1259 21.5553 17.833 21.5769 18.5454 21.5323C19.3504 21.4822 20.1405 21.3457 20.9338 21.2257C21.4736 21.1441 22.0149 21.0635 22.559 21.0143C22.8623 20.987 23.1742 21.0102 23.4805 21.036C24.0386 21.083 24.5961 21.1418 25.1525 21.2085C25.5311 21.254 25.9048 21.3321 26.2669 21.4553C26.3346 21.4782 26.4065 21.5062 26.4598 21.5505C26.7871 21.8218 27.1475 22.0465 27.5232 22.2456C27.9228 22.4572 28.2853 22.7117 28.5978 23.0309C29.0525 23.4951 29.6183 23.7985 30.201 24.0768C30.5127 24.226 30.8452 24.3006 31.1912 24.3184C31.2671 24.3223 31.3482 24.3397 31.4161 24.3724C31.5326 24.4286 31.5537 24.5136 31.5077 24.6295C31.3703 24.9764 31.0968 25.1613 30.7291 25.2346C30.6091 25.2585 30.4869 25.2727 30.3684 25.3013C30.2994 25.3178 30.2317 25.3475 30.1705 25.3822C30.0478 25.452 29.9942 25.5595 30.031 25.697C30.0769 25.8696 30.1095 26.0486 30.1845 26.21C30.4014 26.6775 30.5312 27.1695 30.6892 27.6541C30.7296 27.7776 30.7737 27.9006 30.8252 28.0205C30.91 28.217 31.051 28.3633 31.2475 28.4708C31.4892 28.6028 31.7314 28.7265 32.004 28.7853C32.2252 28.8328 32.4443 28.8394 32.6707 28.8184C33.0373 28.7842 33.4063 28.7709 33.774 28.8539C33.9766 28.8994 34.1236 28.9907 34.2295 29.1757C34.4398 29.5434 34.5996 29.9297 34.7582 30.3178C34.9435 30.771 35.1244 31.2268 35.3361 31.669C35.4598 31.9277 35.6306 32.1685 35.7981 32.4058C35.9759 32.6572 36.1738 32.8955 36.3648 33.1381C36.5375 33.3572 36.7552 33.5298 36.9847 33.6902C37.204 33.8437 37.4285 33.9905 37.6413 34.1521C37.7782 34.256 37.9137 34.3686 38.0218 34.4989C38.3337 34.875 38.7356 35.1099 39.2024 35.2527C39.3041 35.2839 39.4058 35.3213 39.5102 35.337C39.8714 35.3913 40.1393 35.5903 40.3681 35.8483C40.5729 36.0788 40.7142 36.343 40.7989 36.6336C40.8587 36.8384 40.8168 37.0292 40.7079 37.2052C40.6335 37.3258 40.5178 37.371 40.3673 37.3582C39.677 37.2997 39.0601 37.0606 38.5125 36.6459C38.3501 36.5229 38.1595 36.4551 37.9667 36.3941C37.8012 36.3417 37.6347 36.2924 37.4696 36.2381C37.2584 36.1685 37.0714 36.0596 36.9183 35.9003C36.4579 35.4209 35.9973 34.942 35.5385 34.4613C35.1978 34.1044 34.8456 33.7582 34.4528 33.4543C34.3178 33.3499 34.1617 33.2683 34.0083 33.1899C33.7873 33.077 33.5859 32.9523 33.4219 32.7595C33.2503 32.5579 33.0286 32.4005 32.7867 32.2769C32.5775 32.17 32.3571 32.1194 32.121 32.1412C31.6705 32.1827 31.2201 32.2242 30.7688 32.2609C30.1715 32.3095 29.5747 32.3259 28.9785 32.2065C28.847 32.1802 28.7105 32.1802 28.578 32.1576C28.3108 32.1116 28.0584 32.0188 27.8163 31.8999C27.4043 31.6979 26.9934 31.4938 26.5837 31.2885C26.3475 31.1703 26.1311 31.0247 25.9272 30.8579C25.8033 30.7568 25.6602 30.6763 25.5234 30.5904C25.2119 30.3944 24.9021 30.1957 24.5849 30.0081C24.4076 29.903 24.2208 29.8114 24.0327 29.7254C23.3846 29.4292 22.7073 29.2074 22.0219 29.0161C21.7937 28.9524 21.5447 28.9471 21.3053 28.9413C20.992 28.9334 20.6788 28.9533 20.3653 28.9577C20.1417 28.9606 19.9173 28.9519 19.6937 28.9586C19.42 28.9666 19.1456 28.9761 18.8736 29.0002C18.1563 29.0636 17.4385 29.1269 16.7229 29.2054C16.2221 29.2604 15.7206 29.2899 15.216 29.2718C14.5082 29.2466 13.8104 29.1419 13.126 28.9563C12.8993 28.895 12.6809 28.8035 12.4546 28.7393C12.0854 28.6341 11.7111 28.5979 11.3253 28.6144C10.8477 28.6347 10.3822 28.7091 9.91685 28.7972C9.4111 28.8928 8.90337 28.9294 8.38288 28.8787C7.95955 28.8375 7.53226 28.8398 7.10675 28.8289C6.4791 28.8132 5.85395 28.7738 5.23539 28.6461C4.97753 28.5929 4.71779 28.5499 4.45763 28.5094C4.38182 28.4977 4.30015 28.5013 4.2247 28.5141C3.95612 28.5597 3.85014 28.7106 3.88922 28.9745C3.91939 29.1794 4.0187 29.3532 4.15586 29.5099C4.32152 29.6989 4.51985 29.8508 4.74007 29.9767C5.40285 30.3548 6.11009 30.6368 6.82868 30.8931C7.11344 30.9948 7.40153 31.0876 7.68565 31.192C7.77309 31.224 7.85812 31.2718 7.9324 31.327C8.11528 31.4638 8.28767 31.6135 8.47111 31.7498C8.69208 31.9138 8.93227 32.0452 9.21221 32.0866C9.29503 32.0989 9.37918 32.101 9.46292 32.1035C9.7428 32.1121 10.0226 32.1167 10.3022 32.1274C10.3743 32.1301 10.4464 32.1473 10.5178 32.1611C11.1885 32.291 11.3436 32.9073 11.2632 33.3254C11.2543 33.3722 11.2359 33.4183 11.2156 33.4618C11.1611 33.5774 11.0783 33.641 10.9322 33.643C10.5994 33.648 10.2738 33.5913 9.94635 33.5456C9.297 33.4549 8.64756 33.3655 7.99781 33.2801C7.54735 33.2207 7.09798 33.16 6.66624 33.008C6.42034 32.9215 6.1959 32.804 5.9966 32.6366C5.76664 32.4435 5.53315 32.2534 5.29104 32.0753C5.11668 31.9473 4.92245 31.8442 4.74208 31.7234C4.32842 31.4467 3.89131 31.2136 3.43432 31.0105C3.29151 30.947 3.17717 30.8187 3.05632 30.7132C2.90589 30.582 2.76195 30.4433 2.61586 30.3077C2.59555 30.2889 2.57561 30.2694 2.55765 30.2484C2.08163 29.6956 1.72267 29.086 1.59567 28.3749C1.55528 28.1481 1.55908 27.914 1.55285 27.6829C1.55124 27.6218 1.58081 27.5577 1.6073 27.5001C1.74613 27.2005 1.98558 26.9924 2.27331 26.8281C2.54022 26.676 2.83718 26.6002 3.13635 26.5395C3.703 26.4249 4.27412 26.3278 4.84308 26.2233C4.91423 26.2104 4.98729 26.2018 5.05552 26.1804C5.58397 26.0147 6.11004 25.842 6.64048 25.6814C6.79285 25.6354 6.95658 25.6223 7.11537 25.5943C7.18644 25.5816 7.25909 25.5734 7.32889 25.5564C7.70886 25.4643 7.90183 25.0886 7.73846 24.7387C7.68654 24.6274 7.60707 24.5227 7.5216 24.4306C6.73881 23.585 6.17467 22.6258 5.84116 21.5444C5.69746 21.0779 5.54938 20.6126 5.39761 20.1486C5.35396 20.015 5.30033 19.8821 5.23277 19.7579C5.15752 19.6194 5.12569 19.4746 5.10959 19.3245C5.02889 18.5737 5.06666 17.8292 5.19005 17.089C5.35408 16.1066 5.64948 15.1584 5.9468 14.2106C6.05768 13.8574 6.17519 13.5057 6.27087 13.1482C6.35253 12.842 6.33392 12.5291 6.23717 12.2234C6.18587 12.0612 6.07531 11.9387 5.91318 11.865C5.38887 11.627 4.91188 11.3233 4.48374 10.9432C4.39341 10.8628 4.26061 10.8157 4.13913 10.7812C3.91854 10.7185 3.68871 10.6882 3.46858 10.6238C2.96363 10.4762 2.45936 10.3242 1.96012 10.1588C1.36601 9.96211 1.02535 9.51891 0.784682 8.98932C0.758035 8.93055 0.743545 8.86554 0.731701 8.80219C0.680188 8.5263 0.778962 8.32003 1.03102 8.18027C1.27174 8.0468 1.53466 7.98418 1.80737 7.94919ZM10.7808 5.92818C10.8834 6.09473 11.0089 6.24126 11.1778 6.34512C11.3197 6.43243 11.4691 6.51101 11.6225 6.57762C11.8328 6.6692 12.0504 6.7441 12.2635 6.82858C12.5259 6.93285 12.7657 7.06799 12.9734 7.26145C13.198 7.47105 13.457 7.63562 13.7553 7.73496C14.0254 7.82496 14.2934 7.83327 14.5607 7.74018C14.7834 7.6624 14.9157 7.50729 14.9653 7.28848C15.0137 7.07588 14.979 6.87039 14.8653 6.67914C14.8039 6.57543 14.7325 6.47765 14.6683 6.37551C14.6512 6.34854 14.645 6.31538 14.6231 6.2569C14.7898 6.37159 14.9256 6.46768 15.0646 6.55981C15.4445 6.8124 15.8443 6.84457 16.2612 6.67705C16.3419 6.6445 16.4242 6.61554 16.5054 6.5848C16.4943 6.76095 16.4693 6.91561 16.4784 7.06906C16.4959 7.367 16.6848 7.52622 16.9939 7.5343C17.3974 7.54499 17.767 7.43434 18.1145 7.25878C18.6474 6.98945 19.1386 6.66106 19.5786 6.26586C19.663 6.18997 19.7393 6.10352 19.8082 6.01414C20.0762 5.66726 19.8849 5.22673 19.5584 5.08069C19.4416 5.02851 19.3194 4.98319 19.1955 4.9527C18.4125 4.75863 17.6293 4.56567 16.8445 4.37966C16.348 4.2619 15.8469 4.15468 15.3344 4.15845C14.8533 4.16199 14.3732 4.18788 13.8925 4.20676C13.7419 4.21285 13.5879 4.21225 13.4417 4.24136C12.6711 4.39399 11.9162 4.59407 11.1961 4.89935C11.0218 4.97314 10.8873 5.08801 10.7901 5.24162C10.6496 5.4647 10.6359 5.69264 10.7808 5.92818Z" fill="url(#paint0_linear)"/>
<defs>
<linearGradient id="paint0_linear" x1="26.2812" y1="1.92756" x2="12.364" y2="33.6382" gradientUnits="userSpaceOnUse">
<stop stop-color="#4BB16B"/>
<stop offset="1" stop-color="#005085"/>
</linearGradient>
</defs>
</svg>
