<svg width="44" height="32" viewBox="0 0 44 32" fill="none" xmlns="http://www.w3.org/2000/svg">
<path d="M42.9986 11.893C42.9212 12.3258 42.8146 12.7552 42.7645 13.1909C42.6531 14.1617 42.4564 15.1408 42.5022 16.1066C42.5607 17.3411 42.8238 18.5658 42.9986 19.7945C42.9336 19.7676 42.8686 19.7403 42.8034 19.7134C42.547 20.1015 42.2908 20.4897 42.0131 20.9106C42.1252 21.2695 42.2573 21.6922 42.4114 22.1849C42.2216 22.0338 42.0783 21.9197 42.036 21.8861C41.9373 22.4596 41.8303 23.0804 41.707 23.7965C41.5065 23.6321 41.444 23.5808 41.3989 23.5433C41.3463 23.8212 41.2934 24.1 41.2406 24.3789C41.2059 24.377 41.1712 24.3751 41.1365 24.3732C41.082 24.1546 41.0276 23.9356 40.9732 23.717C40.9213 23.7189 40.8694 23.7209 40.8175 23.7227C40.023 26.1141 39.0542 28.3464 38.8616 30.7578C38.8616 30.7578 39.001 31.1922 38.6906 31.3889C38.3802 31.5854 35.1908 31.6136 34.9087 31.3889C34.6266 31.1642 35.5801 30.0578 36.2886 29.7542C36.5109 28.8375 36.7713 28.0381 36.9172 27.1088C37.0652 26.1657 37.1315 25.2053 37.1642 24.2503C37.1973 23.2889 36.8472 22.4407 36.3138 21.6285C35.9111 21.0151 35.6204 20.3174 35.3561 19.6282C35.0778 18.9025 34.9285 18.1278 34.6505 17.4022C34.4159 16.7897 34.1163 16.779 33.5992 17.2006C33.0719 17.6309 32.5584 18.1439 31.9451 18.3866C31.1921 18.6848 30.3439 18.7507 29.5332 18.8974C29.0591 18.9833 28.5764 19.097 28.1007 19.0843C26.6491 19.0457 25.1998 18.9336 23.7482 18.8869C23.0955 18.866 22.6484 19.2126 22.5307 19.8525C22.3534 20.8157 22.3084 21.805 22.0993 22.76C21.8904 23.7131 21.9274 24.7008 21.4424 25.626C20.9203 26.6223 20.7171 27.7535 21.0708 28.8841C21.1527 29.1458 21.3612 29.41 21.5862 29.5652C21.5862 29.5652 21.8503 30.8825 21.5489 31.1822C21.2478 31.4816 19.6673 31.3694 18.8018 31.2946C18.8018 31.2946 16.6192 31.744 15.7538 31.482C14.888 31.2198 15.3399 30.6955 15.415 30.3961C15.4905 30.0967 16.0779 30.0238 16.0779 30.0238C16.1925 29.802 16.5921 29.7034 16.6373 29.4683C16.8474 28.3713 16.7803 27.2867 16.4944 26.1999C16.139 24.85 15.8818 23.4738 15.5051 22.1303C15.3745 21.6643 15.0692 21.214 14.745 20.8417C14.1405 20.1474 13.0751 19.9896 12.6191 19.098C12.6125 19.085 12.587 19.0805 12.5695 19.0745C11.6884 18.765 11.3112 18.0586 11.0637 17.2284C10.9345 16.7947 10.7469 16.3773 10.5731 15.9578C10.0592 14.7167 9.0759 13.8406 8.12968 12.9527C7.84374 12.6846 7.34742 12.4286 6.99421 12.4806C5.9072 12.6403 4.84315 12.9131 3.77105 12.4403C3.72134 12.4185 3.65836 12.3808 3.61567 12.3944C2.848 12.6409 2.18452 12.3795 1.54866 11.9828C1.36401 11.8675 1.03063 11.7372 1.03321 11.6197C1.04468 11.0954 1.04913 10.5281 1.25101 10.0601C1.54779 9.37318 2.05052 8.77712 2.38929 8.1044C2.622 7.64238 2.6284 7.11738 2.43611 6.58531C2.27371 6.64108 2.16867 6.67595 2.06488 6.7133C1.34911 6.96967 0.836159 6.55961 0.907799 5.82228C0.926918 5.62548 0.860428 5.37517 0.741573 5.21767C0.095253 4.36244 0.229324 3.81997 1.24274 3.42327C1.44143 3.3456 1.68054 3.33263 1.8971 3.34755C2.30274 3.37543 2.70511 3.44548 3.03537 3.48827C3.25318 3.18313 3.37289 2.84538 3.60529 2.72748C3.99471 2.53038 4.23545 2.33047 4.11387 1.93532C4.78789 1.68626 5.41673 1.45366 6.10862 1.19799C5.95169 1.1159 5.87115 1.07412 5.79054 1.03195C5.80966 0.97999 5.82878 0.928034 5.84782 0.876C6.43209 1.05284 7.01638 1.22999 7.61907 1.4125C7.60572 1.7699 7.6264 2.13461 8.18938 2.09725C8.27912 2.09119 8.39314 2.19138 8.46829 2.26896C8.79465 2.60548 9.12413 2.78224 9.60118 2.50529C9.74384 2.42258 10.0138 2.48626 10.1972 2.55631C10.7548 2.76927 11.2346 3.11277 11.9191 3.02975C12.3964 2.97204 12.9106 3.25062 13.4131 3.35485C14.5698 3.59506 15.7055 3.63622 16.7671 2.98067C16.9203 2.88592 17.1202 2.82573 17.3001 2.8213C18.0531 2.80352 18.8077 2.83458 19.5604 2.80577C20.0667 2.78643 20.5701 2.69836 21.0744 2.63848C21.3272 2.60835 21.5781 2.55989 21.8315 2.54117C22.4355 2.49683 23.0714 2.56657 23.6352 2.39672C24.1023 2.25599 24.5895 2.29436 24.9333 2.40526C25.715 2.65751 26.4598 2.59693 27.1723 2.38305C29.4504 1.69892 31.791 1.36784 34.1376 1.07854C34.633 1.0196 35.0239 0.838644 35.415 0.59851C35.7076 0.418487 35.9751 0.191944 36.3033 0.433398C36.6819 0.336397 37.1143 0.202429 37.4365 0.334534C37.8858 0.518673 38.4811 0.274034 38.8078 0.793366C38.8212 0.814258 38.9129 0.792745 38.9664 0.781639C39.5851 0.653651 40.0827 0.987912 40.5158 1.30734C41.0147 1.67554 41.5016 1.86877 42.0864 1.73449C42.3456 2.05547 42.2927 2.59825 42.8559 2.6214C42.9031 2.62326 42.9674 2.72756 42.9868 2.79474C43.1316 3.29077 43.2247 3.80599 43.4151 4.28315C43.7863 5.21441 43.6185 6.19133 43.7226 7.14379C43.7538 7.42835 43.7335 7.7268 43.6857 8.01043C43.4663 9.30608 43.23 10.5992 42.9986 11.893ZM18.9483 26.283C18.8983 26.2806 18.848 26.2783 18.798 26.2757C18.7178 26.8525 18.593 27.4276 18.5693 28.0065C18.5455 28.5977 18.4314 29.22 18.7792 29.8623C19.1845 28.6111 19.3654 27.4539 18.9483 26.283Z" fill="url(#paint0_linear)"/>
<defs>
<linearGradient id="paint0_linear" x1="22.0422" y1="0.279297" x2="17.4508" y2="30.875" gradientUnits="userSpaceOnUse">
<stop stop-color="#4BB16B"/>
<stop offset="1" stop-color="#005085"/>
</linearGradient>
</defs>
</svg>
