<svg width="52" height="36" viewBox="0 0 52 36" fill="none" xmlns="http://www.w3.org/2000/svg">
<path d="M22.3259 21.6277C23.2069 21.7492 23.9877 21.8033 24.7327 21.9653C26.0005 22.2422 27.2755 22.4988 28.4933 22.9175C30.7496 23.6874 32.9487 23.5456 35.1406 22.7892C37.1821 22.0869 38.9012 20.9524 40.2622 19.2978C40.3338 19.3856 40.4055 19.4531 40.4628 19.5342C41.4083 20.7903 42.3538 22.0464 43.3065 23.3025C43.5501 23.6199 43.8223 23.9238 44.0801 24.2277C45.4125 25.7742 45.742 27.5773 45.5629 29.5019C45.5199 29.9814 45.4411 30.4609 45.3552 30.9404C45.305 31.2375 45.1689 31.4874 44.8538 31.6292C44.0157 31.9939 43.9011 32.811 43.5787 33.4931C43.5572 33.5336 43.6145 33.6417 43.6647 33.6822C43.7363 33.7362 43.8366 33.7565 43.9226 33.797C44.1016 33.8713 44.3953 33.9185 44.424 34.0333C44.5028 34.29 44.5243 34.6006 44.4383 34.8505C44.3308 35.1679 44.4526 35.2962 44.7105 35.3975C45.3194 35.6406 45.9211 35.6271 46.4941 35.2962C46.9454 35.0396 47.0671 34.6411 46.9096 34.0806C46.7305 33.4593 46.7305 33.4458 47.2892 33.1082C47.7906 32.8043 48.0342 32.4126 48.0413 31.825C48.0771 30.0287 48.1631 28.2256 48.2419 26.4292C48.2562 26.0713 48.378 25.7066 48.3279 25.3622C48.2777 25.0178 48.1344 24.6666 47.9267 24.3762C47.1603 23.2755 46.5514 22.1139 46.5944 20.77C46.6087 20.1757 46.7162 19.5409 46.9597 19.0007C47.6903 17.4137 48.5141 15.8672 49.302 14.3004C49.3235 14.2532 49.3593 14.2059 49.4238 14.1113C49.4453 14.2261 49.4739 14.2937 49.4739 14.3612C49.4238 15.5093 49.3737 16.6506 49.3307 17.7986C49.3307 17.8594 49.3808 17.9269 49.431 18.0417C49.2949 18.3929 49.1301 18.8251 48.9725 19.2573C48.6287 20.196 48.729 21.1347 48.9152 22.0937C49.0585 22.8433 49.1659 23.6064 49.2232 24.3695C49.2662 24.876 49.1946 25.396 49.1731 25.943C49.3522 25.5851 49.5241 25.2339 49.7175 24.8557C49.7748 24.9975 49.8178 25.1056 49.8822 25.2812C50.4696 23.7617 50.706 22.249 50.7633 20.635C50.8779 20.77 50.9424 20.8511 51.0427 20.9726C51.2432 19.6827 51.3507 18.4267 51.2934 17.1638C51.2289 15.8132 50.9854 14.5165 50.3693 13.2739C50.1115 12.7539 50.004 12.1529 49.9109 11.5789C49.7032 10.2417 48.9582 9.2085 47.8837 8.38461C45.9425 6.8989 43.7077 6.18981 41.2149 6.53422C39.0015 6.83812 36.8024 7.28383 34.5962 7.66876C31.9817 8.12798 29.36 8.45214 26.6953 8.24279C25.5421 8.155 24.4032 7.94565 23.2571 7.80383C22.8344 7.7498 22.4118 7.69578 21.982 7.67552C21.0866 7.6485 20.1913 7.6485 19.2959 7.62149C19.1383 7.61474 18.9879 7.54045 18.8374 7.49318C18.9234 7.35812 19.0093 7.2163 19.1025 7.08799C19.1454 7.02721 19.2242 6.99344 19.3317 6.9124C18.5438 6.48695 17.7988 6.075 17.0323 5.69007C16.9106 5.62929 16.7028 5.69007 16.5381 5.72383C16.3948 5.7576 16.2587 5.83189 16.0653 5.90617C16.137 5.69682 16.1871 5.5415 16.2444 5.35916C15.1341 5.05527 14.0238 4.74462 12.9207 4.44072C12.8133 4.6028 12.7202 4.73786 12.627 4.87968C12.6056 4.87293 12.5912 4.86618 12.5697 4.85942C12.5912 4.7041 12.6127 4.55553 12.6414 4.35968C12.362 4.2854 12.0826 4.20436 11.789 4.12332C11.6887 4.31241 11.5884 4.488 11.4595 4.73111C11.4595 4.47449 11.4595 4.29891 11.4595 4.0828C10.5641 3.91397 9.66153 3.70462 8.74466 3.57631C8.16444 3.49527 7.56274 3.48852 6.96821 3.51553C6.66019 3.52904 6.3665 3.68436 5.93672 3.81267C5.01985 2.928 4.01702 1.96229 3.02135 0.996579C2.92823 0.908787 2.8566 0.800735 2.75632 0.72645C2.34802 0.402295 1.96121 0.49684 1.58157 1.04385C1.5171 0.969566 1.4598 0.908787 1.40966 0.841254C1.25207 0.625151 1.08732 0.442814 0.76498 0.564372C0.435478 0.68593 0.234909 0.91554 0.349518 1.2532C0.550083 1.88125 0.757816 2.52956 1.08732 3.10358C1.6532 4.0828 2.5271 4.83241 3.40816 5.56176C3.52277 5.6563 3.63738 5.75085 3.77348 5.8589C2.46263 7.20954 2.17611 8.8911 1.96838 10.6064C1.81795 11.8423 1.50278 13.0173 0.901077 14.1519C0.11314 15.6376 0.220585 17.1435 1.30938 18.5077C1.53143 18.7913 1.8681 18.9872 2.16178 19.2235C2.36951 19.3924 2.54859 19.3046 2.73483 19.1695C2.82795 19.102 2.96405 19.0615 3.07866 19.0547C3.47979 19.0142 3.89525 19.0479 4.27489 18.9534C4.719 18.8453 4.86226 18.555 4.89808 18.143C4.9124 17.9472 4.98404 17.7108 5.12013 17.5757C5.62871 17.0693 6.18027 16.61 6.71034 16.117C7.03984 15.8064 7.34069 15.4755 7.66303 15.1581C7.75615 15.0703 7.88508 15.0028 8.01402 14.9487C8.72316 14.6448 9.37501 14.2802 9.61139 13.4765C10.3778 13.7332 11.0655 14.0843 11.6887 14.5368C12.2832 14.969 12.8563 15.435 13.372 15.9415C13.7087 16.2724 13.9665 16.6911 14.1886 17.103C14.5969 17.8729 15.1986 18.4604 15.9149 18.9669C16.0582 19.0682 16.1943 19.21 16.2731 19.3653C16.667 20.1825 17.2257 20.8376 18.1283 21.2022C18.2214 21.2427 18.3145 21.3643 18.3432 21.4724C18.6584 22.4381 19.0022 23.397 19.2601 24.3762C19.432 25.0043 19.475 25.6661 19.5824 26.3077C19.7042 27.0168 19.9047 27.7191 19.962 28.4349C20.0265 29.2048 20.005 29.9814 19.9549 30.7513C19.9406 30.9944 19.7328 31.2443 19.5537 31.4469C18.7515 32.3518 18.3575 33.4323 18.0423 34.5466C17.9707 34.8032 18.0137 34.9383 18.3145 34.9383C18.9091 34.9383 19.5036 34.9315 20.0981 34.9248C20.3274 34.918 20.4778 34.8032 20.5136 34.5804C20.5781 34.2157 20.664 33.851 20.6855 33.4796C20.707 33.2297 20.8073 33.0676 21.0508 33.0069C21.5522 32.8853 21.7098 32.5544 21.717 32.1019C21.7313 31.1565 21.7385 30.211 21.7958 29.2656C21.8316 28.6173 21.9534 27.9757 22.025 27.3274C22.068 26.9695 22.111 26.6183 22.1253 26.2604C22.2184 24.7409 22.2686 23.2349 22.3259 21.6277Z" fill="url(#paint0_linear)"/>
<defs>
<linearGradient id="paint0_linear" x1="25.8129" y1="0.52539" x2="20.9021" y2="34.8619" gradientUnits="userSpaceOnUse">
<stop stop-color="#4BB16B"/>
<stop offset="1" stop-color="#005085"/>
</linearGradient>
</defs>
</svg>
