<svg width="47" height="36" viewBox="0 0 47 36" fill="none" xmlns="http://www.w3.org/2000/svg">
<path d="M2.1227 12.4836C2.34061 12.6877 2.54652 12.8804 2.67586 13.0385C2.78543 13.1722 2.88962 13.3072 2.99295 13.4409C3.34552 13.8964 3.71001 14.3675 4.23393 14.7253C4.5601 14.948 4.86334 15.0852 5.18828 15.1583C6.1411 15.371 6.87631 16.029 7.58736 16.6654C7.87175 16.9197 8.16569 17.1828 8.47077 17.4159C8.97338 17.7995 9.63457 18.2467 10.2935 18.3032C10.4196 18.3142 10.5459 18.3173 10.6702 18.3204C11.1775 18.3326 11.5784 18.3423 11.8157 18.8756C11.9279 19.1271 11.9228 19.4436 11.8026 19.722C11.7668 19.8045 11.65 19.9148 11.5467 20.0122C11.3819 20.1678 11.2262 20.3149 11.2068 20.4886C11.1766 20.7558 11.4376 21.0161 11.6676 21.246C11.737 21.3153 11.8001 21.3772 11.8388 21.4275C12.0296 21.6747 12.2146 21.9518 12.2751 22.303C12.287 22.3729 12.2745 22.507 12.262 22.6369C12.2333 22.94 12.2007 23.2833 12.3778 23.477C12.4321 23.5364 12.5319 23.6077 12.7052 23.6077C13.2571 23.6077 13.7443 24.6396 13.8149 25.1788C13.8269 25.271 13.8024 25.3913 13.7763 25.5185C13.7267 25.7616 13.6705 26.0374 13.8444 26.2634C14.0243 26.4971 14.3093 26.5111 14.5608 26.5233C14.7184 26.5308 14.8672 26.5383 14.9794 26.5933C15.4926 26.8451 15.3815 27.7431 15.1753 28.1747C15.1514 28.2244 15.0855 28.3066 15.0214 28.386C14.8271 28.6269 14.5853 28.9268 14.7382 29.2093C14.9033 29.5129 15.0958 29.7641 15.282 30.0075C15.6901 30.5405 16.0423 31.001 15.9369 31.8261C15.8245 32.7062 15.2522 33.401 14.6754 34.0371L14.6484 34.0669C14.412 34.3274 14.2409 34.5157 14.1514 34.8995L14.143 34.9348C14.0971 35.1284 14.045 35.3478 14.1483 35.4781C14.2387 35.5915 14.3931 35.5993 14.605 35.4609L14.8976 35.2715C15.5789 34.832 16.2837 34.3771 16.878 33.7822C17.2739 33.3863 17.6364 32.9524 17.9868 32.5325C18.2088 32.2667 18.4304 32.0011 18.6615 31.744C18.6904 31.7115 18.7098 31.709 18.7256 31.709C18.7711 31.709 18.8364 31.739 18.8995 31.7678C18.9845 31.8068 19.0728 31.8471 19.1701 31.8471C19.2558 31.8471 19.376 31.8146 19.4617 31.6606C19.5971 31.4165 19.4714 31.1837 19.3607 30.9779C19.22 30.7167 19.1482 30.5589 19.3117 30.36C19.489 30.1428 19.6664 30.1868 19.8259 30.2012C19.8824 30.2062 19.937 30.2106 19.9892 30.2106C20.2981 30.2106 20.4657 30.0367 20.5326 29.6464C20.5567 29.5071 20.5772 29.3686 20.5979 29.2322C20.6591 28.822 20.7172 28.4339 20.8578 28.0418C20.898 27.9289 20.9482 27.8009 21.0299 27.7122C21.091 27.6456 21.1479 27.6075 21.1865 27.6075C21.2493 27.6075 21.3372 27.7153 21.4016 27.7937C21.4942 27.9071 21.59 28.0244 21.7341 28.0244C21.9134 28.0244 22.0091 27.8378 22.0524 27.7397L22.0649 27.7109C22.1921 27.412 22.1632 26.9468 22.1377 26.5362C22.1274 26.3675 22.1173 26.2101 22.1208 26.0842C22.1472 25.0763 22.1685 24.0681 22.1855 23.0596C22.199 22.2379 22.2097 21.4159 22.2169 20.5939C22.2191 20.3559 22.2078 20.1029 22.1962 19.8448C22.184 19.5767 22.1717 19.3043 22.1745 19.0399C22.1764 19.0556 22.1786 19.0712 22.1805 19.0859C22.2028 19.2602 22.2238 19.4249 22.2568 19.5483C22.3836 20.0238 22.5506 20.4821 22.7531 20.9111C22.9098 21.2426 23.0467 21.4963 23.2645 21.4963C23.3229 21.4963 23.376 21.4775 23.4243 21.4404C23.4724 21.4775 23.5257 21.4963 23.5842 21.4963C23.8021 21.4963 23.9388 21.2427 24.0955 20.9111C24.298 20.4821 24.4646 20.0238 24.5918 19.5483C24.6248 19.4246 24.6459 19.2599 24.6681 19.0859C24.67 19.0709 24.6722 19.0553 24.6741 19.0399C24.6769 19.3043 24.6646 19.5767 24.6525 19.8448C24.6408 20.1029 24.6295 20.3562 24.6317 20.5942C24.6389 21.4159 24.6495 22.2379 24.6631 23.0596C24.6796 24.0681 24.7014 25.0763 24.7277 26.0842C24.7312 26.2101 24.7211 26.3675 24.7107 26.5362C24.6853 26.9464 24.6568 27.412 24.7833 27.7103L24.7964 27.7413C24.8401 27.8393 24.9358 28.0243 25.1142 28.0243C25.2579 28.0243 25.3539 27.9071 25.4466 27.7936C25.5109 27.7153 25.5989 27.6074 25.6617 27.6074C25.7 27.6074 25.7571 27.6455 25.818 27.7121C25.8998 27.8008 25.9498 27.9286 25.9903 28.0417C26.1307 28.4338 26.1887 28.8216 26.2502 29.2321C26.2706 29.3689 26.2913 29.507 26.3156 29.6463C26.3824 30.0366 26.55 30.2106 26.859 30.2106C26.9111 30.2106 26.9657 30.2058 27.0222 30.2011C27.1816 30.1867 27.3591 30.1424 27.5368 30.3599C27.7 30.5589 27.6284 30.7166 27.4874 30.9778C27.3767 31.1834 27.2511 31.4161 27.3867 31.6608C27.4721 31.8145 27.5923 31.847 27.678 31.847C27.7754 31.847 27.8632 31.8068 27.9487 31.7677C28.0117 31.7386 28.0773 31.7089 28.1226 31.7089C28.1349 31.7089 28.1552 31.7089 28.1866 31.7439C28.4177 32.001 28.6392 32.2669 28.8612 32.5325C29.212 32.9523 29.5742 33.3863 29.9702 33.7822C30.5644 34.3767 31.2692 34.8315 31.9504 35.2715L32.2431 35.4608C32.3509 35.5314 32.4377 35.5643 32.5155 35.5643C32.5902 35.5643 32.6556 35.5333 32.6998 35.478C32.8031 35.3477 32.751 35.1284 32.7052 34.935L32.6966 34.8994C32.6072 34.5154 32.436 34.3273 32.1997 34.0668L32.1727 34.0371C31.5959 33.401 31.0236 32.7061 30.9112 31.8257C30.8057 31.0007 31.1583 30.5404 31.5662 30.0074C31.7524 29.7644 31.9447 29.5128 32.1108 29.207C32.2624 28.9271 32.0208 28.6271 31.8268 28.3859C31.7628 28.3065 31.6965 28.2244 31.6729 28.1747C31.4664 27.7429 31.3555 26.845 31.8689 26.5933C31.9805 26.5382 32.1298 26.5311 32.2873 26.5233C32.5388 26.5111 32.8238 26.497 33.0037 26.2633C33.1776 26.0374 33.1215 25.7618 33.0718 25.5184C33.0458 25.3913 33.0214 25.271 33.0334 25.1788C33.104 24.6392 33.5912 23.6076 34.1508 23.6076C34.3163 23.6076 34.4161 23.5363 34.4708 23.477C34.6475 23.2833 34.6152 22.9396 34.5863 22.6369C34.574 22.5069 34.5611 22.3725 34.5731 22.3029C34.6334 21.9518 34.8185 21.6746 35.0091 21.4275C35.048 21.3771 35.1111 21.3153 35.1806 21.246C35.4107 21.0163 35.6716 20.7561 35.6415 20.4886C35.6217 20.3146 35.466 20.1678 35.3014 20.0121C35.1981 19.9147 35.0811 19.8044 35.0456 19.7219C34.9251 19.4435 34.92 19.127 35.0324 18.8755C35.27 18.3422 35.6707 18.3325 36.178 18.3204C36.3023 18.3172 36.4286 18.3141 36.5547 18.3031C37.2136 18.2466 37.8748 17.7994 38.3774 17.4158C38.6828 17.1828 38.9768 16.9197 39.2608 16.6653C39.9719 16.0289 40.7071 15.3707 41.6603 15.1582C41.9852 15.0854 42.2881 14.9479 42.6147 14.7252C43.1383 14.3671 43.5027 13.8963 43.8553 13.4408C43.9588 13.307 44.0631 13.1721 44.1724 13.0384C44.3021 12.88 44.5076 12.6875 44.7255 12.4835C45.4221 11.8309 46.2892 11.0189 45.9355 10.2241C45.4648 9.16785 43.5009 8.32492 42.91 8.09152C40.7391 7.23427 38.4262 6.79963 36.0345 6.79963C35.5058 6.79963 34.9713 6.82153 34.4452 6.86556C32.9841 6.98708 31.5479 7.27547 30.1759 7.72281C29.7533 7.86057 29.2765 8.07651 28.7714 8.30486C27.7485 8.76691 26.5894 9.29121 25.5867 9.29121C25.2666 9.29121 24.9858 9.23968 24.7287 9.13317C24.5231 9.04847 24.089 8.60886 24.1256 8.48733C24.3665 8.28051 24.5257 8.07712 24.6428 7.82849C24.7725 7.55259 24.784 7.277 24.6754 7.0524C24.5828 6.85959 24.4052 6.71747 24.1718 6.64717C24.1109 6.32318 24.4647 4.70141 24.6067 4.2196C24.9933 2.91025 25.7694 1.93952 26.743 1.54217C26.8759 1.61744 27.0585 1.61147 27.1838 1.5228C27.321 1.42501 27.3891 1.22753 27.3615 1.00791C27.3336 0.784542 27.2171 0.607042 27.0576 0.544557C26.8316 0.457415 26.4948 0.685454 26.1846 0.931641C26.1491 0.959744 26.1187 0.984172 26.095 1.00163C25.2212 1.64677 24.5257 2.53129 24.0841 3.56007C23.8608 4.07901 23.7076 4.62353 23.6289 5.17809C23.6096 5.31301 23.6074 5.4608 23.6052 5.61701C23.6005 5.94912 23.5955 6.29156 23.425 6.49678C23.2546 6.29148 23.2495 5.94912 23.2448 5.61701C23.2427 5.4608 23.2404 5.31271 23.2213 5.17809C23.1425 4.62384 22.9893 4.07893 22.7661 3.56007C22.3244 2.53121 21.6291 1.64677 20.755 1.00163C20.7315 0.984095 20.701 0.959744 20.6655 0.931641C20.3554 0.685454 20.0192 0.456726 19.7925 0.544557C19.633 0.607042 19.5166 0.784848 19.4886 1.00791C19.4613 1.22753 19.5291 1.42501 19.6666 1.5231C19.7909 1.61116 19.974 1.61775 20.1071 1.54248C21.0809 1.93982 21.8567 2.91056 22.2434 4.21991C22.3856 4.70172 22.7391 6.32318 22.6782 6.64748C22.4453 6.71777 22.2675 6.85989 22.1747 7.05271C22.0663 7.27769 22.078 7.5532 22.2073 7.82879C22.3244 8.07751 22.4835 8.28089 22.7253 8.48764C22.7608 8.60947 22.3269 9.04878 22.1213 9.13347C21.8676 9.23846 21.5791 9.29152 21.2633 9.29152C20.2606 9.29152 19.1015 8.76729 18.0786 8.30516C17.5736 8.07682 17.0967 7.86088 16.6741 7.72312C15.3021 7.2757 13.8659 6.98739 12.4048 6.86579C11.8787 6.82176 11.3441 6.79986 10.8154 6.79986C8.42376 6.79986 6.1107 7.23442 3.93984 8.09175C3.34906 8.32515 1.38503 9.16808 0.914428 10.2244C0.558709 11.0194 1.42611 11.831 2.1227 12.4836Z" fill="url(#paint0_linear)"/>
<defs>
<linearGradient id="paint0_linear" x1="23.4246" y1="0.52539" x2="28.9362" y2="34.6747" gradientUnits="userSpaceOnUse">
<stop stop-color="#4BB16B"/>
<stop offset="1" stop-color="#005085"/>
</linearGradient>
</defs>
</svg>
