<svg width="55" height="36" viewBox="0 0 55 36" fill="none" xmlns="http://www.w3.org/2000/svg">
<path d="M4.38129 6.47932C4.59994 5.28319 6.62154 3.64635 7.65969 3.14305C7.65969 3.14305 7.93277 2.32469 8.58862 2.01005C9.24447 1.69542 10.0641 -1.38936 10.0092 2.38783C10.0092 2.38783 11.8122 1.31765 12.6865 1.31765C12.6865 1.31765 13.3969 2.76571 12.6865 4.3393C12.6865 4.3393 13.9433 4.96899 15.9101 6.03873C17.8772 7.10902 22.1935 6.92035 26.5645 4.90574C30.9356 2.89113 35.7439 2.76517 38.5302 5.53543C38.5302 5.53543 42.4641 6.60572 43.5023 8.05378C44.5405 9.50184 50.4414 11.3273 52.8454 6.29109C55.2494 1.25483 54.7577 8.24245 53.8288 9.81647C52.8998 11.3905 49.6763 18.3781 41.1528 11.8311C41.1528 11.8311 40.5518 15.9861 37.7651 17.2451C34.9783 18.5041 34.9783 22.5332 35.197 23.4144C35.4156 24.2955 34.9239 27.8209 35.197 28.8284C35.47 29.8355 33.394 31.5981 32.9023 34.809C32.9023 34.809 32.9567 36.5084 31.6455 34.809C31.6455 34.809 31.3724 35.5015 30.5528 35.0608C30.5528 35.0608 29.296 35.7533 29.0777 34.4312C28.8592 33.1091 28.8592 32.6685 30.0611 31.7242C31.263 30.7799 34.1591 26.5621 31.9189 24.2955C29.6787 22.029 29.2415 21.4626 29.2415 18.5036C29.2415 18.5036 25.089 19.5739 24.3787 21.5884C24.3787 21.5884 24.7066 24.9879 24.8703 25.5544C25.034 26.1208 28.8043 26.3727 29.8424 29.3944C29.8424 29.3944 29.7879 30.15 29.2959 30.0869C29.2959 30.0869 29.0773 31.283 28.5311 30.8426C27.985 30.4021 26.1816 28.828 24.3238 28.8911C22.4659 28.9539 22.6846 27.1285 22.3566 26.4987C22.0287 25.8691 21.4826 24.0436 21.4826 23.7917C21.4826 23.7917 20.0076 25.6803 20.1164 26.6874C20.2258 27.6944 20.7723 27.569 21.3732 27.6944C21.9743 27.8199 23.3404 29.0793 23.1218 29.6459C23.1218 29.6459 24.3238 31.2826 23.559 31.2826C22.7942 31.2826 20.6633 30.527 19.8983 29.7087C19.1335 28.8902 17.385 28.8902 17.4944 27.0648C17.6036 25.2394 17.8222 23.1616 17.8222 23.1616C17.8222 23.1616 11.6482 19.8253 9.62659 16.5518C7.60499 13.2784 6.83981 12.3968 4.8732 12.9637C2.9064 13.5306 2.57852 12.7751 2.57852 12.7751C2.57852 12.7751 0.119816 11.1383 0.556923 9.81614C0.556454 9.8156 4.16273 7.67514 4.38129 6.47932Z" fill="url(#paint0_linear)"/>
<defs>
<linearGradient id="paint0_linear" x1="27.5494" y1="0.52539" x2="22.9094" y2="34.9387" gradientUnits="userSpaceOnUse">
<stop stop-color="#4BB16B"/>
<stop offset="1" stop-color="#005085"/>
</linearGradient>
</defs>
</svg>
