<svg width="42" height="36" viewBox="0 0 42 36" fill="none" xmlns="http://www.w3.org/2000/svg">
<path d="M40.5654 7.00836C40.1663 6.31062 39.5942 5.79895 38.996 5.3089C38.7606 5.11603 38.4638 4.99259 38.259 4.77317C37.8892 4.3776 37.4525 4.11128 36.984 3.87454C36.8359 3.79989 36.7065 3.66813 36.5948 3.53819C36.3927 3.30274 36.226 3.0337 36.0161 2.80619C35.4195 2.16003 34.6965 1.70576 33.916 1.33205C33.4611 1.11422 32.9267 1.02474 32.6055 0.525391C32.5133 1.15922 33.111 1.29468 33.3586 1.71658C33.2687 1.73662 33.2003 1.76998 33.1354 1.76347C32.7126 1.72271 32.2914 1.66318 31.8682 1.63051C31.4784 1.60025 31.0844 1.61908 30.6973 1.57189C30.4261 1.53883 30.1636 1.43083 29.8644 1.34755C29.8983 1.39013 29.9169 1.41517 29.9368 1.43794C29.9576 1.46169 29.9778 1.48672 30.0019 1.50586C30.6601 2.03017 31.4127 2.32303 32.2263 2.43935C32.9743 2.54615 33.6292 2.81247 34.104 3.45371C34.2245 3.61663 34.1918 3.74627 33.9962 3.78764C33.5496 3.88143 33.1942 4.09162 32.99 4.53969C32.9403 4.6486 32.8317 4.73717 32.7338 4.81243C32.3804 5.08404 32.0103 5.33273 31.665 5.61417C31.1748 6.01413 30.682 6.41439 30.226 6.85414C29.8343 7.23217 29.5057 7.67993 29.1257 8.07248C28.3693 8.8541 27.4328 9.24544 26.3778 9.24355C25.6179 9.24196 24.8555 9.14727 24.0993 9.05257C23.634 8.99426 23.2196 9.08994 22.8112 9.29756C22.4496 9.4815 22.0918 9.67869 21.7155 9.82398C21.4428 9.92957 21.1398 9.94742 20.8564 10.0268C20.3875 10.1579 19.9127 10.1171 19.4534 10.0339C19.0048 9.95241 18.5758 9.76204 18.1338 9.63519C17.7638 9.529 17.3875 9.44573 17.0142 9.35254C16.7582 9.28833 16.5046 9.20929 16.2455 9.16368C15.849 9.09394 15.4454 9.06369 15.0506 8.98503C14.7485 8.92482 14.4597 8.7675 14.1576 8.73906C13.4792 8.67515 12.796 8.66471 12.1146 8.63226C12.0378 8.62856 11.9603 8.63136 11.8845 8.62145C11.3219 8.54642 10.7598 8.46745 10.1972 8.39303C9.79439 8.33963 9.49291 8.55474 9.21456 8.81213C8.9565 9.05068 8.71478 9.30837 8.45459 9.54443C8.2325 9.74623 7.96458 9.90113 7.76992 10.1261C7.26626 10.7078 6.84053 11.3639 6.23596 11.8487C5.84328 12.1638 5.45812 12.4915 5.04822 12.7807C4.74127 12.9973 4.41352 13.1698 4.1742 13.4851C3.79677 13.982 3.5854 14.5609 3.34397 15.1281C3.04541 15.8301 2.80215 16.5794 2.03058 16.8997C2.12135 17.0086 2.17344 17.0911 2.02402 17.1833C1.63075 17.4262 1.24288 17.6651 0.772571 17.3762C0.73018 17.3503 0.66021 17.3728 0.604248 17.3728C0.760241 17.5256 0.891499 17.715 1.06953 17.812C1.24989 17.9101 1.38297 17.9728 1.26514 18.1922C1.35415 18.2326 1.42945 18.2668 1.48125 18.2903C1.40508 18.456 1.3443 18.5884 1.25974 18.7723C1.9191 18.5325 2.01614 18.5564 2.13492 18.9615C2.32812 18.8942 2.57196 18.6757 2.64251 19.1605C2.85658 18.9615 3.02389 18.7921 3.20753 18.6443C3.25518 18.606 3.41175 18.6131 3.42007 18.6368C3.51682 18.9106 3.62429 18.7865 3.74008 18.6595C3.77518 18.6207 3.81866 18.5906 3.87375 18.5431C3.98655 18.7455 4.10263 18.7383 4.24045 18.5816C4.34253 18.4657 4.46489 18.3679 4.58279 18.2679C4.62715 18.2302 4.70128 18.1707 4.73317 18.1861C5.02458 18.3249 5.14993 18.0364 5.21778 17.8994C5.31723 17.6988 5.45746 17.6636 5.63096 17.5902C5.65832 17.6627 5.69619 17.7235 5.70363 17.788C5.76908 18.3666 5.86524 18.9449 5.88341 19.5253C5.91318 20.4897 5.92507 21.4565 5.66343 22.4024C5.42324 23.2705 5.03859 24.0184 4.23695 24.4659C4.17384 24.5012 4.10504 24.5845 4.09526 24.6539C4.03696 25.0668 3.98246 25.4812 3.95116 25.8972C3.89461 26.6471 3.855 27.3983 3.80947 28.149C3.76387 28.9036 3.68893 29.6518 3.42007 30.3647C3.39687 30.4264 3.41445 30.5149 3.43619 30.5829C3.55943 30.9664 3.72286 31.3399 3.80772 31.7317C3.88542 32.0897 4.04769 32.4439 3.95357 32.8325C3.94255 32.8785 3.99676 32.9788 4.04112 32.9954C4.44956 33.1484 4.67844 33.4808 4.89069 33.8455C4.96336 33.9705 5.08959 34.0844 5.21727 34.147C5.42652 34.2501 5.6522 34.3434 5.87962 34.3763C6.45295 34.4603 7.04358 34.5995 7.59459 34.1002C7.21329 33.7284 6.84775 33.3638 6.47265 33.0098C6.25566 32.8049 6.00292 32.6368 5.80228 32.4172C5.45877 32.0412 5.32627 31.5478 5.21464 31.0615C5.14117 30.7415 5.11702 30.4043 5.11257 30.0742C5.10899 29.7989 5.15963 29.5218 5.19896 29.2475C5.26922 28.7593 5.34182 28.2713 5.42667 27.7861C5.52787 27.2074 5.8211 26.7093 6.0753 26.1961C6.10266 26.1411 6.15986 26.0552 6.19204 26.06C6.24917 26.069 6.3233 26.1255 6.34621 26.1814C6.47842 26.5036 6.62989 26.8227 6.71532 27.159C6.938 28.0369 7.04161 28.9374 7.09071 29.8422C7.12493 30.4699 7.11866 31.0998 7.14755 31.7278C7.15171 31.8225 7.23095 31.9333 7.30529 32.0012C7.50981 32.1886 7.7554 32.3326 7.93882 32.5381C8.24512 32.881 8.36923 33.3078 8.34727 33.779C8.34398 33.8506 8.36098 33.9518 8.4068 33.9923C8.68844 34.2394 8.83903 34.5606 8.9519 34.915C9.0102 35.0989 9.04595 35.3237 9.27549 35.3797C9.5437 35.4447 9.79111 35.5966 10.0876 35.5518C10.284 35.5222 10.4927 35.5175 10.6874 35.5527C11.0199 35.6127 11.247 35.4272 11.4808 35.2738C11.1932 34.8762 10.9125 34.4934 10.6368 34.106C10.3805 33.7463 10.1162 33.391 9.88129 33.0164C9.75565 32.8165 9.70501 32.5672 9.58448 32.3632C9.24543 31.7901 8.83728 31.2587 8.77417 30.5474C8.7355 30.111 8.63663 29.6806 8.57826 29.2454C8.53303 28.9093 8.51931 28.5684 8.4732 28.2325C8.39345 27.6521 8.41578 27.0763 8.58665 26.5211C8.69646 26.1646 8.91622 25.8903 9.32313 25.8342C9.46482 25.8147 9.61097 25.7302 9.728 25.6381C10.001 25.4233 10.2698 25.1994 10.5177 24.9546C10.8184 24.6578 11.0962 24.3356 11.3834 24.0242C11.479 23.9208 11.5751 23.8595 11.7169 23.9542C12.3983 24.4088 13.1654 24.5856 13.9564 24.6482C14.822 24.7171 15.6868 24.6267 16.5328 24.4504C17.3065 24.289 18.0757 24.0792 18.8241 23.8193C19.9455 23.43 21.0445 22.9726 22.1571 22.5554C22.7801 22.3217 23.399 22.0538 24.042 21.9039C24.7838 21.7311 24.6606 21.6398 24.8135 22.2613C24.8175 22.2767 24.8186 22.2928 24.8197 22.3089C24.8821 23.1605 24.9606 24.0116 25.0011 24.8645C25.0391 25.6599 25.0413 26.4572 25.0496 27.2537C25.052 27.4904 25.0178 27.7272 25.0067 27.9644C24.9739 28.6788 24.9367 29.3932 24.9165 30.1082C24.8936 30.9071 24.745 31.6836 24.5316 32.4461C24.4352 32.7911 24.6328 32.9985 24.7674 33.2741C24.8802 33.1424 24.963 32.9834 25.0982 33.1914C25.1061 33.2039 25.1335 33.2178 25.1425 33.2129C25.4166 33.0599 25.4386 33.3286 25.5124 33.4668C25.7701 33.9507 25.9836 34.4623 26.2721 34.9246C26.4011 35.1313 26.6585 35.3604 26.8734 35.3785C27.3463 35.419 27.8296 35.3331 28.3083 35.2943C28.3485 35.2909 28.3859 35.253 28.4508 35.2164C28.3362 35.0608 28.2202 34.9183 28.1222 34.7633C28.0861 34.7066 28.0921 34.621 28.079 34.5488C28.1427 34.5473 28.2204 34.5198 28.2678 34.5479C28.6497 34.774 29.053 34.7092 29.4468 34.6299C29.6647 34.5862 29.8678 34.4627 30.0926 34.3689C29.5699 33.8545 29.2409 33.2225 28.893 32.6056C28.6101 32.1047 28.6 31.537 28.5747 30.983C28.5295 29.9903 28.6206 29.0041 28.7515 28.0202C28.8343 27.3981 28.9296 26.7796 29.1684 26.2001C29.3368 25.792 29.2528 25.3953 29.1659 24.9985C29.0894 24.6497 28.9662 24.3119 28.8895 23.9631C28.7138 23.1651 28.742 22.3798 29.0815 21.626C29.1255 21.528 29.1719 21.4044 29.2529 21.3556C29.6947 21.0881 30.0388 20.7251 30.2701 20.2573C30.3641 20.0669 30.4461 19.8503 30.4573 19.6411C30.4734 19.3477 30.5573 19.1045 30.7348 18.8835C30.9658 18.5955 31.0809 18.2691 31.073 17.8865C31.0598 17.2711 31.0549 16.6548 31.0744 16.0398C31.0882 15.6081 31.1356 15.1575 31.4046 14.8138C31.7052 14.4296 31.8597 13.9917 32.0136 13.5396C32.3698 12.4932 32.729 11.4477 33.1139 10.4123C33.2839 9.95529 33.5242 9.52477 33.9105 9.21678C34.224 8.9668 34.4749 8.98253 34.6967 9.31208C35.1822 10.0339 35.7981 10.5384 36.6471 10.6638C37.0662 10.7258 37.4997 10.7347 37.9224 10.7045C38.2338 10.682 38.2725 10.5237 38.0942 10.2401C38.0611 10.1873 38.0019 10.1516 37.973 10.0976C37.9258 10.009 37.8929 9.91149 37.8513 9.8109C37.9745 9.78465 38.0553 9.75999 38.1373 9.75099C38.5086 9.71121 38.8792 9.6569 39.2513 9.6442C39.6113 9.63187 39.8306 9.86762 39.7645 10.167C39.7384 10.2855 39.6589 10.3913 39.6056 10.504C39.5924 10.5318 39.5713 10.5812 39.5809 10.5907C39.7002 10.7079 39.6023 10.7759 39.5386 10.8662C39.4278 11.0233 39.3328 11.1925 39.2024 11.4029C39.5067 11.3501 39.5487 11.3998 39.5077 11.6232C39.4386 11.9984 39.3793 12.3753 39.3041 12.8199C39.4963 12.6548 39.6182 12.6996 39.6606 12.8353C39.7024 12.969 39.6926 13.1254 39.6803 13.2696C39.6685 13.4124 39.5729 13.5689 39.6081 13.6896C39.662 13.8744 39.7971 14.0336 39.8977 14.2037C39.9168 14.196 39.9359 14.1885 39.9548 14.1808C39.926 14.0395 39.8001 13.858 40.0927 13.8466C40.0454 13.775 39.9917 13.7226 39.9734 13.6592C39.9445 13.5596 39.8898 13.4078 39.9326 13.3559C40.1133 13.1386 40.0504 12.9152 40.0084 12.6819C39.9822 12.5369 39.9816 12.3946 40.1582 12.3329C40.1901 12.3218 40.2311 12.2672 40.229 12.2353C40.2186 12.0699 40.2508 11.9286 40.3645 11.8015C40.4004 11.7614 40.3809 11.6715 40.3963 11.6071C40.4237 11.4929 40.4345 11.3636 40.4958 11.272C40.5628 11.1717 40.6792 11.1068 40.777 11.0239C40.4514 10.7375 40.39 10.4397 40.4829 9.98267C40.5526 9.63951 40.7524 9.44973 41.0572 9.35527C41.3013 9.27963 41.3629 9.16519 41.3191 8.91272C41.2814 8.69421 41.1956 8.47887 41.3353 8.24864C41.4383 8.07921 41.3659 7.9107 41.2275 7.7651C40.9944 7.52397 40.7301 7.29563 40.5654 7.00836Z" fill="url(#paint0_linear)"/>
<defs>
<linearGradient id="paint0_linear" x1="20.9941" y1="0.52539" x2="27.0661" y2="34.4784" gradientUnits="userSpaceOnUse">
<stop stop-color="#4BB16B"/>
<stop offset="1" stop-color="#005085"/>
</linearGradient>
</defs>
</svg>
