<svg width="34" height="36" viewBox="0 0 34 36" fill="none" xmlns="http://www.w3.org/2000/svg">
<path d="M3.98349 35.2135C4.32665 35.6142 4.7935 35.5781 5.24838 35.5461C5.83893 35.506 5.90277 35.3497 5.57159 34.8649C5.4838 34.7367 5.40001 34.6085 5.30424 34.4923C4.96508 34.0795 4.78552 33.6067 4.73365 33.0698C4.58601 31.5231 4.53414 29.9765 4.87729 28.4458C5.04488 27.6965 5.32819 27.0033 5.79504 26.3782C6.69682 25.1722 7.59461 23.9621 8.35674 22.6558C8.50836 22.3994 8.73979 22.3553 9.03107 22.5156C9.82911 22.9523 10.671 23.2729 11.5648 23.4452C12.315 23.5894 13.0731 23.5534 13.8313 23.5413C15.3236 23.5213 16.8039 23.373 18.2484 22.9764C18.6474 22.8682 18.8788 23.0485 18.8948 23.4612C18.9507 25.06 19.1103 26.6467 19.4854 28.2014C19.7527 29.3033 19.7687 30.4212 19.8046 31.5432C19.8205 32.032 19.8445 32.5168 19.8405 33.0057C19.8365 33.3383 19.7966 33.6708 19.7726 33.9994C19.7647 34.0876 19.7487 34.1717 19.7487 34.2599C19.7487 34.4442 19.8046 34.4722 19.9642 34.3761C20.3113 34.1637 20.5228 34.2679 20.5627 34.6726C20.6106 35.1414 20.8101 35.3818 21.2769 35.4419C21.6041 35.486 21.9353 35.482 22.2665 35.486C22.4102 35.486 22.5099 35.4138 22.4421 35.2456C22.9249 35.526 23.4436 35.5461 23.9783 35.482C24.1499 35.4619 24.1898 35.3578 24.102 35.2135C23.8466 34.7848 23.6192 34.332 23.3319 33.9273C22.8491 33.2541 22.6456 32.5168 22.6336 31.6994C22.6216 30.8259 22.5738 29.9524 22.5538 29.0789C22.5498 28.8906 22.5857 28.6942 22.6336 28.5059C22.8251 27.7807 22.8211 27.0394 22.8132 26.2981C22.8012 25.5248 22.7214 24.7514 22.861 23.9821C23.0685 22.8281 23.5633 21.8063 24.2536 20.8727C24.8402 20.0793 25.4626 19.31 26.0253 18.5046C26.548 17.7553 27.0308 16.962 27.2383 16.0644C27.4258 15.255 27.5096 14.4216 27.6213 13.5961C27.7251 12.8228 27.8009 12.0455 27.9086 11.2761C27.9366 11.0918 28.0323 10.9115 28.1161 10.7392C28.18 10.607 28.2997 10.5749 28.4513 10.5909C29.0498 10.6591 29.6523 10.7031 30.2549 10.7753C30.4504 10.7993 30.6419 10.8674 30.8294 10.9275C31.1925 11.0397 31.5557 11.1559 31.9427 11.0918C32.23 11.0437 32.4774 10.9275 32.5731 10.615C32.5851 10.5829 32.6131 10.5469 32.645 10.5308C32.9243 10.3906 32.9722 10.1302 32.9881 9.85367C33.0041 9.62929 33.032 9.4049 33.02 9.18051C33.0121 9.06431 32.9562 8.92808 32.8804 8.84393C32.5572 8.49132 32.214 8.15474 31.8789 7.81014C31.3841 7.29726 30.8294 6.87252 30.2269 6.5119C29.8439 6.28351 29.5486 5.991 29.3411 5.59031C29.2014 5.31784 29.0179 5.06941 28.8583 4.80896C28.8343 4.76488 28.8104 4.71279 28.8144 4.66471C28.9062 3.06594 27.8328 1.39105 25.9095 0.806039C24.2416 0.301166 22.6216 0.45343 21.1612 1.45917C19.9761 2.27257 19.3656 3.47064 19.1183 4.86505C18.9467 5.83874 18.9666 6.80841 19.3337 7.74203C19.6849 8.64358 20.3552 9.27267 21.1453 9.78556C21.2131 9.82963 21.2809 9.8697 21.3408 9.90977C21.269 10.4387 20.846 10.8634 20.3233 10.9155C19.5891 10.9876 18.8549 11.0477 18.1167 11.1038C16.6204 11.22 15.1241 11.3803 13.6238 11.4324C12.1314 11.4845 10.6311 11.4444 9.13881 11.4124C7.82604 11.3843 6.51726 11.3803 5.2444 11.757C3.44083 12.2899 2.13604 13.4479 1.20633 15.0587C1.1385 15.1789 1.0547 15.2951 0.970909 15.4073C0.547951 15.9803 0.196815 16.5893 0.0611458 17.3025C-0.026638 17.7593 0.00927353 18.2041 0.180855 18.6409C0.376373 19.1377 0.52401 19.1778 0.875145 18.8492C1.29012 19.899 1.72106 20.9569 2.13205 22.0267C2.57496 23.1847 2.48718 24.3147 1.91259 25.4086C1.80087 25.6209 1.7091 25.8453 1.59338 26.0537C1.32205 26.5425 1.26219 27.0634 1.37392 27.6044C1.69712 29.143 1.74101 30.7057 1.745 32.2684C1.745 32.8534 1.63727 33.4344 1.58141 34.0194C1.57343 34.0876 1.58141 34.1597 1.58141 34.2278C1.61333 34.2358 1.6253 34.2438 1.63727 34.2398C2.00836 34.0916 2.09614 34.1356 2.16796 34.5403C2.19989 34.7166 2.21584 34.897 2.21983 35.0773C2.21983 35.2576 2.30762 35.3738 2.45924 35.4299C2.90215 35.6022 3.35704 35.5902 3.81192 35.474C3.94359 35.4419 4.01143 35.3457 3.98749 35.2015C3.77202 34.8809 3.56054 34.5604 3.34507 34.2398C3.14556 33.9794 3.02585 33.6869 2.98994 33.3623C2.95802 33.0778 2.92211 32.7933 2.89817 32.5048C2.79043 31.2146 2.79043 29.9324 3.04181 28.6542C3.06177 28.542 3.08969 28.4338 3.11763 28.3216C3.14556 28.2214 3.17349 28.1172 3.21738 27.965C3.4129 28.8505 3.4528 29.688 3.50069 30.5294C3.57251 31.7716 3.54458 33.0097 3.34108 34.2398C3.40492 34.2238 3.46876 34.2118 3.52862 34.1877C3.7401 34.1036 3.86379 34.1316 3.90768 34.348C3.95955 34.6365 3.95955 34.925 3.98349 35.2135ZM25.2033 4.32813C25.1714 4.3161 25.1434 4.30408 25.1115 4.29206C24.8202 4.17987 24.5289 4.15583 24.2895 4.38022C24.0501 4.6006 24.1219 4.87307 24.2137 5.14554C24.2297 5.19763 24.2017 5.28578 24.1618 5.32585C23.3838 6.11121 22.7972 7.02479 22.2745 7.99046C22.2426 8.05056 22.2067 8.11066 22.1588 8.1868C21.7598 7.67391 21.4605 7.14499 21.4326 6.50389C21.3807 5.30181 22.3184 4.11576 23.4955 3.87534C24.1339 3.75113 24.7125 3.87935 25.2033 4.32813ZM21.0535 28.0932C21.0734 28.0932 21.0974 28.0972 21.1173 28.0972C21.5802 29.9364 21.4286 31.8236 21.5004 33.6949C21.273 33.3984 21.1173 33.0778 21.0734 32.7212C20.9218 31.479 20.846 30.2329 20.8859 28.9827C20.8939 28.6862 20.9976 28.3897 21.0535 28.0932ZM21.8196 34.2478C22.2186 34.2679 22.2466 34.5003 22.2625 34.937C22.1069 34.6966 21.9712 34.4842 21.8196 34.2478Z" fill="url(#paint0_linear)"/>
<defs>
<linearGradient id="paint0_linear" x1="16.5189" y1="0.52539" x2="9.13774" y2="33.9335" gradientUnits="userSpaceOnUse">
<stop stop-color="#4BB16B"/>
<stop offset="1" stop-color="#005085"/>
</linearGradient>
</defs>
</svg>
