<svg width="36" height="36" viewBox="0 0 36 36" fill="none" xmlns="http://www.w3.org/2000/svg">
<path d="M35.026 6.1038C34.9384 5.98962 34.8491 5.85362 34.7295 5.79354C34.1738 5.51368 33.6124 5.24342 33.0421 4.99753C32.7747 4.88224 32.5728 4.73546 32.4948 4.43572C32.478 4.37077 32.4475 4.30036 32.4025 4.25392C32.1211 3.96457 32.1185 3.96509 32.4532 3.74381C32.4969 3.71491 32.5513 3.70328 32.5616 3.69932C32.5357 3.5578 32.5216 3.44596 32.4925 3.3384C32.4784 3.28618 32.4452 3.22922 32.4043 3.19688C32.2031 3.03976 31.9644 2.91993 31.801 2.7297C31.6402 2.54232 31.4761 2.55161 31.2806 2.5707C31.2151 2.57707 31.1231 2.57915 31.0834 2.53998C30.8534 2.30941 30.5364 2.42177 30.267 2.32429C30.0321 2.2392 29.7076 2.42125 29.4226 2.48328C29.383 2.49172 29.335 2.50231 29.3007 2.4875C28.8122 2.27421 28.3999 2.4043 28.0671 2.80309C28.0507 2.89136 28.028 2.99177 27.9671 3.0408C27.7356 3.22682 27.4751 3.37737 27.2575 3.57819C27.1057 3.71835 26.9455 3.90359 26.8999 4.09675C26.8542 4.29127 26.7639 4.35804 26.6167 4.40655C26.4582 4.45851 26.3122 4.50911 26.3066 4.72825C26.3051 4.78287 26.2087 4.82892 26.1885 4.89042C26.1458 5.02 26.1197 5.15646 26.0962 5.29161C26.0832 5.36657 26.1121 5.45749 26.0811 5.51926C25.971 5.74106 25.8375 5.95039 25.724 6.17031C25.6246 6.36243 25.4434 6.58131 25.4737 6.75511C25.5106 6.96496 25.4602 7.17007 25.507 7.36141C25.5855 7.68362 25.4324 7.91023 25.289 8.15639C25.1719 8.35695 25.0553 8.56291 24.9756 8.78068C24.9053 8.97332 24.7608 9.15907 24.8743 9.39971C24.9027 9.45985 24.8314 9.57514 24.7967 9.661C24.7647 9.73998 24.6955 9.81045 24.6862 9.88995C24.6423 10.27 24.621 10.6528 24.5766 11.0329C24.5208 11.5096 24.3974 11.9566 24.0165 12.2807C23.62 12.6181 23.2085 12.6181 22.8609 12.2322C22.5965 11.9388 22.3514 11.6222 22.1303 11.2925C21.5076 10.3645 20.901 9.42459 20.29 8.48808C20.263 8.44678 20.2343 8.39008 20.2396 8.345C20.276 8.04825 20.1022 7.85795 19.9076 7.7085C19.701 7.54976 19.6614 7.39902 19.8526 7.17644C19.686 7.0935 19.531 7.04128 19.4053 6.94723C19.2662 6.84305 19.1111 6.72251 19.0392 6.57014C18.9132 6.30326 18.927 5.96806 18.6652 5.76431C18.6468 5.74996 18.6634 5.69404 18.6509 5.6628C18.5977 5.53004 18.543 5.39781 18.4824 5.26849C18.4428 5.18367 18.3572 5.10658 18.3529 5.0226C18.3381 4.72948 18.3383 4.43429 18.3549 4.1415C18.3659 3.9486 18.4175 3.75836 18.4439 3.56566C18.4507 3.51636 18.44 3.45914 18.4216 3.41225C18.3429 3.21136 18.2445 3.01768 18.1811 2.81231C18.1458 2.69729 18.1653 2.56401 18.1599 2.43892C18.2134 2.17841 17.6696 2.22933 17.9204 1.81431C17.8555 1.76131 17.7798 1.71571 17.7259 1.65083C17.6682 1.5814 17.5738 1.468 17.5946 1.4187C17.7057 1.15585 17.5332 1.1224 17.3671 1.06174C17.172 0.990426 16.9811 0.906707 16.7883 0.828248C16.7961 0.804932 16.8034 0.781615 16.8111 0.758558C16.511 0.80097 16.2076 0.921775 15.9208 0.703676C15.8827 0.674774 15.8162 0.648859 15.7779 0.663667C15.4726 0.780251 15.2234 0.633726 14.9819 0.525391C14.8673 0.613332 14.751 0.670292 14.6283 0.698155C14.3535 0.760961 14.0759 0.809413 13.7994 0.864035C13.7912 0.865594 13.7825 0.869361 13.7761 0.874882C13.6606 0.979255 13.5453 1.08395 13.4221 1.19605C13.5764 1.50534 13.4957 1.4817 13.2314 1.55698C13.1514 1.57977 13.0747 1.63355 13.0095 1.68921C12.953 1.73747 12.9067 1.80398 12.8694 1.87049C12.7364 2.10762 12.6089 2.34799 12.4816 2.58837C12.4773 2.59655 12.4949 2.61987 12.5054 2.63338C12.6846 2.86343 12.5892 3.10082 12.5534 3.35256C12.522 3.57462 12.5539 3.82104 12.6173 4.03836C12.6636 4.19709 12.806 4.32563 12.9336 4.50768C13.0443 4.49151 13.2027 4.51541 13.1854 4.77241C13.1777 4.88581 13.1782 5.00188 13.1544 5.11184C13.0693 5.50406 12.9793 5.89545 12.8804 6.28417C12.8668 6.33742 12.8006 6.39231 12.7467 6.41588C12.4125 6.56137 11.829 6.24201 11.7651 5.82861C11.6891 5.33838 11.6945 4.83489 11.649 4.33881C11.6346 4.18352 11.5654 4.03433 11.5306 3.88014C11.5143 3.80701 11.488 3.68672 11.5209 3.65964C11.6843 3.52532 11.5572 3.42329 11.4972 3.326C11.3586 3.10264 11.366 3.07399 11.651 2.99131C11.5263 2.80212 11.4059 2.61954 11.2837 2.43431C11.3538 2.37209 11.4021 2.32935 11.4762 2.26388C11.2929 2.10833 11.115 1.97453 10.9593 1.81736C10.8901 1.74741 10.8653 1.62998 10.8203 1.53437C10.7037 1.27705 10.3233 1.35466 10.2247 1.01978C10.2167 0.993284 10.1503 0.968343 10.113 0.970747C9.97138 0.980294 9.82747 0.988737 9.68994 1.0216C9.48087 1.07142 9.29272 1.14033 9.0611 1.04706C8.72979 0.913786 8.37473 0.839874 8.02632 0.757194C7.83003 0.71056 7.6613 0.764598 7.55855 0.973669C7.53224 1.02693 7.45705 1.07648 7.39778 1.08655C7.05783 1.14377 6.94173 1.42708 6.80759 1.65999C6.87382 1.77767 6.92751 1.87334 7.00852 2.01773C6.46125 2.06066 6.08238 2.28246 5.89655 2.66774C5.95206 2.80556 6.04611 2.93455 6.01672 2.98332C5.79123 3.35698 5.88045 3.73881 5.94361 4.12305C6.18081 4.14663 6.14529 4.17046 6.27717 4.38298C6.40373 4.58679 6.35361 4.93524 6.76718 4.97499C6.61456 5.50549 6.48881 6.0156 6.31909 6.50954C6.17417 6.93112 5.94279 7.32251 5.81473 7.74812C5.68259 8.18776 5.45942 8.54914 5.16596 8.87986C4.82782 9.26091 4.46481 9.62372 4.1662 10.0363C3.54042 10.9012 3.05242 11.8472 2.7582 12.8927C2.68101 13.167 2.62632 13.4608 2.48929 13.7017C1.84127 14.8396 1.31392 16.0148 1.10328 17.3379C1.00793 17.936 1.05141 18.4795 1.31543 19.0029C1.46755 19.3042 1.46905 19.5806 1.31211 19.8702C1.24638 19.9913 1.10911 20.1551 1.14363 20.2357C1.30315 20.609 0.993579 20.8428 0.939133 21.1462C0.91332 21.2898 0.883372 21.4326 0.861694 21.5427C1.08762 21.4256 1.29958 21.3206 1.50664 21.2058C1.60683 21.1504 1.73414 21.0996 1.78758 21.0081C2.21268 20.2789 2.34482 19.8531 1.78351 19.1031C1.58258 18.8344 1.4995 18.5447 1.4824 18.2122C1.45527 17.6782 1.55576 17.1663 1.71603 16.6681C1.8216 16.3398 1.97191 16.026 2.11532 15.712C2.14088 15.6561 2.2306 15.6318 2.29068 15.5928C2.31217 15.6543 2.3487 15.7147 2.35227 15.7773C2.37426 16.1535 2.38241 16.5307 2.40847 16.9067C2.42226 17.1054 2.45195 17.3044 2.49255 17.4992C2.6411 18.2139 2.80594 18.9262 2.62168 19.6536C3.06313 19.8616 2.59662 20.1086 2.67688 20.3256C2.94885 20.3839 2.95349 20.4003 2.831 20.6588C2.69398 20.9475 2.54756 21.2338 2.43961 21.5342C2.36474 21.7428 2.24589 21.9773 2.4626 22.1899C2.4861 22.2129 2.48767 22.2918 2.46824 22.3261C2.18273 22.829 2.7765 23.1692 2.69116 23.6333C2.69035 23.638 2.70163 23.6473 2.70877 23.6513C2.95186 23.7912 2.87799 24.0896 3.00656 24.2944C3.14533 24.5151 3.27778 24.7637 3.18499 25.0596C3.17428 25.0934 3.25379 25.153 3.28286 25.2054C3.3358 25.3014 3.39996 25.396 3.42859 25.5003C3.60577 26.144 3.60652 26.7736 3.28035 27.3783C3.18681 27.5522 3.12341 27.7432 3.04283 27.9247C2.87361 28.3066 2.88081 28.6824 3.07579 29.0515C3.18907 29.2656 3.31581 29.4724 3.41888 29.6915C3.47508 29.8118 3.52902 29.9523 3.5242 30.0813C3.49406 30.8675 3.64386 31.6329 3.8087 32.3873C3.93526 32.9655 3.94366 33.5177 3.80307 34.0827C3.69443 34.5192 3.81766 34.7674 4.24634 34.8522C5.04259 35.0097 5.84581 35.1972 6.63799 34.8382C6.68222 34.3662 6.63693 34.256 6.27222 34.0286C5.66255 33.6484 5.15844 33.16 4.91635 32.4559C4.75452 31.9856 4.6418 31.4916 4.55979 30.9989C4.50021 30.6399 4.45829 30.2506 4.52934 29.9011C4.67407 29.1899 4.72569 28.499 4.53191 27.7907C4.48436 27.6171 4.52602 27.4115 4.54926 27.2239C4.595 26.855 4.87418 26.6568 5.09754 26.4051C5.42121 26.0399 5.68679 25.6196 5.98358 25.228C6.02318 25.1755 6.10932 25.1151 6.15738 25.1275C6.20976 25.141 6.27191 25.2312 6.2798 25.2944C6.32504 25.6673 6.38644 26.0423 6.38362 26.4162C6.38005 26.9141 6.32072 27.4115 6.28958 27.9094C6.24791 28.5742 6.38951 29.2124 6.59864 29.8311C6.80722 30.4478 6.94756 31.0631 6.90997 31.7262C6.87601 32.3242 6.91022 32.9263 6.898 33.5262C6.89368 33.7372 6.99104 33.8932 7.14598 33.9475C7.86887 34.2011 8.58719 34.5496 9.37912 34.2266C9.50844 34.1738 9.6355 34.0824 9.7672 34.0756C9.99851 34.0633 10.0105 33.9224 9.94331 33.7774C9.89012 33.6624 9.77973 33.5447 9.6672 33.4952C8.87426 33.1473 8.33927 32.5197 7.99161 31.7415C7.80578 31.3252 7.75133 30.8418 7.66412 30.3834C7.54784 29.7718 7.54345 29.17 7.72421 28.5533C7.82489 28.2102 7.85791 27.7828 7.75209 27.4512C7.56544 26.8669 7.60717 26.3544 7.92871 25.8685C8.13346 25.5589 8.39547 25.2905 8.62503 24.9979C9.02946 24.4825 9.45017 23.9711 9.5959 23.3028C9.66288 22.9962 9.78587 22.7417 10.0189 22.552C10.3328 22.2965 10.5195 21.977 10.5836 21.5652C10.6268 21.2875 10.6856 21.2714 10.9323 21.3866C11.0647 21.2506 11.2053 21.1219 11.3273 20.9764C11.4579 20.8206 11.5622 20.7755 11.712 20.9614C11.963 21.273 12.2813 21.4489 12.6903 21.4153C12.7498 21.4102 12.8521 21.4595 12.8707 21.5096C12.949 21.7184 13.1038 21.729 13.2818 21.7325C13.4569 21.7359 13.6836 21.6991 13.7963 21.7953C14.0908 22.0465 14.4446 22.0133 14.7708 22.0865C14.9638 22.1297 14.9881 22.2134 14.9715 22.3679C14.9636 22.4429 14.9405 22.5163 14.9291 22.5698C15.1307 22.6018 15.2432 22.6695 15.1824 22.8944C15.1327 23.0775 15.0757 23.2611 15.0543 23.4488C15.0418 23.5587 15.085 23.6788 15.1161 23.7901C15.1448 23.8918 15.1946 23.9867 15.2288 24.0868C15.314 24.3362 15.3855 24.5912 15.4827 24.835C15.5438 24.9881 15.6098 25.193 15.7304 25.2542C15.9061 25.3435 15.9283 25.4575 15.949 25.6188C15.9628 25.7258 15.9924 25.8984 16.0541 25.9196C16.278 25.9967 16.2969 26.2134 16.4035 26.3695C16.4698 26.4663 16.5298 26.5985 16.6228 26.6382C16.781 26.7058 16.8084 26.8055 16.8169 26.9605C16.8365 27.3174 16.837 27.6826 16.914 28.0279C17.1941 29.285 17.2018 30.5382 16.97 31.803C16.8744 32.3242 16.8002 32.8537 16.7724 33.3826C16.7534 33.7398 16.7189 34.0715 16.5515 34.3917C16.4547 34.5772 16.461 34.7791 16.6502 34.9317C17.1175 35.3091 17.605 35.6262 18.2363 35.5539C18.574 35.5152 18.9145 35.4946 19.2489 35.4352C19.3715 35.4134 19.4948 35.3215 19.5911 35.2311C19.7125 35.1171 19.7062 34.9858 19.5569 34.8813C19.4242 34.7886 19.2882 34.6985 19.1658 34.5928C18.9273 34.3869 18.6908 34.1773 18.4646 33.9568C18.1167 33.6175 18.0561 33.1669 18.0495 32.705C18.0398 32.0168 18.0786 31.3252 18.0254 30.6412C17.9845 30.1168 18.0901 29.6645 18.3508 29.2309C18.4574 29.0539 18.5709 28.8775 18.6481 28.6864C18.8431 28.2033 18.9887 27.7011 18.905 27.1711C18.8375 26.7443 19.0832 26.3876 19.109 25.9845C19.1121 25.9339 19.1691 25.8809 19.211 25.8398C19.4419 25.6138 19.6786 25.3941 19.9071 25.1656C19.9966 25.0761 20.0707 24.97 20.1517 24.8712C20.2157 24.9947 20.2859 25.1151 20.3424 25.2422C20.6221 25.87 20.7391 26.5306 20.7539 27.2217C20.7626 27.6195 20.8242 28.0181 20.8889 28.4118C20.9533 28.8051 21.1082 29.1901 21.1238 29.5828C21.1759 30.8844 21.1941 32.1882 21.1997 33.4912C21.2012 33.8251 21.1 34.1584 21.0617 34.4939C21.0446 34.6431 20.9086 34.8134 21.1095 34.9446C21.396 35.132 21.6867 35.3013 22.0423 35.2865C22.5078 35.2671 22.973 35.2412 23.4388 35.2369C23.7166 35.2345 23.995 35.2647 24.2724 35.2872C24.4779 35.3039 24.507 35.1857 24.4616 35.0238C24.4388 34.943 24.3989 34.8489 24.3376 34.8018C24.097 34.6173 23.8587 34.4207 23.5935 34.2826C23.278 34.1186 22.9912 33.9243 22.9127 33.5623C22.824 33.154 22.5789 32.8702 22.3457 32.5594C22.2309 32.4062 22.1435 32.19 22.1361 31.9984C22.1111 31.3375 22.1228 30.6748 22.1287 30.0128C22.1302 29.8382 22.1346 29.6559 22.1819 29.4908C22.411 28.6905 22.4749 27.8677 22.5428 27.042C22.5851 26.5292 22.6709 26.013 23.1346 25.6855C23.1752 25.6566 23.2338 25.6094 23.2338 25.5707C23.2348 25.1526 23.5699 25.0217 23.8148 24.8036C23.9273 24.7033 24.0201 24.547 24.0599 24.3984C24.1517 24.0579 24.1714 23.6937 24.2854 23.3636C24.3752 23.1033 24.5454 22.8656 24.7123 22.6444C24.7979 22.531 24.97 22.4918 25.0753 22.3886C25.1946 22.2718 25.2749 22.3328 25.3503 22.4175C25.3979 22.4707 25.4165 22.5516 25.4501 22.6237C25.7233 22.4183 26.0615 22.757 26.311 22.4792C26.3174 22.4721 26.3667 22.5131 26.3984 22.5224C26.4384 22.5344 26.4981 22.5588 26.5191 22.5404C26.8077 22.2887 27.0904 22.0295 27.376 21.7741C27.4557 21.7025 27.5444 21.6413 27.6214 21.5671C27.7505 21.4422 27.9044 21.3294 27.9897 21.1764C28.0621 21.0469 28.1071 20.9488 28.2668 20.9183C28.3412 20.9043 28.4057 20.7922 28.4588 20.7129C28.5055 20.6436 28.5201 20.5511 28.5662 20.4811C28.9412 19.9118 29.4424 19.4532 29.7563 18.8159C29.9506 18.4211 30.0996 18.0318 30.1893 17.613C30.2264 17.4405 30.2556 17.3149 30.4184 17.3125C30.456 17.1292 30.4506 16.9442 30.5291 16.8131C30.7776 16.397 30.7476 15.8781 31.0145 15.4722C31.0544 15.4118 31.0513 15.3207 31.0662 15.2432C31.1433 14.8421 31.3177 14.4496 31.1702 14.0275C31.1676 14.0198 31.1673 14.0073 31.1715 14.0015C31.3946 13.6973 31.2743 13.3753 31.2203 13.0555C31.1973 12.9188 31.175 12.7802 31.1707 12.6418C31.1628 12.3972 31.1687 12.1521 31.1684 11.9071C31.1682 11.6696 31.0341 11.4611 31.1999 11.1852C31.3392 10.9531 31.2819 10.5983 31.3282 10.3007C31.3634 10.0741 31.4186 9.8502 31.4792 9.62917C31.4938 9.57592 31.5634 9.5385 31.6073 9.49401C31.6439 9.54435 31.6807 9.59469 31.694 9.613C31.7418 9.51311 31.797 9.39757 31.8522 9.28202C31.9105 9.34138 31.9685 9.40075 32.0242 9.45745C32.2898 9.35912 32.375 9.11614 32.4481 8.85803C32.4805 8.74353 32.5217 8.6222 32.5928 8.53257C32.6372 8.47639 32.7446 8.47347 32.8737 8.42976C33.1602 7.84178 33.1602 7.84119 33.8067 7.90458C33.8563 7.90939 33.9057 7.93978 33.954 7.93667C34.2365 7.91783 34.5869 7.99233 34.7843 7.846C35.0741 7.63134 35.2592 7.2612 35.4765 6.94795C35.5098 6.90001 35.5034 6.78395 35.4697 6.73069C35.3323 6.51584 35.182 6.30703 35.026 6.1038Z" fill="url(#paint0_linear)"/>
<defs>
<linearGradient id="paint0_linear" x1="18.1801" y1="0.52539" x2="25.2444" y2="34.0769" gradientUnits="userSpaceOnUse">
<stop stop-color="#4BB16B"/>
<stop offset="1" stop-color="#005085"/>
</linearGradient>
</defs>
</svg>
