<svg width="30" height="36" viewBox="0 0 30 36" fill="none" xmlns="http://www.w3.org/2000/svg">
<path d="M25.2515 21.0391C24.4575 22.2254 23.6343 23.3919 22.8246 24.5677C22.7958 24.6098 22.7708 24.6547 22.7137 24.7476C24.6826 24.5562 25.921 25.3184 26.2262 27.3322C26.8942 27.1121 27.4384 26.7102 27.9884 26.3199C28.2042 26.1667 28.4004 25.9788 28.6329 25.8596C28.7818 25.7835 29.0583 25.7236 29.1392 25.8004C29.2659 25.9212 29.3648 26.19 29.3171 26.3491C29.2098 26.7066 29.0576 27.0759 28.8286 27.3663C28.4449 27.8532 27.9968 28.2914 27.5557 28.7304C27.4125 28.873 27.3463 28.9645 27.4264 29.1802C28.0398 30.8327 27.2505 33.0979 24.9908 33.5805C24.167 33.7566 23.3102 33.7873 22.4664 33.8576C22.223 33.8778 22.0286 33.9303 21.8344 34.0854C20.6194 35.0564 19.2459 35.5925 17.6683 35.5631C16.2118 35.5356 14.9698 34.9631 13.8642 34.069C13.5796 33.8388 13.2979 33.7606 12.9397 33.764C10.0205 33.7917 7.10069 33.8283 4.18177 33.8007C3.46324 33.7937 2.7206 33.6405 2.03559 33.4147C0.925417 33.0487 0.389299 32.1794 0.37674 31.0346C0.364052 29.8785 0.880226 28.9982 1.95107 28.4951C2.9263 28.0372 3.98421 28.0033 5.03486 27.9656C5.59547 27.9454 6.15709 27.962 6.75917 27.962C6.63994 27.2086 6.72805 26.5638 6.99453 25.9533C7.44753 24.9164 8.32921 24.5254 9.39305 24.4703C10.606 24.4075 11.6888 24.8111 12.6829 25.4718C12.8817 25.604 13.0446 25.6045 13.2698 25.5303C15.0044 24.958 16.3116 23.7981 17.3996 22.4147C19.3138 19.9811 20.5189 17.2051 21.1197 14.1723C21.2835 13.346 21.0984 12.557 20.8421 11.7766C20.4036 10.4417 19.7752 9.21839 18.6928 8.28147C18.3668 7.99931 17.9962 7.76125 17.6226 7.54266C16.9582 7.15435 16.576 6.63004 16.6664 5.8325C16.671 5.79281 16.6571 5.75103 16.6476 5.67616C16.3723 5.74538 16.1109 5.82195 15.8449 5.87578C15.2202 6.00241 14.5941 6.12358 13.9544 5.95681C13.8954 5.94142 13.8004 5.96064 13.7579 6.00116C13.5202 6.22722 13.2715 6.44782 13.0722 6.70567C12.9722 6.83513 12.9609 7.03701 12.9238 7.20899C12.8561 7.52369 12.7989 7.84045 12.7374 8.15647C12.7052 8.15339 12.6729 8.15031 12.6408 8.14723C12.6105 7.77381 12.5803 7.4002 12.5518 7.04957H11.3833C11.3761 7.02319 11.3692 6.9965 11.3623 6.97011C12.2475 6.79945 12.9491 6.35046 13.5015 5.59595C13.1484 5.22384 13.2247 4.85174 13.4029 4.47524C13.4528 4.23253 13.5782 4.00527 13.7572 3.81306C14.0407 3.29077 14.3181 2.7654 14.5939 2.23896C14.8458 1.75794 15.1883 1.42371 15.7778 1.43602C15.857 1.43753 15.942 1.39682 16.0165 1.36014C18.7397 0.0101576 21.3089 0.330505 23.7332 2.08293C24.1344 2.37281 24.4981 2.72155 24.8452 3.07626C25.3355 3.57732 25.8464 4.03912 26.4568 4.39917C28.3557 5.51932 29.2627 7.25585 29.5609 9.37787C29.8882 11.7074 29.3124 13.8571 28.3322 15.9424C27.4834 17.7492 26.3565 19.3876 25.2515 21.0391Z" fill="url(#paint0_linear)"/>
<defs>
<linearGradient id="paint0_linear" x1="15.0148" y1="0.52539" x2="6.79655" y2="33.5171" gradientUnits="userSpaceOnUse">
<stop stop-color="#4BB16B"/>
<stop offset="1" stop-color="#005085"/>
</linearGradient>
</defs>
</svg>
